<?xml version="1.0" encoding="UTF-8"?><svg id="Layer_3" xmlns="http://www.w3.org/2000/svg" viewBox="0 0 500 500"><defs><style>.cls-1{fill:#571d0a;}.cls-2{fill:#f5d4a9;}</style></defs><rect class="cls-2" x="-.49" y="-.49" width="500.98" height="500.98"/><path class="cls-1" d="M54.84,380.14c-8.77,39.86-16.25,80.01-22.41,120.35H-.49V160.85c31.53,34.33,60.19,73.05,66.33,118.76,4.52,33.6-3.72,67.42-11,100.53Z"/><path class="cls-1" d="M53.64,379.8c-6.82,31.02-12.87,62.21-18.12,93.54-1.5,8.93-2.93,17.86-4.29,26.81l1.21-.92H-.49l1.25,1.25V160.85l-2.14.89c9.95,10.84,19.56,22.02,28.33,33.84,8.66,11.68,16.54,23.99,22.93,37.06,6.29,12.86,11.07,26.48,13.68,40.58,3.02,16.37,2.8,33.12.89,49.6-1.98,17.12-5.73,33.98-9.45,50.8-.46,2.06-.91,4.12-1.37,6.19-.35,1.57,2.07,2.24,2.42.67,3.74-17.01,7.69-34.02,10.09-51.29,2.34-16.88,3.16-34.01.76-50.94-2.04-14.36-6.4-28.3-12.34-41.51-6.04-13.43-13.71-26.07-22.26-38.04s-18.17-23.52-28.11-34.55c-1.26-1.4-2.53-2.8-3.81-4.18-.75-.81-2.14-.17-2.14.89v339.64c0,.68.57,1.25,1.25,1.25h32.92c.5,0,1.13-.39,1.21-.92,4.8-31.4,10.39-62.67,16.77-93.79,1.82-8.87,3.7-17.72,5.64-26.56.35-1.57-2.07-2.24-2.42-.67Z"/><path class="cls-1" d="M334.53-.49c-12.18,71.71-41.19,139.72-70.7,206.41-13.83,31.26-27.82,62.45-40.68,94.13-26.3,64.81-47.77,131.59-64.16,199.59-.07.28-.14.57-.22.85h-47.89c-.55-2.15-.68-4.47-.74-6.7-2.3-79.41,34.39-157.78,22.3-236.3-3.67-23.8-11.73-46.69-20.46-69.14-4.48-11.52-9.21-23.1-16.51-33.07-11.21-15.31-27.77-25.89-39.97-40.43-14.09-16.77-21.66-37.9-32.08-57.17C17.22,46.21,9.35,34.9-.49,26.5V-.49h82.27c4.5,4.98,8.17,10.93,12.66,15.98,8.83,9.92,21.43,17.12,26.31,29.47,4.44,11.26,1.29,23.94,2.23,36,.94,12.07,9.88,25.85,21.76,23.57,8.33-17.93,16.77-36.25,19.04-55.88,1.99-17.24-1.58-35.95-12.49-49.13h67.16c-.13,13.28-2.9,26.54-8.12,38.73-4.13,9.65-9.82,18.81-11.71,29.13-1.47,7.97-.58,16.15-.4,24.25.76,33.62-10.66,66.11-19.11,98.66-8.45,32.55-13.84,67.87-1.5,99.15,32.15-57.17,52.74-120.61,62.25-185.51,5.07-34.53,7.04-69.49,6.61-104.41h34.49c1.71,4.56,3.42,9.12,5.14,13.68,7.27.84,12.07-6.44,14.71-13.68h33.74Z"/><path class="cls-1" d="M333.32-.82c-2.86,16.76-6.62,33.35-11.1,49.74s-9.64,32.51-15.29,48.49c-5.67,16.04-11.84,31.91-18.29,47.65s-13.3,31.63-20.2,47.33-14.26,32.18-21.34,48.29c-7.19,16.34-14.29,32.73-21.13,49.22s-13.05,32.32-19.12,48.66c-6.07,16.32-11.83,32.74-17.28,49.27s-10.56,33.01-15.38,49.65c-4.84,16.72-9.38,33.53-13.6,50.42-1.02,4.08-1.95,8.18-3.02,12.25l1.21-.92h-47.89l1.21.92c-1.01-4.17-.79-8.68-.8-12.94s.08-8.46.27-12.69c.37-8.54,1.11-17.06,2.11-25.55,2.01-17.13,5.08-34.12,8.28-51.07,3.2-16.91,6.55-33.79,9.21-50.79,2.62-16.75,4.57-33.63,4.93-50.59.36-17.11-1.01-34.21-4.57-50.95-3.71-17.41-9.47-34.31-15.78-50.93-5.93-15.6-11.87-31.56-22.73-44.51-10.21-12.18-23.33-21.44-34-33.17-10.94-12.03-18.15-26.7-25.15-41.22-7.08-14.68-14.25-29.43-25.08-41.79-2.6-2.97-5.4-5.77-8.39-8.34l.37.89V-.49L-.49.76h82.27l-.89-.37c5.81,6.49,10.29,13.98,16.6,20.05,5.44,5.24,11.51,9.88,16.39,15.69,2.35,2.8,4.41,5.94,5.73,9.37,1.62,4.19,2.19,8.65,2.3,13.12.22,8.56-1.31,17.34.27,25.82,1.2,6.44,4.35,13.02,9.38,17.34,2.32,2,5.1,3.53,8.15,4.03,1.57.26,3.13.26,4.7.03,1.07-.16,1.34-.56,1.78-1.52.52-1.11,1.03-2.23,1.55-3.34,7.62-16.5,14.96-33.46,17.19-51.66,1.92-15.66-.55-32.62-9.31-46.01-1.07-1.63-2.23-3.19-3.47-4.69l-.89,2.14h67.16l-1.25-1.25c-.11,9.78-1.63,19.51-4.55,28.85s-7.59,17.56-11.35,26.41c-1.81,4.26-3.32,8.65-4.06,13.23-.81,5-.79,10.06-.6,15.1s.43,10.06.32,15.11-.47,9.83-1.02,14.72c-2.23,19.83-7.65,39.14-12.97,58.32s-10.2,37.15-12.54,56.3c-2.27,18.56-1.97,37.74,3.66,55.71.69,2.2,1.46,4.37,2.3,6.52.37.95,1.72,1.31,2.29.3,9.36-16.65,17.74-33.84,25.17-51.44s13.86-35.55,19.36-53.81c5.5-18.28,10.03-36.84,13.63-55.58s6.5-39.48,8.28-59.4c1.86-20.75,2.69-41.59,2.66-62.42,0-2.64-.02-5.27-.06-7.91l-1.25,1.25h34.49l-1.21-.92c1.71,4.56,3.42,9.12,5.14,13.68.21.57.61.86,1.21.92,8.48.84,13.41-7.79,15.92-14.6l-1.21.92h33.74c1.61,0,1.61-2.5,0-2.5h-33.74c-.59,0-1.01.4-1.21.92-2.14,5.8-6.24,13.47-13.5,12.76l1.21.92c-1.71-4.56-3.42-9.12-5.14-13.68-.2-.52-.62-.92-1.21-.92h-34.49c-.67,0-1.26.57-1.25,1.25.25,20.75-.34,41.51-1.93,62.21-1.55,20.17-4.05,40.27-7.63,60.18-3.36,18.71-7.65,37.25-12.89,55.52-5.22,18.19-11.37,36.11-18.48,53.65-7.15,17.64-15.28,34.88-24.37,51.6-1.12,2.05-2.25,4.1-3.39,6.13l2.29.3c-6.89-17.57-8.21-36.61-6.54-55.27s6.5-37.91,11.61-56.44,10.87-38.2,13.72-57.85c1.4-9.64,2.14-19.38,1.84-29.12-.15-5.11-.53-10.22-.35-15.33s1.02-9.72,2.61-14.4c3.03-8.89,7.97-16.98,11.32-25.75s5.58-18.59,6.37-28.25c.19-2.39.3-4.78.32-7.17,0-.68-.58-1.25-1.25-1.25h-67.16c-1.17,0-1.55,1.33-.89,2.14,8.47,10.31,12.25,23.79,12.62,36.97.41,14.72-3.61,29.15-8.92,42.75-3.15,8.07-6.79,15.93-10.44,23.77l.75-.58c-9.42,1.69-16.16-7.51-18.73-15.39-3.57-10.93-.32-22.74-1.54-33.96-.61-5.56-2.29-10.84-5.39-15.52-2.81-4.25-6.42-7.88-10.16-11.3s-7.74-6.78-11.32-10.46c-4.15-4.27-7.48-9.2-11.13-13.89-.92-1.19-1.87-2.36-2.86-3.49-.46-.52-.78-.96-1.51-1.04-.2-.02-.42,0-.63,0H25.02C16.65-1.74,8.27-1.93-.1-1.74c-.13,0-.26,0-.39,0-.68,0-1.25.57-1.25,1.25v24.08c0,.94-.11,1.96,0,2.9s1,1.43,1.65,2.01c.85.76,1.69,1.55,2.51,2.35,1.65,1.61,3.23,3.3,4.74,5.03,6.19,7.1,11.27,15.09,15.7,23.38,8.7,16.28,15.4,33.7,25.99,48.91,5.19,7.46,11.38,14,18.04,20.16s13.41,11.84,19.61,18.3c6.53,6.8,11.82,14.4,16.04,22.83,4.39,8.77,7.83,18,11.29,27.17,7.14,18.9,13.53,38.2,16.92,58.17,3.26,19.17,3.5,38.74,2.02,58.09-1.48,19.42-4.68,38.67-8.22,57.81-3.58,19.35-7.53,38.63-10.59,58.07-3.02,19.18-5.19,38.55-5.18,57.98,0,4.64-.21,9.52.89,14.06.13.53.67.92,1.21.92h47.89c.54,0,1.07-.39,1.21-.92,2.2-8.39,4.15-16.85,6.33-25.25s4.46-16.83,6.81-25.21c4.67-16.69,9.65-33.29,14.93-49.79,5.28-16.5,10.87-32.91,16.76-49.2,5.91-16.37,12.13-32.63,18.65-48.77,6.69-16.56,13.7-32.99,20.85-49.37,7.15-16.38,14.42-32.7,21.65-49.04,6.86-15.52,13.66-31.07,20.23-46.72s12.99-31.65,18.92-47.69c5.88-15.91,11.33-31.99,16.14-48.27s8.97-32.8,12.25-49.48c.8-4.06,1.54-8.12,2.24-12.2.27-1.58-2.14-2.25-2.42-.67Z"/><path class="cls-1" d="M459.49,11.27c-37.8,57.51-67.17,120.57-86.88,186.51-9.84,32.9-17.42,66.87-33.56,97.19-8.06,15.14-18.23,29.32-23.57,45.61-9.62,29.36-2.53,62.33-12.83,91.46-9.13,25.83-30.74,45.31-45.21,68.43h-28.27c3.19-35.09,9.6-69.89,19.15-103.81,7.92-28.17,17.99-55.71,28.86-82.89,35.97-90,81.61-180.39,79.8-277.29-.19-10.45-.86-21.38,3.52-30.87,1.02-2.21,2.33-4.26,3.87-6.12h27.95c-3.7,8.81-2.96,20.92-3.9,31.08-2.55,27.62-24.11,52.14-21.18,79.72,5.1,3.89,12.84,2.17,17.61-2.11,4.78-4.29,7.29-10.48,9.65-16.44,10.42-26.3,21.04-53.81,18.55-81.99-.31-3.52-.69-7.51,1.63-10.17.03-.03.06-.07.08-.09h48.39c.42,3.65-1.45,8.41-3.67,11.76Z"/><path class="cls-1" d="M458.41,10.64c-9.76,14.85-18.96,30.07-27.57,45.61-8.65,15.61-16.72,31.55-24.17,47.76-7.4,16.11-14.21,32.49-20.4,49.11s-11.77,33.59-16.73,50.67c-5.01,17.25-9.57,34.64-15.29,51.67-2.86,8.52-5.99,16.95-9.63,25.16s-7.81,16.05-12.31,23.78-8.93,15.01-12.73,22.88c-3.79,7.84-6.63,16.01-8.29,24.57-3.35,17.28-2.73,34.97-4.34,52.43-.8,8.72-2.2,17.42-4.94,25.75-2.5,7.61-6.19,14.76-10.44,21.52-8.54,13.58-19.25,25.6-28.64,38.58-2.29,3.17-4.5,6.4-6.58,9.72l1.08-.62h-28.27l1.25,1.25c1.61-17.68,4.04-35.27,7.28-52.72s7.31-34.81,12.16-51.92c4.83-17.02,10.43-33.81,16.51-50.42,5.97-16.32,12.41-32.46,19.01-48.53s12.84-30.87,19.22-46.33c6.38-15.47,12.66-30.99,18.56-46.65,5.89-15.62,11.4-31.39,16.25-47.37s8.91-31.69,12.07-47.85,5.36-32.43,6.29-48.83c.47-8.23.61-16.47.43-24.71-.17-8.09-.56-16.41,1.68-24.28,1.09-3.83,2.84-7.4,5.37-10.49l-.89.37h27.95l-1.21-1.59c-3.11,7.57-3.12,16.1-3.49,24.15-.18,4.02-.4,8.04-1.09,12s-1.68,7.72-2.88,11.48c-4.77,14.95-12.63,28.84-16.2,44.19-.85,3.67-1.44,7.41-1.65,11.17-.11,1.93-.11,3.87,0,5.8.05.82-.03,1.9.24,2.68s1.22,1.24,1.9,1.6c6.47,3.5,14.57.47,19.25-4.6,5.67-6.12,8.22-14.73,11.2-22.34,3.38-8.66,6.64-17.38,9.37-26.27,2.7-8.83,4.85-17.83,6.02-27,.57-4.53.9-9.09.9-13.65,0-2.33-.07-4.66-.24-6.99-.14-1.96-.4-3.92-.36-5.89.03-1.79.33-3.75,1.58-5.12l-.89.37h48.39l-1.25-1.25c.37,3.94-1.4,7.9-3.49,11.13-.88,1.36,1.29,2.61,2.16,1.26,2.31-3.57,4.24-8.06,3.84-12.4-.06-.67-.52-1.25-1.25-1.25h-47.18c-.56,0-1.34-.12-1.85.17-1.3.74-2,2.94-2.27,4.3-.37,1.82-.32,3.67-.19,5.51.33,4.47.59,8.91.44,13.4-.62,18.37-6.09,36.18-12.43,53.29-1.59,4.28-3.24,8.54-4.92,12.78-1.55,3.94-3.02,7.95-4.98,11.72-3.35,6.43-9.33,12.79-17.3,11.71-1.7-.23-3.24-.89-4.62-1.91l.62,1.08c-1.51-14.74,4.02-28.75,9.56-42.11,2.86-6.9,5.81-13.79,8.08-20.92s3.5-14.23,3.89-21.63c.45-8.59.18-17.71,3.51-25.81.32-.77-.47-1.59-1.21-1.59-7.95,0-15.9,0-23.86,0-1.29,0-2.59-.05-3.88,0-1.1.04-1.6.97-2.21,1.79-1.36,1.83-2.48,3.81-3.37,5.9-3.68,8.64-3.53,18.23-3.33,27.44.42,19.1-.75,38.14-3.56,57.04s-7.05,37.42-12.26,55.73c-5.26,18.51-11.49,36.73-18.23,54.75-6.8,18.17-14.11,36.14-21.54,54.06-7.41,17.88-14.93,35.71-22.17,53.65-7.63,18.91-14.91,37.97-21.39,57.31s-12.17,39.18-16.71,59.18c-4.52,19.96-7.97,40.16-10.35,60.49-.58,4.95-1.09,9.92-1.55,14.88-.06.68.62,1.25,1.25,1.25h25.17c1.01,0,2.1.12,3.1,0s1.26-.91,1.73-1.64c.65-1.02,1.32-2.04,1.99-3.04,1.28-1.91,2.6-3.79,3.95-5.65,5.38-7.45,11.19-14.57,16.79-21.86,5.54-7.22,10.91-14.63,15.34-22.6s7.94-17.05,9.88-26.29c4.13-19.71,2.79-40.01,5.29-59.91,1.26-10.01,3.71-19.76,7.85-28.98s9.32-17.65,14.33-26.27,9.76-17.77,13.73-27.13c4-9.46,7.43-19.15,10.54-28.94,6.21-19.56,11.23-39.48,17.34-59.08s12.93-38.56,20.62-57.38c7.71-18.86,16.24-37.38,25.55-55.51,9.29-18.09,19.35-35.78,30.15-53,2.64-4.21,5.33-8.39,8.06-12.54.89-1.35-1.28-2.61-2.16-1.26Z"/><path class="cls-1" d="M500.49-.49v130.22c-3.75,10.25-8.07,20.26-13.13,29.98-7.47,14.33-16.5,27.81-23.81,42.22-23.27,45.9-28.05,98.78-44.85,147.41-4.14,11.99-9.01,23.71-13.24,35.68-8.36,23.62-14.25,48.22-25.22,70.75-8,16.44-18.64,31.59-31.38,44.7h-15.04c6.06-26.79,23.25-51.23,30.63-78.22,6.28-22.95,5.36-47.58,13.18-70.06,5.91-16.98,16.52-31.92,23.69-48.41,17.73-40.81,13.26-88.18,28.23-130.08,7.31-20.43,19.07-39.08,26.03-59.62,9.3-27.48,9.65-57.25,17.74-85.11,3.17-10.95,7.97-22.13,17.17-28.86.28-.21.58-.42.88-.61h9.14Z"/><path class="cls-1" d="M499.24-.49v128.63c0,.48.08,1.04,0,1.51,0,.02,0,.05,0,.08-.12.55-.57,1.34-.78,1.89-.33.89-.67,1.77-1.01,2.66-1.16,2.99-2.37,5.97-3.64,8.92-5.06,11.76-11.22,22.9-17.71,33.92-6.35,10.79-12.7,21.57-17.85,33-9.87,21.92-16.14,45.21-21.83,68.5-5.73,23.46-10.93,47.11-18.79,69.98-4.28,12.43-9.34,24.57-13.7,36.97s-7.7,23.87-11.61,35.79-8.17,23.73-13.75,34.97c-5.31,10.71-11.75,20.88-19.17,30.25-3.59,4.53-7.41,8.87-11.43,13.02l.89-.37h-15.04l1.21,1.59c3.97-17.37,12.29-33.27,19.62-49.38,3.69-8.11,7.19-16.33,9.84-24.85,2.72-8.77,4.31-17.82,5.57-26.9,2.54-18.32,4.07-36.92,11.48-54.1,7.13-16.53,17.48-31.44,23.75-48.37,6.2-16.73,9.16-34.43,11.6-52.04,2.44-17.6,4.36-35.32,8.45-52.63,2.07-8.78,4.76-17.37,8.18-25.72s7.7-16.95,11.72-25.33c3.95-8.23,7.8-16.53,10.85-25.14s5.29-17.85,7.04-26.99c3.54-18.5,5.38-37.33,10.14-55.59,2.07-7.93,4.6-15.91,9.02-22.88,2.13-3.36,4.71-6.43,7.81-8.94.37-.3.75-.59,1.13-.87.27-.2.57-.45.14-.33.22-.06.53,0,.76,0h8.35c1.61,0,1.61-2.5,0-2.5h-8.49c-1.1,0-1.74.45-2.63,1.13-6.36,4.82-10.64,11.68-13.69,18.95-3.43,8.18-5.53,16.92-7.31,25.59-1.9,9.24-3.29,18.57-4.76,27.88-1.47,9.29-3.01,18.59-5.2,27.74s-5.2,18.14-8.94,26.83c-7.32,16.98-16.63,33.11-22.41,50.74-5.58,16.99-8.19,34.75-10.56,52.41-2.39,17.8-4.51,35.73-9.2,53.11-2.35,8.72-5.38,17.24-9.29,25.39s-8.5,16.04-12.72,24.08-8.01,16.27-10.53,24.99-4,18.22-5.23,27.46-2.26,18.61-4.07,27.8-4.5,17.67-7.93,26.16c-6.7,16.59-15.51,32.29-21.35,49.24-1.4,4.07-2.62,8.2-3.58,12.4-.18.79.37,1.59,1.21,1.59h6.9c2.64,0,5.38.22,8.01,0,.89-.08,1.33-.69,1.93-1.31,1.11-1.16,2.21-2.34,3.29-3.53,2.06-2.28,4.06-4.61,5.99-7,3.98-4.91,7.71-10.03,11.15-15.34,6.99-10.81,12.61-22.38,17.25-34.38s8.65-25.17,12.68-37.85,8.97-26.01,13.86-38.9,8.83-24.84,12.35-37.58c6.8-24.65,11.82-49.77,18.88-74.35,3.51-12.23,7.53-24.35,12.53-36.06s11.72-23.63,18.44-35.02,13.53-23.47,18.9-35.95c1.29-3,2.53-6.03,3.72-9.08.63-1.61,1.33-3.23,1.85-4.88.09-.28.18-.53.21-.83.05-.52,0-1.07,0-1.6,0-8.09,0-16.19,0-24.28v-40.43c0-13.31,0-26.63,0-39.94,0-7.61,0-15.22,0-22.83V-.49c0-1.61-2.5-1.61-2.5,0Z"/><path class="cls-1" d="M500.49,278.37v77.64c-1.28,3.87-2.82,7.66-4.72,11.31-5.75,11.09-14.39,20.34-22.21,30.07-21.3,26.48-37.07,57.38-46.02,90.16,14.54-69.76,20.41-104.85,51.96-168.74l.89-1.67c5.67-13.42,12.4-26.39,20.1-38.76Z"/><path class="cls-1" d="M499.24,278.37v76.68c0,1.79-.89,3.38-1.55,5.05-4.38,11.14-11.83,20.46-19.4,29.58s-14.31,17.83-20.55,27.45c-12.45,19.19-22.26,40.12-29.04,61.96-.84,2.69-1.62,5.4-2.37,8.12l2.42.67c3.12-14.99,6.16-30,9.41-44.97,2.79-12.83,5.76-25.62,9.26-38.28,3.43-12.43,7.38-24.72,11.92-36.8,5.18-13.81,11.1-27.33,17.47-40.63,1.47-3.08,2.99-6.14,4.53-9.18,1.74-3.42,3.1-7.08,4.74-10.56,3.71-7.86,7.78-15.56,12.21-23.04,1.08-1.82,2.17-3.63,3.29-5.42.85-1.37-1.31-2.63-2.16-1.26-4.55,7.32-8.77,14.84-12.62,22.54-3.33,6.65-6.22,13.49-9.49,20.16-6.66,13.6-12.89,27.42-18.39,41.53-4.76,12.19-8.94,24.59-12.55,37.16s-6.66,25.23-9.49,37.96c-3.24,14.57-6.2,29.21-9.24,43.83-.43,2.09-.87,4.18-1.3,6.27-.33,1.57,1.99,2.23,2.42.67,6.09-22.22,15.27-43.55,27.23-63.24,5.96-9.81,12.6-19.19,19.85-28.08s15.23-17.71,20.71-28.02c1.41-2.65,2.64-5.4,3.73-8.2.53-1.37,1.36-2.96,1.47-4.43.06-.78,0-1.6,0-2.38v-49.82c0-8.3.18-16.63,0-24.93,0-.13,0-.26,0-.4,0-1.61-2.5-1.61-2.5,0Z"/><path class="cls-1" d="M461.52,494.22c9.2-23.82,22.45-46.07,38.97-65.55v35.99c-4.58,2.99-9.98,5.25-14.8,7.83-9.64,5.17-18.01,12.69-24.17,21.73Z"/><path class="cls-1" d="M462.73,494.55c7.12-18.38,16.65-35.81,28.24-51.75,3.3-4.55,6.78-8.96,10.41-13.25l-2.14-.89v35.99l.62-1.08c-3.72,2.4-7.74,4.26-11.69,6.23-3.74,1.87-7.36,3.93-10.75,6.38-6.63,4.78-12.35,10.67-16.97,17.4-.91,1.33,1.26,2.59,2.16,1.26,5.1-7.44,11.69-13.84,19.3-18.69,3.99-2.55,8.29-4.52,12.51-6.65,2.16-1.09,4.33-2.2,6.35-3.53.66-.43.96-.84.98-1.59.11-3.35,0-6.72,0-10.07v-25.64c0-1.02-1.42-1.74-2.14-.89-12.96,15.33-23.97,32.29-32.56,50.44-2.43,5.14-4.67,10.37-6.73,15.67-.58,1.5,1.84,2.16,2.42.67Z"/></svg>