<?xml version="1.0" encoding="UTF-8"?><svg id="Layer_1" xmlns="http://www.w3.org/2000/svg" viewBox="0 0 678.7 255.65"><defs><style>.cls-1{fill:#20090c;}</style></defs><g id="Layer_1-2"><path class="cls-1" d="M161.57,111.78c-.33-1.93-.72-3.85-1.17-5.76s-.94-3.79-1.48-5.66c-.83-2.86-1.77-5.69-2.82-8.48s-2.19-5.53-3.41-8.23c-.66-1.45-1.35-2.9-2.06-4.33s-1.44-2.84-2.19-4.24c-7.11-13.22-16.04-25.17-24.96-35.36-8.93-10.19-17.85-18.61-24.93-24.78-1.66-1.45-3.22-2.77-4.66-3.96s-2.75-2.25-3.91-3.18c-1.82-1.45-3.28-2.56-4.29-3.31s-1.55-1.14-1.55-1.14c0,0-.55.39-1.55,1.14s-2.46,1.86-4.29,3.31c-1.16.92-2.48,1.98-3.91,3.18-1.44,1.19-3,2.52-4.66,3.96-7.09,6.17-16.01,14.59-24.93,24.78-8.93,10.19-17.86,22.14-24.96,35.36-.75,1.4-1.48,2.82-2.19,4.24s-1.4,2.87-2.06,4.33c-2.68,5.88-4.95,11.98-6.67,18.26-1.72,6.27-2.89,12.72-3.37,19.31-.02.24-.03.48-.05.72s-.03.48-.04.72c-.05.86-.09,1.72-.11,2.58s-.04,1.73-.04,2.59.01,1.73.04,2.59.06,1.72.11,2.58c.01.24.03.48.04.72s.03.48.05.72c.48,6.58,1.65,13.03,3.37,19.31,1.72,6.27,3.99,12.37,6.67,18.26.66,1.45,1.35,2.9,2.06,4.33s1.44,2.84,2.19,4.24c7.11,13.22,16.04,25.17,24.96,35.36,8.93,10.19,17.85,18.61,24.93,24.78,1.66,1.45,3.22,2.77,4.66,3.96s2.75,2.25,3.91,3.18c1.82,1.45,3.28,2.56,4.29,3.31,1,.75,1.55,1.14,1.55,1.14,0,0,.55-.39,1.55-1.14s2.46-1.86,4.29-3.31c1.16-.92,2.48-1.98,3.91-3.18s3-2.52,4.66-3.96c7.09-6.17,16.01-14.59,24.93-24.78,8.93-10.19,17.86-22.14,24.96-35.36.75-1.4,1.48-2.82,2.19-4.24s1.4-2.87,2.06-4.33c1.23-2.7,2.37-5.44,3.41-8.23,1.04-2.79,1.99-5.61,2.82-8.48.54-1.87,1.04-3.76,1.48-5.66s.83-3.82,1.17-5.76c.45-2.63.8-5.28,1.04-7.96.24-2.68.36-5.37.36-8.09s-.12-5.42-.36-8.09-.59-5.33-1.04-7.96h0ZM148.28,141.95c-.35,1.93-.77,3.85-1.26,5.75s-1.03,3.78-1.63,5.64c-1.05,3.25-2.26,6.43-3.62,9.54s-2.86,6.16-4.47,9.13c-.79,1.47-1.61,2.92-2.46,4.35s-1.71,2.84-2.6,4.22c-5.26,8.21-11.2,15.69-17.07,22.23s-11.67,12.14-16.63,16.59c-1.65,1.48-3.21,2.83-4.64,4.05-1.44,1.22-2.76,2.3-3.93,3.25-1.81,1.46-3.27,2.58-4.28,3.34s-1.56,1.15-1.56,1.15c0,0-.55-.39-1.56-1.15s-2.47-1.88-4.28-3.34c-1.17-.94-2.49-2.03-3.93-3.25s-3-2.57-4.64-4.05c-4.97-4.45-10.76-10.05-16.63-16.59-5.87-6.54-11.81-14.02-17.07-22.23-.89-1.39-1.76-2.8-2.6-4.22s-1.67-2.88-2.46-4.35c-3.08-5.68-5.75-11.64-7.82-17.83s-3.51-12.61-4.13-19.19c-.04-.41-.07-.82-.11-1.23s-.06-.82-.09-1.24c-.05-.78-.08-1.55-.11-2.33s-.04-1.56-.04-2.35.01-1.57.04-2.35.06-1.56.11-2.33c.03-.41.05-.82.09-1.24s.07-.82.11-1.23c.62-6.59,2.07-13,4.13-19.19s4.74-12.15,7.82-17.83c.79-1.47,1.61-2.92,2.46-4.35s1.71-2.84,2.6-4.22c5.26-8.21,11.2-15.69,17.07-22.23s11.67-12.14,16.63-16.59c1.65-1.48,3.21-2.83,4.64-4.05s2.76-2.3,3.93-3.25c1.81-1.46,3.27-2.58,4.28-3.34s1.56-1.15,1.56-1.15c0,0,.55.39,1.56,1.15s2.47,1.88,4.28,3.34c1.17.94,2.49,2.03,3.93,3.25,1.44,1.22,3,2.57,4.64,4.05,4.97,4.45,10.76,10.05,16.63,16.59,5.87,6.54,11.81,14.02,17.07,22.23.89,1.39,1.76,2.8,2.6,4.22s1.67,2.88,2.46,4.35c1.61,2.97,3.11,6.01,4.47,9.13s2.57,6.3,3.62,9.54c.6,1.86,1.15,3.74,1.63,5.64s.9,3.81,1.26,5.75c.42,2.31.75,4.64.97,6.99s.34,4.73.34,7.13-.12,4.77-.34,7.13-.55,4.69-.97,6.99v-.02Z"/><path class="cls-1" d="M140.26,140.78c-.37,1.93-.82,3.85-1.33,5.74-.52,1.89-1.1,3.76-1.75,5.61-1.22,3.5-2.67,6.91-4.28,10.23s-3.4,6.53-5.3,9.63h-17.33c2.53-3.21,4.99-6.66,7.23-10.32,2.24-3.66,4.26-7.52,5.93-11.54l-12.45-1.81-12.45-1.81v-11.8l14.22,2.06,14.22,2.06,6.64.97,6.64.97h0Z"/><path class="cls-1" d="M140.26,114.87l-6.64.97-6.64.97-14.22,2.06-14.22,2.06v-11.8l12.45-1.81,12.45-1.81c-1.66-4.02-3.69-7.88-5.93-11.54s-4.7-7.11-7.23-10.32h17.33c1.9,3.1,3.68,6.32,5.3,9.63s3.06,6.73,4.28,10.23c.65,1.85,1.23,3.72,1.75,5.61s.96,3.81,1.33,5.74h0Z"/><path class="cls-1" d="M69.72,125.12l-9.33,1.36-9.33,1.36,9.33,1.36,9.33,1.36v11.8l-14.29-2.07-14.29-2.07c1.27,6.36,3.61,12.44,6.56,18.12,2.96,5.68,6.53,10.95,10.27,15.69h-17.33c-3.3-5.39-6.25-11.12-8.56-17.11-2.32-6-4.01-12.26-4.82-18.72-.1-.8-.19-1.6-.26-2.41s-.13-1.61-.17-2.42c-.03-.58-.05-1.17-.07-1.75s-.02-1.17-.02-1.76,0-1.18.02-1.76.04-1.17.07-1.75c.04-.81.1-1.62.17-2.42s.16-1.61.26-2.41c.8-6.46,2.5-12.72,4.82-18.72s5.26-11.72,8.56-17.11h17.33c-3.74,4.74-7.31,10.02-10.27,15.69-2.96,5.68-5.29,11.76-6.56,18.12l14.29-2.07,14.29-2.07v11.8-.04Z"/><path class="cls-1" d="M102.88,180.57h18.99c-3.83,5.28-7.9,10.14-11.89,14.49s-7.91,8.19-11.44,11.43c-1.64,1.5-3.19,2.88-4.63,4.12s-2.76,2.34-3.94,3.3c-1.8,1.47-3.26,2.59-4.27,3.36s-1.57,1.16-1.57,1.16c0,0-.56-.4-1.57-1.16s-2.47-1.89-4.27-3.36c-1.18-.96-2.5-2.06-3.94-3.3s-2.99-2.62-4.63-4.12c-3.53-3.25-7.45-7.08-11.44-11.43s-8.06-9.2-11.89-14.49h18.99c.74.79,1.47,1.55,2.19,2.29s1.44,1.45,2.15,2.14c1.61,1.57,3.15,3.01,4.59,4.3,1.44,1.3,2.78,2.45,3.98,3.45V62.9c-1.2,1-2.54,2.16-3.98,3.45s-2.99,2.73-4.59,4.3c-.7.69-1.42,1.4-2.15,2.14s-1.46,1.5-2.19,2.29h-18.99c3.83-5.28,7.9-10.14,11.89-14.49,3.99-4.35,7.91-8.19,11.44-11.43,1.64-1.5,3.19-2.88,4.63-4.12s2.76-2.34,3.94-3.3c1.8-1.47,3.26-2.59,4.27-3.36s1.57-1.16,1.57-1.16c0,0,.56.4,1.57,1.16s2.47,1.89,4.27,3.36c1.18.96,2.5,2.06,3.94,3.3,1.44,1.24,2.99,2.62,4.63,4.12,3.53,3.25,7.45,7.08,11.44,11.43,3.99,4.35,8.06,9.2,11.89,14.49h-18.99c-.74-.79-1.47-1.55-2.19-2.29s-1.44-1.45-2.15-2.14c-1.61-1.57-3.15-3.01-4.59-4.3s-2.78-2.45-3.98-3.45v129.84c1.2-1,2.54-2.16,3.98-3.45s2.99-2.73,4.59-4.3c.7-.69,1.42-1.4,2.15-2.14s1.46-1.5,2.19-2.29h0Z"/><path class="cls-1" d="M193.61,123.15v-42.35h9.8v42.35h-9.8Z"/><path class="cls-1" d="M211.73,123.15v-6.35l26.2-31.58,1.21,3.57h-26.93v-7.99h35.64v6.35l-26.14,31.58-1.21-3.57h28.26v7.99h-37.03,0Z"/><path class="cls-1" d="M256.48,123.15v-42.35h9.8v42.35h-9.8Z"/><path class="cls-1" d="M285.61,123.15v-34.37h-13.55v-7.99h36.91v7.99h-13.55v34.37h-9.81Z"/><path class="cls-1" d="M314.73,123.15v-42.35h9.8v42.35h-9.8ZM323.8,105.78v-8.29h20.69v8.29h-20.69ZM343.77,123.15v-42.35h9.8v42.35h-9.8Z"/><path class="cls-1" d="M358.98,123.15l18.88-42.35h9.68l18.94,42.35h-10.29l-15.49-37.39h3.87l-15.55,37.39h-10.04ZM368.41,114.07l2.6-7.44h21.78l2.66,7.44h-27.05,0Z"/><path class="cls-1" d="M411.85,123.15v-42.35h9.74v42.35h-9.74ZM420.62,113.47l-.54-11.32,20.27-21.36h10.89l-18.27,19.66-5.45,5.81-6.9,7.2h0ZM440.83,123.15l-15.07-18.45,6.41-6.96,20.09,25.41h-11.44.01Z"/><path class="cls-1" d="M455.03,123.15l18.88-42.35h9.68l18.94,42.35h-10.29l-15.49-37.39h3.87l-15.55,37.39h-10.04ZM464.47,114.07l2.6-7.44h21.78l2.66,7.44h-27.05,0Z"/><path class="cls-1" d="M506.63,123.15v-6.35l26.2-31.58,1.21,3.57h-26.93v-7.99h35.64v6.35l-26.14,31.58-1.21-3.57h28.26v7.99h-37.03Z"/><path class="cls-1" d="M551.42,123.15v-42.35h32.01v7.86h-22.27v26.62h23.05v7.87s-32.79,0-32.79,0ZM560.44,105.48v-7.62h20.39v7.62h-20.39Z"/><path class="cls-1" d="M593.24,123.15v-42.35h9.8v34.37h21.24v7.99h-31.04Z"/><path class="cls-1" d="M650.29,123.87c-3.35,0-6.44-.54-9.29-1.63-2.84-1.09-5.31-2.62-7.38-4.6-2.08-1.98-3.69-4.3-4.84-6.96-1.15-2.66-1.73-5.57-1.73-8.71s.57-6.05,1.73-8.71c1.15-2.66,2.77-4.98,4.87-6.96,2.1-1.98,4.56-3.51,7.38-4.6s5.89-1.63,9.2-1.63,6.42.54,9.23,1.63c2.8,1.09,5.24,2.62,7.32,4.6,2.08,1.98,3.7,4.29,4.87,6.93s1.76,5.56,1.76,8.74-.59,6.06-1.76,8.74-2.79,5-4.87,6.96-4.52,3.48-7.32,4.57-5.86,1.63-9.17,1.63ZM650.23,115.52c1.9,0,3.64-.32,5.23-.97,1.59-.64,2.99-1.57,4.2-2.78s2.15-2.64,2.81-4.3c.67-1.65,1-3.49,1-5.51s-.33-3.85-1-5.51c-.67-1.65-1.59-3.09-2.78-4.3-1.19-1.21-2.59-2.14-4.2-2.78s-3.37-.97-5.26-.97-3.64.32-5.23.97c-1.59.64-2.99,1.57-4.2,2.78s-2.15,2.64-2.81,4.3c-.67,1.66-1,3.49-1,5.51s.33,3.8,1,5.48c.67,1.67,1.59,3.12,2.78,4.33s2.59,2.14,4.2,2.78c1.61.65,3.37.97,5.27.97h-.01Z"/><path class="cls-1" d="M193.61,175.59v-42.35h9.74v42.35h-9.74ZM202.39,165.91l-.54-11.32,20.27-21.36h10.89l-18.27,19.66-5.45,5.81-6.9,7.2h0ZM222.6,175.59l-15.07-18.45,6.41-6.96,20.09,25.41h-11.44.01Z"/><path class="cls-1" d="M239.41,175.59v-42.35h32.01v7.86h-22.27v26.62h23.05v7.87h-32.79ZM248.43,157.92v-7.62h20.39v7.62h-20.39Z"/><path class="cls-1" d="M281.23,175.59v-42.35h32.01v7.86h-22.27v26.62h23.05v7.87h-32.79ZM290.25,157.92v-7.62h20.39v7.62h-20.39Z"/><path class="cls-1" d="M323.05,175.59v-42.35h18.33c3.79,0,7.06.62,9.8,1.85,2.74,1.23,4.86,2.99,6.35,5.29s2.24,5.04,2.24,8.23-.75,5.87-2.24,8.17-3.61,4.06-6.35,5.29c-2.74,1.23-6.01,1.85-9.8,1.85h-12.89l4.36-4.42v16.1h-9.8,0ZM332.86,160.58l-4.36-4.66h12.34c3.03,0,5.28-.64,6.78-1.94,1.49-1.29,2.24-3.09,2.24-5.39s-.75-4.15-2.24-5.45c-1.49-1.29-3.75-1.94-6.78-1.94h-12.34l4.36-4.66v24.04Z"/><path class="cls-1" d="M367.38,175.59v-42.35h32.01v7.86h-22.27v26.62h23.05v7.87h-32.79ZM376.4,157.92v-7.62h20.39v7.62h-20.39,0Z"/><path class="cls-1" d="M409.2,175.59v-42.35h18.09c5.89,0,10.47,1.36,13.74,4.08s4.9,6.48,4.9,11.28c0,3.15-.75,5.86-2.24,8.14s-3.61,4.02-6.35,5.23c-2.74,1.21-6.01,1.82-9.8,1.82h-12.89l4.36-4.3v16.1h-9.81ZM419,160.58l-4.36-4.6h12.34c3.03,0,5.28-.66,6.78-1.97,1.49-1.31,2.24-3.12,2.24-5.42s-.75-4.15-2.24-5.45c-1.49-1.29-3.75-1.94-6.78-1.94h-12.34l4.36-4.66v24.04ZM436.13,175.59l-10.59-15.37h10.47l10.71,15.37h-10.59Z"/></g></svg>