<?xml version="1.0" encoding="UTF-8"?><svg id="Layer_2" xmlns="http://www.w3.org/2000/svg" viewBox="0 0 500 500"><defs><style>.cls-1{fill:#571d0a;}.cls-2{fill:#f5d4a9;}</style></defs><rect class="cls-2" x="-.76" y="-1.14" width="502.28" height="502.28"/><path class="cls-1" d="M145.33,174.03c-7.94,19.69,10.44,39.55,14.73,60.33,5.73,27.75-14.44,54.07-36.06,72.4-35.63,30.22-78.98,51.23-124.77,60.52v-51.53c8.87-12.16,17.81-26.76,13.13-40.92-2.43-7.37-8.22-13.13-11.64-20.09-.61-1.26-1.12-2.61-1.49-4.02-.95-3.56-1.06-7.42,0-10.67.83-2.56,2.39-4.76,4.84-6.12,2.46-1.38,5.53-1.72,7.62-3.62,5.63-5.11-.73-13.8-3.06-21.03-3.99-12.43,6.09-25.37,17.73-31.29,11.64-5.92,25.06-7.58,36.73-13.44,13.19-6.62,23.16-18.07,34.02-28.05,10.87-10,24.02-19.11,38.77-19.14,14.76-.03,30.06,13,27.29,27.5-2.16,11.29-13.54,18.51-17.85,29.17Z"/><path class="cls-1" d="M144.11,173.7c-6.73,17.04,5.06,34.19,11.14,49.52,3.34,8.4,5.21,17.03,4.25,26.09-.95,8.95-4.38,17.5-8.91,25.21-9.72,16.52-24.34,29.56-39.49,40.99-15.54,11.72-32.32,21.79-49.95,30.03s-36.2,14.64-55.19,19.02c-2.35.54-4.7,1.05-7.06,1.53l1.59,1.21v-49.24c0-.64-.17-1.54,0-2.17,0-.03-.02-.09,0-.12-.3.55.41-.18.47-.26.39-.54.78-1.08,1.16-1.62,1.29-1.83,2.56-3.69,3.76-5.58,2.36-3.73,4.48-7.61,6.13-11.71,3.13-7.79,4.07-16.4.72-24.29-1.6-3.77-3.94-7.13-6.24-10.5s-4.79-6.96-5.94-10.99-1.36-8.72.78-12.44c.95-1.65,2.34-2.89,4.06-3.7s3.67-1.26,5.37-2.19c7.4-4.02,3.64-12.64,1.08-18.48-1.49-3.41-2.89-6.8-2.86-10.59s1.19-7.16,2.96-10.31c3.83-6.83,10.18-11.86,17.21-15.08,8.13-3.72,16.92-5.63,25.33-8.56s15.38-6.92,22.08-12.29c13.15-10.54,23.65-24.3,38.55-32.61,6.98-3.89,15.11-6.6,23.19-5.85,7.05.66,13.89,4.27,18.57,9.56,4.59,5.19,6.59,12.09,4.41,18.78-2.22,6.81-7.61,12.05-11.85,17.63-2.13,2.8-4,5.74-5.34,9-.61,1.49,1.81,2.14,2.42.67,2.82-6.86,8.41-12.08,12.65-18.03,4.14-5.8,6.75-12.64,4.96-19.79-1.7-6.76-6.71-12.34-12.56-15.89-6.55-3.98-14-5.22-21.54-4.07-17.09,2.61-30.2,15.42-42.09,26.92-6.22,6.02-12.54,12.05-19.85,16.74s-16.17,7.52-24.78,10.12c-8.11,2.45-16.53,5.01-23.38,10.18-5.99,4.52-11.24,10.86-12.91,18.33-.8,3.55-.72,7.27.39,10.75,1.18,3.7,3.11,7.12,4.35,10.8,1.04,3.09,1.72,6.81-1.13,9.15-1.57,1.29-3.66,1.74-5.5,2.49-1.71.7-3.28,1.66-4.52,3.05-5.82,6.54-3.33,16.58.7,23.31,4.36,7.28,10.39,13.75,11.02,22.62s-3.41,17.57-8.02,25.03c-1.18,1.91-2.43,3.78-3.71,5.63-.63.91-1.28,1.81-1.93,2.71-.33.46-.63.8-.69,1.37s0,1.18,0,1.75v49.76c0,.86.8,1.37,1.59,1.21,19.26-3.92,38.06-9.9,56.08-17.74,18.1-7.88,35.38-17.68,51.42-29.19,15.54-11.15,30.58-23.71,41.63-39.48,5.25-7.49,9.58-15.8,11.87-24.69s2.31-17.96-.1-26.72c-2.41-8.77-6.68-16.87-10.28-25.18-3.38-7.81-6.58-16.47-5.29-25.11.31-2.07.88-4.08,1.65-6.02.59-1.5-1.83-2.16-2.42-.67Z"/><path class="cls-1" d="M265.72,114.83c-9.84,1.14-19-5.02-26.25-11.77-7.25-6.75-13.97-14.61-23.17-18.3-9.2-3.68-21.93-1.12-25.32,8.19-3.66,10.04,5.15,20,7.46,30.44,5.07,22.91-21.38,41.66-22.81,65.08-.9,14.65,8.21,28.12,9.72,42.72,1.89,18.37-8.31,35.57-18.12,51.22,2.87,16.97,24.63,24.43,41.22,19.87,16.59-4.56,29.68-16.9,44-26.43,18.95-12.62,43.03-23.43,48.43-45.55,1.39-5.7,1.35-11.77,3.64-17.17,4.44-10.49,16.07-15.52,25.01-22.57,11.54-9.11,19.29-22.86,21.11-37.44.6-4.81.43-10.14-2.66-13.87-2.73-3.29-7.11-4.61-11.22-5.76-22.14-6.18-44.28-12.37-66.42-18.55-9.14-2.55-19.14-5.06-27.85-1.3"/><path class="cls-1" d="M265.72,113.57c-12.74,1.34-22.6-8.68-30.97-16.81-7.72-7.49-16.68-15.36-28.14-14.85-4.49.2-9,1.57-12.49,4.47-3.76,3.13-5.58,7.96-5.24,12.8.4,5.73,3.15,10.98,5.41,16.15s3.77,9.93,3.5,15.37c-.48,9.66-5.83,18.38-10.63,26.47s-10.39,16.98-12.21,26.7c-2.28,12.16,2.68,23.47,6.28,34.83,1.91,6.03,3.28,12.16,3.06,18.52-.22,6.34-1.82,12.55-4.1,18.44s-5.31,11.59-8.53,17.08c-1.64,2.79-3.34,5.55-5.06,8.29-.46.74-.69,1.14-.54,2.01.09.5.2,1,.33,1.5.28,1.07.64,2.12,1.08,3.14,3.53,8.32,11.74,13.55,20.22,15.78,4.52,1.19,9.28,1.63,13.94,1.25,5.21-.42,10.18-1.96,14.97-4.02,11.11-4.79,20.61-12.49,30.35-19.51,8.78-6.32,18.19-11.64,27.2-17.62,8.3-5.5,16.46-11.73,22.13-20.05,2.75-4.04,4.81-8.57,5.91-13.34,1.44-6.25,1.3-12.96,4.52-18.69,5.31-9.45,16.22-13.97,24.32-20.56,8.87-7.21,15.44-17.18,18.8-28.09,1.64-5.33,2.87-11.3,2.15-16.89-.36-2.78-1.3-5.44-3.11-7.61s-4.32-3.53-6.91-4.53c-2.98-1.16-6.13-1.9-9.2-2.76-3.53-.99-7.06-1.97-10.59-2.96-7.06-1.97-14.12-3.94-21.18-5.91s-14.12-3.94-21.18-5.91c-6.45-1.8-12.9-3.89-19.51-5.05-6.06-1.07-12.38-1.23-18.15,1.2-1.47.62-.82,3.05.67,2.42,6.8-2.85,14.2-1.94,21.18-.28,7.51,1.79,14.93,4.07,22.37,6.15,15.4,4.3,30.8,8.6,46.2,12.9,5.99,1.67,13.9,2.94,16.23,9.65,1.09,3.14.98,6.59.58,9.84s-1.1,6.25-2.04,9.27c-3.78,12.16-11.62,22.42-21.99,29.71-4.8,3.38-9.88,6.42-14.29,10.32s-7.87,9.05-9.23,15.09c-.81,3.61-1.1,7.3-1.83,10.92-.58,2.84-1.46,5.62-2.69,8.25-2.27,4.84-5.55,9.1-9.33,12.86-8.04,7.99-17.97,13.79-27.55,19.73-5.13,3.19-10.19,6.47-15.09,10-5.51,3.97-10.9,8.11-16.58,11.84-9.92,6.51-21.05,11.98-33.2,11.14-9.49-.66-19.85-4.85-24.76-13.45-1.19-2.09-1.96-4.35-2.37-6.71l-.13.97c5.78-9.22,11.51-18.63,15.13-28.95,1.74-4.96,2.93-10.12,3.29-15.37s-.31-10.61-1.65-15.76c-2.61-10.09-7.56-19.76-8.19-30.29-.52-8.71,2.67-16.81,6.73-24.34,7.45-13.8,19.75-28.48,16.03-45.27-1.07-4.84-3.38-9.29-5.32-13.82-1.83-4.25-3.65-9.05-2.75-13.75,1.59-8.28,10.31-11.59,17.93-11.02,9.7.73,17.31,8.07,23.91,14.5,7.18,6.98,14.94,14.66,25.13,16.74,2.37.48,4.77.62,7.17.37,1.59-.17,1.61-2.68,0-2.51h0Z"/><path class="cls-1" d="M499.55,57.88c-6.21,8.22-14.17,17.76-10.83,27.5,1.4,4.09,4.6,7.24,7.02,10.82,2.96,4.39,4.7,9.35,5.78,14.54v47.97c-.02.06-.03.12-.05.18-5.94,19.25-24,31.74-40.89,42.74-4.71,3.06-9.85,6.25-15.47,5.96-5.29-.28-9.84-3.59-14.63-5.86-8.35-3.95-17.76-4.83-26.81-6.73-9.05-1.9-18.41-5.24-24.04-12.57-5.63-7.32-5.59-19.55,2.17-24.56,2.43-1.57,5.33-2.31,7.77-3.88,8.42-5.42,7.58-19.03.7-26.32-6.87-7.29-17.39-9.69-27.32-11-9.94-1.31-20.33-1.98-29.03-6.94-8.71-4.96-15.06-15.88-11.12-25.09,2.45-5.73,8.19-9.38,14.05-11.51,7.38-2.67,16.01-3.86,20.95-9.97,5.69-7.07,3.83-17.32,5.42-26.24,3.37-18.87,23.15-31.23,42.26-32.59,19.12-1.36,37.72,5.67,55.59,12.59,13.48,5.22,26.96,10.44,40.44,15.66v22.42c-.63,1.01-1.28,1.98-1.97,2.88Z"/><path class="cls-1" d="M498.47,57.25c-6.6,8.73-15.94,19.94-9.68,31.33,1.44,2.61,3.44,4.86,5.17,7.26,1.88,2.61,3.38,5.46,4.47,8.48.89,2.47,1.83,5.05,1.83,7.69v45.97c0,.17.01.35,0,.52-.03.4.05-.14-.06.23-3.25,10.47-10.51,19.08-18.66,26.16-4.3,3.74-8.9,7.11-13.59,10.33s-9.58,6.83-14.8,9.28c-2.9,1.37-6.13,2.2-9.35,1.68-2.99-.48-5.73-1.9-8.38-3.32s-5.42-2.84-8.31-3.9c-3.07-1.12-6.25-1.92-9.44-2.6-11.32-2.38-24.25-3.17-33.47-11-3.81-3.23-6.45-7.43-7.12-12.43-.6-4.45.37-9.4,3.67-12.64,2-1.96,4.68-2.85,7.17-4.01,2.3-1.07,4.31-2.5,5.85-4.53,2.65-3.5,3.51-8.13,3.03-12.44-.52-4.64-2.42-9.13-5.63-12.56-3.78-4.03-8.8-6.66-13.99-8.38-11.51-3.82-23.95-3.03-35.49-6.69-5.49-1.74-10.5-4.57-14.15-9.1-3.16-3.93-5.32-9.18-4.49-14.29.89-5.44,4.98-9.41,9.63-11.95s10.39-3.69,15.57-5.6c4.89-1.81,9.49-4.49,12.12-9.16s3-10.55,3.3-15.96c.3-5.38.76-10.68,3-15.65,2.02-4.49,5.03-8.44,8.65-11.76,7.54-6.93,17.61-11.2,27.74-12.43,13.24-1.6,26.63,1.42,39.15,5.52,13.35,4.37,26.38,9.82,39.47,14.89,6.51,2.52,13.02,5.04,19.52,7.56l-.92-1.21v20.47c0,.54.06,1.12,0,1.66,0,.09.03.2,0,.28.18-.55-.58.54-.67.67-.36.54-.74,1.06-1.13,1.58-.97,1.29,1.21,2.55,2.17,1.27.74-.98,2.02-2.32,2.14-3.57.03-.34,0-.69,0-1.03v-21.33c0-.6-.4-1.01-.92-1.21-13.77-5.34-27.54-10.67-41.31-16-12.79-4.95-25.79-9.84-39.45-11.7-11.73-1.59-23.53-.71-34.4,4.19-9.18,4.14-17.54,11.05-21.92,20.27-2.35,4.94-3.19,10.15-3.51,15.57s-.24,11.65-3.06,16.66-7.96,7.2-13.1,8.85-10.62,2.98-15.32,5.96-8.33,7.22-9.18,12.66.83,10.43,3.77,14.7c7.03,10.22,19.31,12.93,30.88,14.43s24.58,2.29,33.33,10.77c6.18,5.99,8.81,18.31,1.36,24.46-2.34,1.93-5.41,2.66-8.01,4.14-2.1,1.2-3.86,2.89-5.11,4.96-2.45,4.03-2.86,9.05-1.92,13.6,2.29,11,12.8,17.01,22.8,19.92,6.04,1.75,12.29,2.56,18.44,3.81,3.28.66,6.54,1.45,9.69,2.55s5.98,2.63,8.9,4.17c2.65,1.4,5.43,2.77,8.41,3.27s6.1.11,8.99-.97c5.59-2.09,10.58-5.85,15.5-9.17,9.35-6.31,18.63-13.22,25.72-22.09,3.39-4.25,6.23-8.89,8.22-13.96.48-1.23,1.16-2.59,1.22-3.92.02-.51,0-1.03,0-1.54v-44.38c0-2.19-.42-4.07-1.04-6.24-.9-3.1-2.12-6.13-3.74-8.93-1.53-2.64-3.53-4.94-5.3-7.41s-3.17-5.06-3.45-8.09c-.26-2.86.41-5.7,1.51-8.33,2.32-5.56,6.29-10.32,9.89-15.09.98-1.29-1.2-2.54-2.17-1.27Z"/><path class="cls-1" d="M501.52-1.14v10.2c-3.47,1.55-7.79,1.38-11.43,0-4.96-1.89-8.96-5.64-12.82-9.3l-1.43-.89h25.68Z"/><path class="cls-1" d="M500.26-1.14v10.2l.62-1.08c-4.97,2.11-10.48.41-14.77-2.41-3.48-2.29-6.12-5.61-9.64-7.79l-.63,2.34h25.68c1.62,0,1.62-2.51,0-2.51h-25.68c-1.27,0-1.68,1.69-.63,2.34,1.61,1,2.85,2.3,4.27,3.56,2.11,1.89,4.33,3.69,6.79,5.1,4.86,2.79,10.63,3.77,15.89,1.54.39-.17.62-.69.62-1.08V-1.14c0-1.62-2.51-1.62-2.51,0Z"/><path class="cls-1" d="M373.53-1.14c-6.6,6.98-15.02,12.25-24.21,15.09-3.17.99-6.61,1.68-9.8.77-7.22-2.05-9.97-10.91-15.52-15.86h49.53Z"/><path class="cls-1" d="M372.64-2.03c-5.78,6.06-12.87,10.85-20.73,13.77-3.97,1.48-8.65,3.08-12.83,1.52-3.08-1.15-5.29-3.84-7.17-6.42-2.22-3.05-4.22-6.31-7.03-8.86l-.89,2.14h49.53c1.62,0,1.62-2.51,0-2.51h-49.53c-1.05,0-1.71,1.4-.89,2.14,5.16,4.69,7.64,12.48,14.27,15.5,4.29,1.96,8.96,1.01,13.25-.41s8.27-3.27,12.04-5.58c4.3-2.64,8.25-5.85,11.74-9.51,1.12-1.17-.66-2.95-1.78-1.78Z"/><path class="cls-1" d="M107.5,87.89c-2.2,4.43-7.34,6.35-11.61,8.85-17.71,10.35-24.48,34.8-43.41,42.7-16.5,6.89-36.29-1.5-53.23,2.65V-1.14h101.97c4.48,6.93,2.31,17.74.75,26.63-2.7,15.4-1.36,31.49,3.84,46.24,1.85,5.27,4.18,11.17,1.69,16.17Z"/><path class="cls-1" d="M106.41,87.25c-1.99,3.83-6.12,5.62-9.73,7.59-3.38,1.85-6.46,4.12-9.26,6.76-5.63,5.3-10.06,11.7-14.68,17.85s-9.28,11.98-15.59,16.08c-7.81,5.08-16.96,5.81-26.04,5.34-10.7-.55-21.61-2.53-32.2,0l1.59,1.21V4.69C.49,2.88.72.91.49-.89c-.01-.08,0-.17,0-.25L-.76.11h97.81c1.25,0,2.75.22,3.98,0,.06-.01.12,0,.18,0l-1.08-.62c2.77,4.42,2.74,9.91,2.26,14.94-.53,5.55-1.84,10.98-2.47,16.52-1.39,12.29-.26,24.88,3.25,36.73.98,3.3,2.29,6.49,3.23,9.79s1.47,6.66,0,9.78c-.68,1.45,1.48,2.73,2.17,1.27,2.59-5.51.47-11.36-1.42-16.73-2.06-5.85-3.58-11.88-4.44-18.02s-1.07-12.47-.66-18.7c.39-5.9,1.67-11.64,2.47-17.49.68-5,1.11-10.33-.37-15.24-.42-1.39-1.27-4.55-2.96-4.74-.15-.02-.3,0-.45,0-2.5-.03-5.01,0-7.52,0-11.11,0-22.21,0-33.32,0-13,0-25.99,0-38.99,0-7.11,0-14.26-.2-21.37,0-.11,0-.21,0-.32,0-.68,0-1.26.58-1.26,1.26v125.6c0,5.78-.19,11.6,0,17.37,0,.08,0,.17,0,.25,0,.84.8,1.4,1.59,1.21,18.6-4.44,38.78,5.41,56.49-4.19,13.87-7.52,20.65-22.91,31.26-33.88,3.02-3.12,6.35-5.84,10.15-7.95,4.14-2.3,8.81-4.34,11.11-8.76.75-1.43-1.42-2.7-2.17-1.27Z"/><path class="cls-1" d="M326.24,46.05c-2.4,6.71-12.88,5.29-18.01,10.23-5.07,4.88-3.3,14.37-8.73,18.84-2.4,1.97-5.67,2.44-8.76,2.67-42.74,3.05-86.04-27.97-126.17-12.96-8.12,3.03-16.61,7.94-24.87,5.33-10.61-3.37-13.75-16.62-15.02-27.68-1.67-14.57-2.97-30,1.96-43.61h157.94c3.49,2.26,6.85,4.81,10.14,7.33,11.54,8.82,23.44,18.07,30.02,31.02,1.39,2.75,2.54,5.94,1.51,8.84Z"/><path class="cls-1" d="M325.03,45.71c-1.21,3.18-4.87,4.23-7.82,5.12-3.34,1-6.87,1.91-9.55,4.27-2.91,2.56-3.9,6.48-4.79,10.09s-1.9,8.01-5.68,9.92c-2.22,1.12-4.82,1.32-7.25,1.47s-4.68.19-7.02.14c-4.79-.09-9.58-.54-14.32-1.25-9.69-1.45-19.2-3.89-28.65-6.41-18.19-4.86-36.92-10.59-55.97-9.48-4.62.27-9.23.95-13.71,2.12-4.9,1.29-9.49,3.36-14.19,5.2s-10.08,3.61-15.21,2.29c-3.77-.97-6.83-3.44-8.96-6.65-4.57-6.9-5.52-15.63-6.38-23.65-1.14-10.67-1.93-21.65.23-32.25.52-2.53,1.21-5.02,2.08-7.45l-1.21.92h157.14c.2,0,.52-.06.71,0,.22.07-.2-.17.06.22s1.02.68,1.4.94c.4.27.79.55,1.19.83.92.65,1.83,1.31,2.73,1.98,6.14,4.55,12.26,9.21,17.96,14.3s10.51,10.28,14.25,16.59c1.85,3.13,4.15,7,2.96,10.74-.49,1.54,1.93,2.2,2.42.67,1.21-3.78-.42-7.59-2.2-10.9s-3.81-6.2-6.1-9.03c-4.67-5.76-10.27-10.69-16.04-15.32-2.93-2.35-5.92-4.63-8.9-6.91-1.79-1.37-3.58-2.72-5.42-4.02-.79-.56-1.58-1.11-2.38-1.64-.57-.38-1.14-.89-1.84-.96-.52-.06-1.09,0-1.61,0h-81.1c-8.77,0-17.53,0-26.3,0h-40.29c-2.76,0-5.52-.06-8.27,0-.12,0-.24,0-.36,0-.59,0-1.02.4-1.21.92-3.73,10.44-3.93,21.73-3.11,32.67.38,5.09.87,10.2,1.64,15.25.62,4.09,1.52,8.18,3.07,12.02,1.45,3.61,3.47,7.11,6.48,9.64,3.39,2.85,7.68,4.24,12.11,4.01,5.47-.28,10.57-2.55,15.55-4.61,4.66-1.92,9.38-3.5,14.34-4.42,19.32-3.6,39.03,1.74,57.6,6.72,9.81,2.63,19.62,5.35,29.61,7.2,9.62,1.78,19.67,2.94,29.45,1.9,4.53-.48,8.71-2.08,10.91-6.32,1.86-3.59,2.17-7.71,3.58-11.46.67-1.78,1.68-3.44,3.21-4.61,1.43-1.09,3.14-1.75,4.83-2.3,3.33-1.09,7.04-1.75,9.88-3.93,1.35-1.03,2.28-2.33,2.88-3.92s-1.85-2.17-2.42-.67Z"/><path class="cls-1" d="M101.88,386.46c-4.22,19.57-14.79,37.94-14.85,57.96-.03,8.79,2.01,17.52,1.62,26.3-.32,6.97-2.15,13.78-3.98,20.52-.91,3.36-1.95,6.9-3.66,9.9H-.76v-107.82c3.92-2.07,8.46-3.29,12.82-3.79,9.27-1.07,18.8.09,27.84-2.19,14.93-3.77,26.14-16.23,40.45-21.93,5.53-2.21,12.29-3.21,17.11.28,6.07,4.41,5.99,13.44,4.41,20.77Z"/><path class="cls-1" d="M100.67,386.13c-3.17,14.53-9.66,28.08-12.96,42.57-1.68,7.41-2.26,14.85-1.63,22.43.66,7.96,1.96,15.86.94,23.86-.58,4.53-1.7,8.99-2.88,13.4-1.1,4.13-2.12,8.36-4.21,12.13l1.08-.62H-.76l1.26,1.26v-103.39c0-1.33.24-2.93,0-4.25-.01-.06,0-.12,0-.18l-.62,1.08c8.6-4.45,18.23-3.97,27.62-4.31,4.6-.17,9.25-.56,13.7-1.81,3.74-1.05,7.33-2.65,10.73-4.51,7.03-3.84,13.37-8.79,20.25-12.87,6.25-3.71,14.86-8.32,22.28-5.45,8.12,3.14,7.69,13.66,6.21,20.66-.33,1.58,2.09,2.25,2.42.67,1.43-6.75,1.94-15.29-3.23-20.68-6.01-6.26-15.56-3.96-22.5-.78-7.72,3.54-14.48,8.77-21.62,13.28-3.49,2.21-7.11,4.29-10.96,5.82-4.41,1.75-9.02,2.65-13.74,2.98-11.03.78-22.28-.43-32.44,4.83-.39.2-.62.66-.62,1.08v94.51c0,4.36-.19,8.76,0,13.12,0,.06,0,.12,0,.18,0,.68.58,1.26,1.26,1.26h81.77c.44,0,.87-.24,1.08-.62,1.81-3.26,2.88-6.84,3.85-10.42,1.04-3.83,2.07-7.67,2.82-11.57s1.22-7.91,1.18-11.92-.49-8.14-.92-12.19c-.81-7.78-1.02-15.37.44-23.09,1.38-7.3,3.72-14.38,6.14-21.39,2.77-8.04,5.67-16.07,7.48-24.4.34-1.58-2.08-2.25-2.42-.67Z"/><path class="cls-1" d="M409.95,501.05s-.03.06-.04.09h-121.64c.82-20.26,12.16-40.1,29.74-50.39,2.07-1.21,4.31-2.33,6.71-2.38,3.41-.06,6.44,2.01,9.66,3.11,7.53,2.58,15.7-.19,23.42-2.16,13.2-3.37,27.01-4.39,40.55-2.98,2.87.3,5.92.79,8.06,2.71,2.9,2.61,3.24,6.96,3.38,10.86.39,10.58.77,21.16,1.16,31.74.11,3.17.21,6.45-1,9.39Z"/><path class="cls-1" d="M408.87,500.42l-.04.09,1.08-.62h-116.66c-1.53,0-3.26-.23-4.78,0-.07.01-.14,0-.21,0l1.26,1.26c.5-11.54,4.4-22.8,10.95-32.29,3.3-4.78,7.31-9.1,11.86-12.71,2.21-1.75,4.57-3.35,7.03-4.72,1.38-.77,2.84-1.47,4.42-1.71,1.75-.27,3.47.21,5.09.84,3.17,1.23,6.03,2.68,9.46,3.08s6.76-.02,10.06-.68,6.79-1.68,10.19-2.53,7.11-1.61,10.71-2.16c7.09-1.08,14.29-1.46,21.46-1.2,3.44.13,7.02.24,10.4.95,3.05.65,5.44,2.21,6.46,5.27,1.07,3.21.92,6.76,1.04,10.1.16,4.3.31,8.6.47,12.9s.3,8.27.46,12.4.64,8.22-.85,12.03c-.59,1.51,1.84,2.16,2.42.67,1.33-3.42,1.15-7.12,1.01-10.72-.15-3.97-.29-7.94-.44-11.9s-.29-7.94-.43-11.9c-.13-3.54-.08-7.14-.52-10.66-.35-2.82-1.15-5.72-3.22-7.77-2.24-2.22-5.4-2.88-8.43-3.24-7.48-.9-15.11-.92-22.61-.28s-14.9,2.11-22.2,4.04c-3.62.96-7.29,1.95-11.04,2.24s-7.23-.24-10.67-1.74c-3.05-1.33-6.08-2.75-9.5-2.16-3.15.55-6.03,2.44-8.65,4.2-5.01,3.36-9.49,7.5-13.26,12.2-8.53,10.62-13.61,23.84-14.21,37.46-.03.68.6,1.26,1.26,1.26h106.68c4.91,0,9.86.2,14.76,0,.07,0,.14,0,.21,0,.41,0,.91-.23,1.08-.62l.04-.09c.66-1.46-1.5-2.74-2.17-1.27Z"/><path class="cls-1" d="M288.49,436.65c-8.39,16.92-16.78,33.84-25.17,50.76-2.34,4.72-4.86,9.63-8.13,13.74H124.72c-8.18-12.37-12.74-27.42-16.94-41.87-3.33-11.47-6.66-23.8-2.9-35.13,3.42-10.26,12.16-18,16.01-28.1,7.95-20.79-5.19-49.11,11.37-63.99,11.18-10.05,29.56-6.09,41.3,3.31,4.14,3.32,8.16,7.37,13.39,8.25,5.76.96,11.34-2.18,17.12-2.95,11.68-1.55,22.4,6.69,29.95,15.73,7.54,9.05,13.79,19.64,23.76,25.91,12.12,7.63,29.64,9.06,35.89,21.95,4.95,10.22-.14,22.24-5.19,32.41Z"/><path class="cls-1" d="M287.4,436.01c-8.52,17.18-17,34.39-25.57,51.54-2.2,4.4-4.49,8.81-7.54,12.69l.89-.37h-125.16c-1.62,0-3.46-.24-5.07,0-.07.01-.15,0-.23,0l1.08.62c-8.2-12.48-12.56-26.94-16.69-41.15-2.18-7.48-4.39-15.11-4.62-22.94-.12-3.89.29-7.78,1.46-11.51,1.02-3.22,2.62-6.21,4.4-9.06,3.61-5.78,8.05-11.08,10.86-17.33,2.43-5.4,3.38-11.25,3.67-17.13.29-5.99-.08-11.99-.24-17.98-.15-5.66-.2-11.42,1.03-16.98,1.16-5.3,3.62-10.14,7.75-13.73,4.48-3.9,10.42-5.45,16.27-5.27,6.14.19,12.19,2.16,17.52,5.16,2.81,1.58,5.32,3.51,7.79,5.57s5.1,4.25,8.14,5.57c3.27,1.42,6.68,1.54,10.15.86,3.69-.72,7.2-2.2,10.93-2.7,6.72-.9,13.21,1.77,18.6,5.59,11.27,7.99,17.38,20.86,27.22,30.27,4.48,4.28,9.63,7.35,15.31,9.77,5.22,2.22,10.63,4.01,15.68,6.61,4.74,2.44,9.08,5.71,11.49,10.59,3.3,6.67,1.82,14.39-.61,21.08-1.27,3.5-2.86,6.88-4.51,10.21-.71,1.44,1.45,2.72,2.17,1.27,5.74-11.59,11.81-26.49,2.43-37.94-6.89-8.4-18.6-10.78-28.01-15.16-5.64-2.62-10.45-6.21-14.68-10.77-4.49-4.84-8.27-10.26-12.36-15.43-7.65-9.66-18.76-19.96-32.08-18.69-6.86.66-13.77,5.14-20.63,2.18-2.96-1.28-5.46-3.44-7.92-5.49s-4.82-3.85-7.51-5.4c-9.78-5.62-22.88-8.25-33.19-2.48-4.69,2.62-8.36,6.89-10.48,11.81-2.11,4.88-2.8,10.22-2.99,15.5-.42,11.43,1.58,23.09-.75,34.41-1.28,6.21-4.26,11.54-7.79,16.74s-7.63,10.65-9.78,16.86c-2.43,7-2.14,14.56-.84,21.76s3.58,14.5,5.74,21.61,4.37,13.74,7.21,20.36c1.41,3.28,2.96,6.51,4.7,9.63.81,1.45,1.66,2.88,2.56,4.27.44.68.72,1.25,1.59,1.35,2.07.23,4.3,0,6.38,0h123.02c.29,0,.59.02.87,0,1.16-.09,1.67-1.14,2.31-2.02,4.44-6.1,7.48-13.18,10.82-19.91,3.61-7.27,7.21-14.54,10.82-21.82s7.07-14.25,10.6-21.37c.72-1.44-1.45-2.72-2.17-1.27Z"/><path class="cls-1" d="M501.52,391.27v109.87h-66.18c2-7.15,1.49-15.02-1.68-21.73-2.93-6.21-8.1-12.17-7.04-18.96,1.05-6.72,7.67-10.86,13.42-14.49,10.72-6.79,21.14-15.71,24.56-27.93,1.51-5.36,1.61-11.18,4.24-16.08,5.79-10.82,19.92-11.95,32.68-10.68Z"/><path class="cls-1" d="M500.26,391.27v105.37c0,1.37-.22,2.95,0,4.31,0,.06,0,.13,0,.19l1.26-1.26h-66.18l1.21,1.59c1.48-5.42,1.64-11.17.33-16.65s-4.31-9.77-6.79-14.6c-2.32-4.51-3.42-9.43-.52-13.96,2.56-3.98,6.89-6.57,10.8-9.04,8.44-5.34,16.69-11.77,21.84-20.5,2.67-4.52,3.97-9.35,4.91-14.47s2.08-10.06,5.85-13.77c7.24-7.13,19.17-6.89,28.55-5.97,1.61.16,1.6-2.36,0-2.51-8.9-.87-19.14-.93-26.96,4.04-3.95,2.51-6.77,6.25-8.26,10.68-1.79,5.31-1.91,11.01-4.02,16.24-3.9,9.67-12.26,16.88-20.74,22.51-7.62,5.07-18.04,10.62-16.04,21.5,1.11,6.02,5.41,10.78,7.65,16.35,2.49,6.18,2.73,13.06.99,19.46-.21.79.39,1.59,1.21,1.59h66.18c.68,0,1.26-.58,1.26-1.26v-96.3c0-4.45.19-8.94,0-13.39,0-.06,0-.13,0-.19,0-1.62-2.51-1.62-2.51,0Z"/><path class="cls-1" d="M501.36,204.69c.05-.04.11-.08.16-.13v89.76c-2.39-19.5-19.45-35.96-28.47-54.45-1.53-3.15-2.85-6.82-1.55-10.06.89-2.19,2.82-3.76,4.68-5.23,8.4-6.63,16.78-13.26,25.18-19.89Z"/><path class="cls-1" d="M502.25,205.57l.16-.13-2.14-.89v86.1c0,1.11-.18,2.4,0,3.5,0,.05,0,.1,0,.15h2.51c-1.69-13.31-9.46-24.67-16.75-35.55-3.8-5.67-7.64-11.35-10.81-17.41-1.63-3.1-3.81-7-2.71-10.61,1.02-3.33,4.9-5.55,7.47-7.59,7.43-5.86,14.85-11.73,22.27-17.6,1.27-1-.52-2.77-1.78-1.78-6.72,5.3-13.43,10.61-20.14,15.91-1.68,1.33-3.36,2.65-5.04,3.98-1.33,1.05-2.64,2.13-3.68,3.48-2.26,2.94-2.24,6.57-1.07,9.96s2.96,6.49,4.73,9.53,3.68,6.01,5.62,8.95c3.88,5.87,7.94,11.64,11.47,17.74,3.75,6.49,6.95,13.48,7.9,20.98.2,1.55,2.51,1.67,2.51,0v-78.65c0-3.62.26-7.34,0-10.95,0-.05,0-.1,0-.15,0-1.18-1.33-1.53-2.14-.89l-.16.13c-1.27,1,.52,2.77,1.78,1.78Z"/><path class="cls-1" d="M501.52,303.35v53.07c-2.71-2.82-5.27-5.76-6.85-9.17-6.35-13.75,4.98-28.85,6.85-43.91Z"/><path class="cls-1" d="M500.26,303.35v53.07l2.14-.89c-2.65-2.77-5.28-5.71-6.81-9.27-1.37-3.19-1.76-6.68-1.5-10.12.54-7.19,3.52-14.02,5.76-20.79,1.3-3.93,2.39-7.9,2.92-12.01.21-1.6-2.31-1.58-2.51,0-.99,7.65-4.2,14.79-6.46,22.11-2.09,6.77-3.48,14.22-.81,21.04,1.64,4.18,4.56,7.6,7.64,10.81.76.79,2.14.18,2.14-.89v-53.07c0-1.62-2.51-1.62-2.51,0Z"/><path class="cls-1" d="M321.09,261.24c6.9-13.67,6.56-29.92,12.1-44.19,5.54-14.28,22.15-26.98,35.45-19.38,6.44,3.67,9.81,10.88,14.41,16.69,11.85,14.99,31.61,20.57,49.09,28.3,17.48,7.73,35.56,21.55,35.77,40.66.13,12.19-7.29,24-4.99,35.97,2.4,12.47,15.02,22.77,12.61,35.24-.98,5.09-4.39,9.33-7.69,13.34-16.64,20.21-34.18,41.12-58.15,51.66-19.18,8.43-40.68,9.39-61.61,10.23-3.82.15-7.79.28-11.32-1.17-5.91-2.43-9.21-8.59-12.64-13.99-7.02-11.04-16.47-20.53-27.48-27.6-10.91-7.01-23.25-11.63-33.92-19.01-10.67-7.38-19.92-18.66-19.97-31.63-.08-21.71,23.23-34.42,40.91-47.02,21.93-15.63,39.08-37.87,48.62-63.05"/><path class="cls-1" d="M322.17,261.87c6.05-12.14,6.62-25.87,10.31-38.74,1.64-5.71,3.99-11.02,7.84-15.59,3.45-4.1,7.83-7.69,12.9-9.57,4.74-1.76,9.97-1.85,14.49.61,5.38,2.93,8.56,8.44,11.97,13.3s7.29,8.95,11.97,12.49,9.84,6.37,15.12,8.87c10.65,5.03,22.01,8.58,32.35,14.26,9.78,5.37,19.38,12.75,24.41,22.97,2.49,5.06,3.5,10.63,2.98,16.24-.61,6.6-2.97,12.88-4.31,19.34-1.25,6.07-1.41,12.16.79,18.03,2,5.32,5.17,10.06,7.82,15.06,2.5,4.72,4.62,10.05,3.42,15.47-1.39,6.32-6.43,11.36-10.43,16.19-8.09,9.77-16.37,19.44-25.73,28.03-9.43,8.66-20.07,16.19-32.05,20.87-12.97,5.07-26.89,6.98-40.71,7.94-6.89.48-13.87.98-20.79.95-3.3-.01-6.55-.46-9.39-2.27-2.39-1.52-4.27-3.76-5.88-6.05-1.76-2.5-3.28-5.16-4.97-7.71s-3.64-5.19-5.65-7.64c-4.06-4.95-8.64-9.47-13.65-13.46-10.63-8.47-23.14-13.56-34.83-20.29-10.55-6.07-21-14.54-24.82-26.58-7.21-22.7,15.57-38.08,31.54-49.02,4.78-3.28,9.56-6.56,14.07-10.2,4.79-3.87,9.32-8.07,13.55-12.55,8.44-8.94,15.72-18.99,21.53-29.82,2.84-5.29,5.32-10.76,7.46-16.37.58-1.51-1.85-2.17-2.42-.67-9.08,23.84-25.03,45.09-45.45,60.4-8.94,6.7-18.59,12.41-27.12,19.66-7.78,6.61-15,14.97-16.62,25.39-1.89,12.15,4.08,23.37,12.69,31.57,9.87,9.41,22.71,14.54,34.5,21.01s22.34,15.15,30.42,26.08c3.58,4.85,6.26,10.44,10.32,14.93,1.95,2.16,4.29,3.93,7.03,4.96,3.22,1.2,6.75,1.22,10.14,1.1,14.19-.49,28.52-1.12,42.47-3.95,13.4-2.72,25.96-7.89,37.15-15.75,10.54-7.4,19.7-16.55,28.22-26.15,4.4-4.96,8.64-10.05,12.86-15.17,4.04-4.9,8.48-9.99,9.27-16.54,1.42-11.65-8.41-20.75-11.9-31.09-4.41-13.05,4.07-25.61,4.11-38.66.04-11.54-6.54-21.56-14.99-28.91-9.1-7.91-19.95-12.78-31.01-17.29s-22.73-9-32.07-16.77c-2.33-1.94-4.5-4.07-6.43-6.4s-3.61-4.92-5.35-7.43c-3.35-4.83-7.13-9.49-12.78-11.64-10.38-3.95-21.43,2.68-27.98,10.47-8.5,10.09-10.07,23.35-12.61,35.84-1.33,6.52-2.94,13.03-5.93,19.01-.72,1.44,1.45,2.72,2.17,1.27h0Z"/></svg>