<?xml version="1.0" encoding="UTF-8"?><svg xmlns="http://www.w3.org/2000/svg" viewBox="0 0 500 500"><defs><style>.cls-1{fill:#20090c;}.cls-2{fill:#fff;}.cls-3{fill:none;stroke:#20090c;stroke-miterlimit:10;stroke-width:.84px;}.cls-4{fill:#571d0a;}.cls-5{fill:#f5d4a9;}</style></defs><rect class="cls-2" width="500" height="500"/><g id="Layer_1"><rect class="cls-5" x="-2.02" y="-1.71" width="503.03" height="503.03"/><path class="cls-4" d="M102.32,127.96c.51.51-.96.94-1.05.23s.76-1.18,1.48-1.22,1.5.12,2.12-.26c15.78-9.67,34.51-14.44,52.99-13.51,5.88.3,12.85,2.02,14.73,7.59,1.73,5.1-1.87,10.33-5.25,14.52-7.31,9.04-14.61,18.09-21.92,27.13-5.25,6.5-11.82,13.63-20.17,13.19-8.18-.43-14.02-8.01-17.68-15.34-2.27-4.55-4.17-9.31-5.19-14.29-1.01-4.95-1.13-10.04-1.24-15.1-.03-1.28-.03-2.65.68-3.7.71-1.06,2.44-1.51,3.26-.53l-2.76,1.29Z"/><path class="cls-4" d="M249.3,159.18c-11.07-5.3-23.83-7.78-35.78-4.99-11.95,2.79-22.84,11.42-26.54,23.12-3.7,11.7,1.07,26.04,11.94,31.74,3.42,1.79,7.23,2.71,11.04,3.31,17.54,2.77,36.05-1.16,50.97-10.8,2.48-1.6,4.96-3.47,6.24-6.13,2.05-4.27.51-9.3-1.05-13.77-1.93-5.54-3.89-11.15-7.18-16-3.29-4.86-8.11-8.96-13.86-10.1-1.02-.2-2.57.79-1.72,1.38l5.95,2.24Z"/><path class="cls-4" d="M344.5,189.84c-11.02-3.4-22.04-6.81-33.06-10.21-.91-.28-1.86-.58-2.56-1.23-.82-.76-1.18-1.89-1.47-2.98-1.16-4.47-1.58-9.14-1.22-13.74.15-1.9.45-3.86,1.49-5.46.91-1.4,2.32-2.4,3.76-3.24,10.3-6.04,23.98-5.11,34,1.39,2.02,1.31,3.96,2.88,5.12,4.99,1.35,2.45,1.52,5.37,1.41,8.17-.28,7.46-2.29,14.84-5.82,21.41-.24.45-.58.96-1.09.98s-.81-.88-.31-.97l-.25.89Z"/><path class="cls-4" d="M409.37,140.72c-7.79-.61-14.23-6.03-20.09-11.19-5.5-4.84-10.99-9.69-16.49-14.53-2.89-2.55-5.84-5.16-7.71-8.53-4.47-8.01-1.85-17.95.86-26.71.55-1.76,1.11-3.55,2.19-5.04,1.81-2.49,4.83-3.81,7.83-4.52,13.57-3.21,27.24,3.8,39.42,10.58,4.28,2.38,8.81,5.01,11.01,9.39,1.55,3.09,1.74,6.66,1.9,10.11.28,6.14.56,12.29.84,18.43.09,1.98.17,4.01-.41,5.9-.76,2.48-2.57,4.47-4.4,6.31-3.81,3.81-8.09,7.38-13.21,9.03s-11.27,1.03-15.13-2.73l13.41,3.5Z"/><path class="cls-4" d="M280.28,29.14c-.62-7.91-6.75-15.08-14.46-16.93-11.41-2.73-22.57,5.43-30.04,14.47-2.1,2.53-4.1,5.26-5,8.42-.89,3.12-.64,6.44-.39,9.68.51,6.48,1.03,13.02,2.82,19.28,1.37,4.78,3.45,9.32,5.53,13.84,2.74,5.96,5.67,12.16,10.87,16.15,7.81,5.99,19.44,5.37,27.7.03,8.27-5.34,13.41-14.6,15.63-24.19,1.32-5.71,1.7-11.78.02-17.39-3.23-10.79-13.54-18.54-16.04-29.53l3.37,6.18Z"/><path class="cls-4" d="M175.46,32.64c-3.06,12.11-13.54,21.75-25.65,24.79-7.05,1.77-14.45,1.5-21.68.86-4.64-.42-9.39-1.02-13.51-3.18-7.64-3.99-11.69-12.42-15.22-20.27-3.42-7.6-6.91-15.98-4.68-24,1.34-4.83,4.6-8.83,8.01-12.54h58.92c.45.6.88,1.22,1.28,1.86,6.46,4.01,10.84,10.79,12.56,18.2,1.1,4.69,1.13,9.62-.04,14.29Z"/><path class="cls-4" d="M34.08,28.98c-5.8.01-11.22,3.23-15.16,7.47-3.95,4.24-6.65,9.47-9.31,14.62-3.06,5.94-6.22,12.4-5.21,19.01.3,1.99.98,3.9,1.32,5.89,1.55,8.99-3.73,18.88.43,27,3.21,6.27,11.3,8.85,18.21,7.49,6.91-1.36,12.79-5.86,17.83-10.78,8.68-8.47,15.72-18.61,20.63-29.7,1.46-3.29,2.74-6.72,3.09-10.3.5-5.16-.99-10.34-3.23-15.02-3.31-6.91-8.52-13.18-15.51-16.31-6.99-3.14-15.87-2.61-21.59,2.48l8.5-1.85Z"/><path class="cls-4" d="M70.37,228.83c-3.47,4.06-8.14,6.87-12.73,9.62-3.17,1.89-6.59,3.86-10.27,3.63-3.14-.19-5.98-1.98-8.29-4.12-1.85-1.71-3.45-3.68-4.75-5.83-2.34-3.81-3.76-8.18-4.05-12.64-.29-4.58.45-9.59-2.09-13.41-5.53-8.33-20.58-3.37-27.51-9.8-.53-.48-1.01-1.03-1.43-1.65-.59-.86-1.01-1.82-1.28-2.83-.54-1.94-.53-4.06-.13-6.04.04-.18.08-.38.13-.56,1.77-7.36,8.53-12.79,15.81-15.04,5.3-1.63,10.87-1.88,16.46-1.69l-4-.78c4.25-2.51,9.44-3.4,14.28-2.44,5.4,1.06,10.12,4.25,14.41,7.69,8.43,6.77,16.04,15.07,19.71,25.25,3.66,10.17,2.77,22.44-4.28,30.65Z"/><path class="cls-4" d="M47.76,331.79c-.04.13-.09.28-.13.41-2.82,8.31-10.41,14.57-18.91,16.81-8.64,2.27-18,.7-26.04-3.19-1.62-.79-3.21-1.68-4.7-2.69v-37.55c.6-.47,1.23-.9,1.88-1.3,1.87-1.16,3.85-2.08,5.9-2.84,5.97-4.64,12.89-8.01,20.22-9.83,2.99-.75,6.15-1.23,9.15-.54,1.05.24,2.05.62,2.99,1.12,3.33,1.74,5.94,4.89,7.5,8.36,2.02,4.45,2.58,9.41,3.02,14.28.5,5.68.84,11.54-.88,16.98Z"/><path class="cls-4" d="M169.96,257.65c-4.27-4.2-10.4-6.12-16.39-6.3-5.99-.19-11.91,1.2-17.67,2.85-4.8,1.37-9.78,3.08-13.1,6.8-4.33,4.85-4.83,11.95-4.63,18.44.14,4.56.63,9.43,3.51,12.98,1.72,2.12,4.14,3.55,6.66,4.61,9.35,3.92,20.6,2.85,29.12-2.64,8.52-5.49,14.13-15.21,14.78-25.32.26-4.01-.31-8.3-2.84-11.42-2.52-3.13-7.42-4.54-10.71-2.23l11.27,2.24Z"/><path class="cls-4" d="M216.62,374.35c-3.24-5.79-1.55-13.24,1.96-18.87,8.83-14.14,26.68-19.61,43.25-21.51,2.77-.32,5.64-.56,8.31.25,2.16.65,4.06,1.95,5.79,3.4,6.81,5.7,11.4,14.28,11.33,23.16s-5.2,17.78-13.29,21.42c-4.44,2-9.41,2.39-14.27,2.61-9.68.44-19.7.26-28.56-3.67s-16.3-12.43-16.27-22.12l1.74,15.32Z"/><path class="cls-4" d="M142.04,348.04c-9.8-5.16-23-2.7-30.27,5.65-5.58,6.4-7.53,15.47-6.3,23.86,1.24,8.4,5.4,16.16,10.76,22.74,5.79,7.11,13.55,13.27,22.65,14.39,9.1,1.12,19.35-4.32,21.2-13.3,1.74-8.43-4.09-16.68-11-21.82-2.56-1.9-5.49-3.79-6.43-6.84-1.86-6.09,5.42-11.68,4.9-18.04-.42-5.21-6.21-8.62-11.43-8.37-5.22.25-9.9,3.12-14.33,5.9l20.24-4.18Z"/><path class="cls-4" d="M52.6,458.42c-.06.1-.12.2-.18.3-4.89,7.6-15.87,7.96-23.2,13.25-5.22,3.77-8.26,9.82-12.67,14.5-.74.79-1.56,1.53-2.45,2.2-4.38,3.4-10.26,5.21-14.75,2.26-.49-.33-.95-.7-1.37-1.11v-34.68c1.34-1.03,2.78-1.98,4.26-2.87,9.09-8.34,18.41-16.76,29.64-21.86,6.36-2.88,14.88-4.2,19.52,1.03,2.82,3.18,3.21,7.76,3.44,12,.27,5.11.41,10.6-2.23,14.96Z"/><path class="cls-4" d="M176.73,501.31h-48.24c-.02-.1-.03-.21-.03-.31-.05-.56.03-1.11.24-1.6-1.58-1.37-3.14-2.78-4.7-4.18-.7-.64-1.46-1.38-1.5-2.34-.03-.92.63-1.72,1.27-2.39,2.31-2.44,4.8-4.69,7.46-6.72,2.04-1.58,4.18-3.03,6.4-4.34,3.09-1.83,6.45-3.43,10.04-3.56,3.3-.12,6.41,1.01,9.27,2.73.39.23.78.48,1.16.74.12.08.23.15.34.23.39.27.78.55,1.17.85,1.23.93,2.41,1.94,3.53,2.98,4.39,4.07,8.37,8.61,11.83,13.51.94,1.32,1.87,2.81,1.78,4.4Z"/><path class="cls-4" d="M442.13,484.37c-3.9.46-7.08,3.18-10.4,5.28-10.25,6.48-23.86,7.29-34.81,2.07-1.09-.52-2.18-1.12-2.91-2.08-.77-1.02-1.03-2.33-1.24-3.59-1.97-11.99-.77-25.25,6.84-34.72,3.49-4.34,8.09-7.62,12.64-10.84,5.38-3.82,10.76-7.63,16.14-11.45,4.02-2.85,8.12-5.74,12.81-7.24,4.69-1.5,10.16-1.4,14.18,1.45,2.4,1.7,4.09,4.22,5.46,6.82,8.2,15.63,5.33,36.34-6.83,49.15-2.52,2.65-5.36,4.96-8.24,7.22-6.35,4.97-14.53,9.91-22,6.87l18.34-8.92Z"/><path class="cls-4" d="M501,342.83v43.8c-.28.78-.59,1.55-.95,2.31-.52,1.09-1.14,2.15-1.88,3.13-2,2.72-4.74,4.86-8,5.58-6.42,1.42-12.84-3.07-16.42-8.59-5.73-8.81-6.25-20.74-1.32-30.02,2.61-4.9,6.67-8.95,11.49-11.7h0c2.57-1.48,5.37-2.59,8.26-3.25h0c1.28-.3,2.59-.51,3.91-.63l-3.31.17h0l-6.96.36-2.78.14c1.27-.6,2.58-1.19,3.92-1.7h0c4.11-1.59,8.46-2.51,12.26-.68h0c.1.04.21.1.31.15.51.27,1,.59,1.44.94Z"/><path class="cls-4" d="M346.12,346.54c-6.95,1.41-14.05,2.88-20.14,6.52-6.08,3.65-11.06,9.95-11.14,17.05-.08,7.08,4.51,13.24,8.89,18.8,2.85,3.62,5.92,7.41,10.26,8.97,3.17,1.14,6.64.95,10,.74,3.46-.21,6.93-.43,10.39-.64,11.42-.7,23.29-1.53,33.26-7.16,9.97-5.62,17.38-17.55,14.01-28.49-2.48-8.04-10.18-13.65-18.34-15.71-8.16-2.07-16.76-1.14-25.06.25-8.3,1.39-16.61,3.24-25.02,2.98-1.21-.04-2.79-1.44-1.72-2l14.61-1.32Z"/><path class="cls-4" d="M289.86,261.76c-9.75-.6-20.39-.96-28.28,4.79-7.8,5.68-10.84,16.18-10.13,25.8.24,3.16.82,6.31,1.97,9.27,3.91,10.06,14.82,16.92,25.58,16.1,4.38-.34,8.58-1.8,12.73-3.24,9.21-3.22,18.57-6.51,26.49-12.21,7.92-5.7,14.35-14.25,15.16-23.98.24-2.92-.04-5.95-1.29-8.6-2.45-5.2-8.09-8.09-13.59-9.79-15.38-4.77-32.68-2.99-46.77,4.8l18.11-2.94Z"/><path class="cls-4" d="M389.07,234.76c-5.05-2.18-11.3-4.24-15.66-.89-1.78,1.37-2.88,3.44-3.61,5.56-2.72,7.9-.79,16.73,2.77,24.29,3.56,7.56,8.64,14.3,12.66,21.63,1.62,2.96,3.09,6.05,5.29,8.62,4.94,5.77,12.77,8.03,20.22,9.53,6.92,1.39,14.16,2.36,20.99.56,6.83-1.8,13.19-6.94,14.51-13.87,1.03-5.41-1.14-11.03-4.49-15.4-3.35-4.37-7.81-7.74-12.12-11.17-12.59-10.01-24.39-21.01-35.25-32.87-1.26-1.38-2.56-2.8-4.22-3.65-5.67-2.87-12.05,1.98-16.55,6.47-.66,1,.39,2.58,1.57,2.36l13.9-1.16Z"/><path class="cls-4" d="M501,112.53v34.61c-2.02,1.01-4.69.72-6.72-.42-2.52-1.42-4.29-3.84-5.99-6.19-.08-.12-.17-.23-.25-.35-1.23-1.72-2.47-3.46-3.55-5.29-1.53-2.57-2.75-5.28-3.21-8.22-.81-5.16,1.49-11.23,6.45-12.9l-10.41,2.17c3.29-2.91,7.03-5.52,11.3-6.53,3.43-.81,7.28-.44,10.24,1.38.73.44,1.4.97,2,1.59.05.05.09.1.13.15Z"/><path class="cls-4" d="M445.45,9.87c-1.09,4.52-4.37,8.25-8.15,10.97-6.81,4.9-15.58,7-23.87,5.72-1.79-.28-3.62-.74-5.01-1.89-2.18-1.79-2.82-4.83-3.13-7.64-.68-6.25-.42-12.58.78-18.75h35.86c1.17.92,2.07,2.13,2.71,3.48,1.17,2.46,1.46,5.42.81,8.11Z"/><path class="cls-4" d="M319.9,429.28c-9.48-3.01-19.16-6.04-29.1-5.98-9.95.06-20.39,3.74-26.21,11.82-5.81,8.07-5.23,20.89,2.82,26.72,4.46,3.23,10.36,3.93,15.8,3.09,5.44-.84,10.55-3.07,15.59-5.29,6.68-2.93,13.78-6.22,17.53-12.48,4.29-7.15,2.96-16.59-1.18-23.83-.91-1.6-2.05-3.21-3.77-3.88-1.61-.63-3.42-.31-5.12.02-5.32,1.03-10.63,2.06-15.95,3.09l29.58,6.72Z"/><path class="cls-4" d="M315.95,433.83c-.39-2.56-1.04-5.08-1.94-7.5-.67-1.8-1.54-3.64-3.1-4.75-2.06-1.47-4.82-1.35-7.33-1.07-9.04,1.01-17.93,3.4-26.26,7.06-.66.29-1.33.6-1.87,1.08-.86.77-1.3,1.91-1.55,3.04-.66,2.87-.12,6.33,2.32,7.98.84.57,1.83.87,2.79,1.16,3.41,1.03,6.85,2.07,10.39,2.46,3.54.39,7.24.09,10.46-1.44,2.37-1.13,4.38-2.87,6.69-4.12,1.8-.97,3.75-1.62,5.76-2,1.08-.21,2.37-.49,2.74-1.52"/><path class="cls-4" d="M317.17,433.5c-.56-3.54-1.44-7.53-3.38-10.6s-5.27-4.01-8.79-3.77c-7.83.52-15.74,2.52-23.07,5.24-3.2,1.19-7.48,2.2-8.84,5.69-1.07,2.75-1.03,6.33.65,8.84,1.98,2.96,6.2,3.59,9.41,4.44,3.7.98,7.56,1.66,11.39,1.23,2-.22,3.93-.71,5.76-1.55,1.92-.88,3.6-2.18,5.38-3.31,1.9-1.21,3.91-2.08,6.1-2.59,1.64-.38,3.53-.59,4.35-2.28.7-1.45-1.47-2.73-2.17-1.27-.5,1.04-2.7,1.07-3.69,1.34-1.5.41-2.98,1-4.35,1.73-2.84,1.53-5.25,3.78-8.37,4.77s-6.46.94-9.64.41-6.68-1.43-9.79-2.6c-2.71-1.02-3.5-3.84-3.12-6.52.22-1.57.75-2.9,2.19-3.67s3.18-1.39,4.77-1.99c6.34-2.41,12.97-4.1,19.69-5.02,3.26-.45,7.55-1.26,9.78,1.84.97,1.34,1.5,2.98,1.99,4.54.6,1.89,1.04,3.82,1.35,5.78.25,1.59,2.68.92,2.43-.67h0Z"/><path class="cls-1" d="M75.63,65.01c-.58,4.74-2.14,9.54-5.49,12.94-3.35,3.4-8.76,5.02-13.06,2.97h0c-10.73-5.14-4.46-24.01-12.36-32.08.68,1.63.83,3.48.42,5.19-8.74,1.25-17.18,4.58-24.43,9.62-4.93,3.44-9.43,7.84-11.68,13.41-2.24,5.58-1.82,12.5,2.16,17,5.31,5.99,15.17,5.84,22.06,1.79,3.68-2.18,7.39-5.42,11.61-4.73,1.37.23,2.59.86,3.61,1.78,1.74,1.53,2.89,3.83,3.27,6.15.94,5.85-2.21,11.76-6.69,15.64-4.48,3.87-10.13,6.09-15.69,8.12-8.66,3.17-18.57,6.03-26.79,1.84-1.72-.87-3.24-2.01-4.6-3.34V57.29c5.52-10.45,12.75-20.01,20.2-29.24,3.95-4.88,8.07-9.79,13.44-13.06,5.36-3.27,12.25-4.66,17.98-2.1,3.51,1.58,6.25,4.44,8.77,7.36,10.75,12.48,19.26,28.41,17.26,44.76Z"/><path class="cls-1" d="M181.31,27.3c-.22,11.57-3.31,23.32-10.25,32.58-6.94,9.26-18.01,15.72-29.59,15.65-9.95-.06-19.47-4.85-26.72-11.67s-12.46-15.53-16.73-24.52c-3.72-7.85-6.87-16.46-5.63-25.06.89-6.17,4.18-11.92,8.89-15.99h33.43c.7.66,1.28,1.43,1.62,2.32.27.7.35,1.43.29,2.13.27,2.17-.44,4.64-1.83,6.41-2.4,3.06-6.09,4.76-9.18,7.12-9.06,6.87-12.54,20.62-6.78,30.42,5.77,9.79,20.67,13.14,29.41,5.87,10.7-8.9,10.14-28.61,23.16-33.54,1.28-.49,2.72-.75,4.1-.66,1.34.09,2.62.53,3.62,1.43,2,1.8,2.23,4.81,2.19,7.51Z"/><path class="cls-1" d="M242.3,62.16c2.2-10.57,1.16-21.79-2.94-31.77-1.34-3.26-3.39-6.71-6.81-7.55-3.5-.85-7.14,1.54-8.89,4.69-1.74,3.15-2.01,6.88-2.16,10.48-.39,9.1-.3,18.32,1.79,27.19,2.76,11.73,8.89,22.36,14.93,32.79,5.28,9.11,12.61,19.43,23.13,19.11,8.2-.25,14.71-7.11,22.68-9.07,9.31-2.29,20.34,2.11,28.08-3.55,5.14-3.76,6.77-10.8,6.34-17.15s-2.51-12.48-3.17-18.81c-.82-7.73.48-15.51.54-23.29.06-7.77-1.37-16.06-6.65-21.76-4.17-4.52-10.23-6.83-16.25-8.09-6.33-1.32-13.13-1.58-19.04,1.05-5.9,2.63-10.59,8.72-10,15.15.68,7.45,7.52,12.53,13.26,17.32,5.75,4.79,11.39,12.08,8.73,19.08-1.44,3.8-5,6.32-8.39,8.55-6.97,4.57-15.2,9.1-23.21,6.83-6.29-1.79-10.9-7.69-12.26-14.09-1.37-6.4.13-13.15,2.96-19.04l-2.66,11.95Z"/><path class="cls-1" d="M316.23,136.74c4.3,2.44,8.79,5.05,11.37,9.26,2.59,4.21,2.46,10.53-1.6,13.35-1.68,1.17-3.93,1.71-5,3.46-.76,1.24-.72,2.79-.66,4.24.24,5.89.72,12.36,4.84,16.59,2.28,2.34,5.41,3.67,7.89,5.8s4.27,5.78,2.69,8.64c-1.74,3.14-6.19,3.26-9.7,2.51-16-3.43-28.81-16.4-35.24-31.46-4.02-9.41-5.52-21.23.96-29.14,3.64-4.44,9.53-6.93,15.25-6.44,5.72.49,11.11,3.94,13.94,8.94l-4.74-5.76Z"/><path class="cls-1" d="M362.07,159.25c-4.13-1.66-8.75-2.54-13.05-1.39-4.3,1.15-8.15,4.68-8.69,9.1-.44,3.56,1.21,7.37-.21,10.67-1.79,4.16-7.9,6.1-7.88,10.62.01,3.8,4.66,5.93,8.44,5.57s7.35-2.19,11.15-2.22c1.92-.01,3.81.44,5.73.47,8.29.15,15.13-8.38,14.55-16.65-.57-8.27-7.26-15.31-15.14-17.9l5.09,1.72Z"/><path class="cls-1" d="M501,100.9v13.68c-.44,1.12-.96,2.2-1.54,3.25-1.71,3.07-3.96,5.86-6.25,8.55l2.39-3.82,2.35-3.76c-3.97,2.03-7.75,6.32-7.12,10.37.09.65.31,1.31.66,1.94,1.43,2.57,4.49,3.66,7.03,5.16.88.52,1.71,1.12,2.48,1.79v27.1c-3.53.57-7.01-2.16-9.73-4.69-2.98-2.79-5.98-5.58-8.97-8.37-4.49-4.18-9.09-8.52-11.59-14.12-2.03-4.54-2.53-9.61-2.52-14.58.03-8.92,1.96-18.48,8.44-24.61,6.48-6.13,18.51-6.73,23.52.65.32.47.6.96.85,1.46Z"/><path class="cls-1" d="M469.21,191.18c2.44,1.54-5.92-.13-9.01,9.06-1.4,4.17-3.29,8.18-4.36,12.45-.31,1.22-.61,2.5-1.4,3.48-1.95,2.4-5.85,1.83-8.48.2-8.37-5.19-9.59-17.25-6.48-26.6,3.32-9.99,10.9-18.83,20.89-22.18,9.98-3.34,22.18-.33,28.34,8.21,2.68,3.71,4.12,8.15,5.38,12.54,2.74,9.59,4.3,21.24-2.67,28.39-.75.77-1.62,1.48-2.67,1.71-6.84,1.51-13.66-16-16.88-20.48-6.07-8.45-12.77-.77-16.84,5.74.56-.27-1.69-2.41-1.13-2.68l15.31-9.84Z"/><path class="cls-1" d="M391.94,240.83c-7.02,5.89-15.03,6.82-23.06,5.34-6.95-1.28-10.63-9.83-8.86-16.67,1.77-6.84,7.39-11.99,13.27-15.91,9.71-6.46,23.17-10.46,32.63-3.65,9.35,6.72,10.09,20.38,16.87,29.69,7.98,10.96,23.29,14.59,31.33,25.5,5.15,6.99,6.56,16.59,3.63,24.77-3.1,8.66-10.39,15.07-17.67,20.7-6,4.64-12.37,9.11-19.69,11.05-17.75,4.7-36.94-7.65-44.16-24.53-2.21-5.16-3.53-10.9-2.44-16.4,1.09-5.51,4.99-10.68,10.41-12.12,7.06-1.87,14.22,2.83,19.04,8.31,4.82,5.49,8.57,12.1,14.61,16.2,6.04,4.1,15.66,4.42,19.5-1.79,4.5-7.29-2.34-16.55-9.83-20.72-7.49-4.17-16.66-6.82-20.93-14.24-2.02-3.51-2.66-7.72-4.89-11.11-4-6.09-5.33-4.56-19.26-3.84l9.5-.59Z"/><path class="cls-1" d="M262.59,283.6c-6.83,4.06-16.14,3.42-22.35-1.52-2.22-1.77-4.14-4.24-4.28-7.08-.14-2.84,1.5-5.43,3.16-7.73,9.51-13.14,22.24-23.94,36.77-31.16,8.53-4.24,17.98-7.31,27.46-6.37,9.48.94,18.9,6.59,22.23,15.51,1.25,3.36,1.59,7.19.22,10.51-2.24,5.43-8.39,8.21-14.21,9.01-5.82.8-11.8.16-17.56,1.29-14.94,2.91-25.8,16.98-40.72,19.97l9.28-2.42Z"/><path class="cls-1" d="M266.04,298c-3.55-2.75-8.37-4.13-12.64-2.75s-7.53,5.98-6.6,10.37c.53,2.52,2.26,4.62,4.2,6.32,4.62,4.06,10.51,6.29,16.27,8.45,4.69,1.76,9.56,3.54,14.56,3.21,3.3-.22,6.47-1.36,9.58-2.49,6.08-2.2,12.15-4.41,18.23-6.61,4.14-1.5,8.3-3.02,12.11-5.23,3.22-1.88,6.51-5.32,5.25-8.83-.54-1.5-1.84-2.62-3.26-3.36-5.54-2.88-12.31-.61-17.84,2.28-5.53,2.9-11.16,6.51-17.39,6.25-5.17-.21-9.82-3.08-14.12-5.96-4.3-2.88-8.76-5.93-13.89-6.61-5.13-.68-11.12,1.92-12.35,6.95l17.89-1.98Z"/><path class="cls-1" d="M197.76,295.77c-8.37,11.54-12.42,26.15-11.19,40.35.38,4.39,1.58,9.24,5.33,11.54,4.91,3.01,11.22.08,16-3.12,2.65-1.78,5.37-3.79,6.62-6.73,1.25-2.94.36-7.01-2.61-8.18-1.56-.61-3.35-.33-4.91-.91-3.26-1.22-4.09-5.71-2.79-8.94,1.3-3.23,4.03-5.62,6.25-8.31,3.06-3.7,5.31-8.42,4.74-13.19-.57-4.77-4.69-9.26-9.49-9-2.16.12-4.18,1.13-5.91,2.44-4.06,3.06-6.76,7.85-7.29,12.9l5.25-8.85Z"/><path class="cls-1" d="M145.76,334.3c-11.23-1.84-22.44,3.21-31.98,9.4-2.26,1.47-4.55,3.08-5.93,5.4-1.38,2.32-1.61,5.53.15,7.58,1.79,2.08,5.03,2.3,7.64,1.43s4.82-2.6,7.2-3.98c4.76-2.74,10.33-4.06,15.82-3.74.58.03,1.23.12,1.6.56.49.59.26,1.48-.08,2.16-1.22,2.42-3.48,4.11-5.24,6.17s-3.05,5.01-1.85,7.44c1.06,2.15,3.71,3.06,6.11,3.04s4.74-.75,7.14-.91c5.08-.33,10.25,1.88,15.17.59,7.59-1.99,10.77-11.34,9.98-19.15-1.11-10.85-9.6-21.96-20.49-21.39-3.42.18-6.67,1.46-9.85,2.73-5.68,2.27-11.35,4.53-17.03,6.8l21.65-4.14Z"/><path class="cls-1" d="M126.48,391.97c-5.41-3.58-7.56-10.32-11.2-15.68s-11.31-9.61-16.36-5.53c-3.6,2.91-3.62,8.29-3.33,12.91.55,8.68,1.13,17.52,4.36,25.59,2.74,6.86,7.28,12.85,12.01,18.52,2.47,2.96,5.06,5.9,8.31,7.97,9.03,5.77,20.82,3.67,31.15.83,7.16-1.97,14.73-4.53,19.21-10.45,4.11-5.43,4.82-12.65,4.91-19.46.07-5.45-.21-11.11-2.74-15.93-2.53-4.82-7.89-8.55-13.25-7.56-4.01.74-7.21,3.94-9.06,7.58s-2.57,7.72-3.38,11.72c-.23,1.13-.52,2.35-1.43,3.06-1.37,1.07-3.37.45-4.9-.38-5.05-2.71-9.01-7.04-13.6-10.48s-10.42-6.08-15.96-4.58l15.23,1.87Z"/><path class="cls-1" d="M123.5,391.67c6.86-.41,12.32,5.38,16.7,10.67,4.81,5.81,9.63,11.61,14.44,17.42l-31.14-28.09Z"/><path class="cls-1" d="M38.12,292.17c-.28,1.27-.66,2.52-1.12,3.71-3.26,8.34-9.75,15.38-17.81,19.3-6.7,3.25-14.22,4.37-21.21,6.94v-40.9c7.24-3.92,15.18-6.51,23.35-7.46,4.65-.89,9.32-.56,12.88,2.38,4.49,3.71,5.23,10.18,3.92,16.03Z"/><path class="cls-1" d="M50.71,348.75c-4.65,9.36-16.99,14.01-26.66,10.07-3.77-1.54-7.12-4.18-11.1-5.03-2.58-.55-5.26-.3-7.9-.22-2.36.08-4.73,0-7.08-.23v-16.39c.17,0,.34.02.49.02,3.76.04,7.55-1.06,11.26-.42,5.33.93,9.98,5.4,15.35,4.73,7.08-.87,11.13-10.19,18.26-10.3,1.53-.02,2.99.44,4.28,1.22,1.97,1.19,3.54,3.15,4.28,5.36,1.24,3.66.52,7.75-1.2,11.2Z"/><path class="cls-1" d="M455.55,335.2c-.89-3.05-5.11-3.23-8.23-2.61-9.21,1.82-18.92,5.67-23.48,13.89-3.32,5.98-3.29,13.18-3.18,20.02.14,8.16.62,17.18,6.34,23,1.64,1.67,3.71,3,6.02,3.35,5.02.78,9.51-3.05,12.86-6.86,3.67-4.18,7.11-9.17,6.94-14.73s-5.7-11.09-10.94-9.23c-4.26,1.51-7.95,7.16-11.88,4.93-2.07-1.18-2.49-4.04-1.97-6.36,1.9-8.54,11.85-12.3,20.48-13.71,5.18-.85,11.76-2.67,12.21-7.9.29-3.37-2.56-6.36-5.77-7.41s-6.7-.62-10.05-.17c-2.82.37-6.55,2.05-5.7,4.76l16.36-.97Z"/><path class="cls-1" d="M125.81,284.3c-2.07-7.28-1.28-17.12-8.23-20.12-3.58-1.55-7.79-.28-11.14,1.71-11.5,6.81-16.76,22.51-11.69,34.88,1.43,3.49,3.61,6.73,6.61,9,6.49,4.93,15.56,4.6,23.5,2.77,7.95-1.83,15.75-4.93,23.9-4.81,4.16.06,8.55.94,12.32-.81,1.98-.92,3.57-2.47,5.12-3.99,5.24-5.14,10.48-10.28,15.72-15.42,3.16-3.1,6.41-6.35,7.88-10.52,3.11-8.87-2.82-18.23-9.01-25.3-3.43-3.91-7.14-7.74-11.82-10.02-4.67-2.28-10.52-2.76-14.95-.03-4.71,2.9-6.8,9.69-3.94,14.43,4.44,7.37,17,6.83,20.52,14.68,1.64,3.66.47,8.27-2.45,11.02-2.92,2.75-7.31,3.68-11.22,2.78-2.37-.54-4.74-1.71-7.11-1.16-4.14.95-5.48,6.25-8.88,8.79-4.92,3.67-12.38.05-15.35-5.33-2.97-5.38-3.02-11.81-4.12-17.85-.36-1.99-2.58-4.44-3.82-2.84l8.14,18.15Z"/><path class="cls-1" d="M99.55,206.15c-3.29-7.91-7.62-15.38-12.86-22.18-4.49-5.81-9.71-11.27-12.33-18.13-2.26-5.93-3.36-13.69-9.38-15.71-6.61-2.21-12.46,4.66-18.98,7.12-12.36,4.65-25.36-7.15-38.49-5.79-3.45.35-6.71,1.66-9.53,3.65v30.08c-.05.18-.08.38-.13.56-.4,1.99-.41,4.11.13,6.04v3.25c.4.24.82.46,1.26.66.48.22.96.41,1.45.56,5.76,1.92,12.26.02,18.19-1.74,9.79-2.9,20.48-5.3,30.01-1.66,9.54,3.65,16.36,15.81,10.9,24.45-1.68,2.66-4.19,4.54-7.08,5.79-7.13-1.63-15.13,2.51-18.39,9.01-.7,1.39-1.18,2.9-1.38,4.48-1.23,9.53,7.93,18.96,17.5,18.01,7.63-.76,13.57-6.71,20.5-9.99,10-4.75,23.36-4.77,29.36-14.08,4.59-7.13,2.51-16.57-.75-24.4ZM48.84,224.41c-1.85.45-3.77.7-5.65.78l5.65-.78Z"/><path class="cls-1" d="M157.91,122.94c-6.66.96-13.52.57-20.02-1.15-2.29-.6-4.67-1.45-6.18-3.29-3.66-4.45-.04-11.12,4.13-15.11,8.97-8.59,21.77-14.28,33.85-11.41,12.08,2.87,21.57,16.5,17.13,28.09-3.68,9.59-14.6,14.41-19.93,23.2-6.5,10.72-3.83,25.86-12.31,35.09-5.12,5.57-13.33,7.48-20.83,6.54-7.5-.94-14.46-4.37-21.01-8.13-9.2-5.29-18.13-11.52-24.37-20.1-6.23-8.58-9.44-19.9-6.31-30.04,3.13-10.14,13.64-18.14,24.11-16.41,1.68.28,3.37.8,4.69,1.87,5.08,4.08,2.04,12.06-.12,18.21-2.69,7.63-3.25,16.25-.18,23.73,3.07,7.48,10.19,13.51,18.26,14,8.07.49,16.41-5.5,17.36-13.53.52-4.38-.95-9.12,1.06-13.05,1.64-3.2,5.16-4.92,8.48-6.29,3.33-1.37,6.9-2.77,8.99-5.69s1.69-7.91-1.67-9.2c-1.9-.73-4.02-.07-5.95.58-4.11,1.4-8.22,2.8-12.33,4.2l13.15-2.13Z"/><path class="cls-1" d="M226.98,162.02c-11.46-.25-25.27.8-30.7,10.89-3.26,6.05-2.09,13.87,1.9,19.47,3.98,5.6,10.38,9.14,17.04,10.83,10.04,2.55,21.02,1.14,30.1-3.85,2.08-1.14,4.14-2.56,5.25-4.66,1.01-1.92,1.1-4.19.92-6.35-.96-11.69-9.8-22.32-21.11-25.4-2.26-.62-4.75-1.05-6.33-2.77-2.24-2.46-1.49-6.61.76-9.06,2.25-2.45,5.55-3.61,8.73-4.59,7-2.15,14.38-3.9,21.61-2.73,7.23,1.17,14.32,5.87,16.33,12.92,2.51,8.83-3.31,17.7-4.66,26.78-1.16,7.82.91,16.46-3.11,23.28-3.16,5.37-9.29,8.11-15.04,10.53-12.31,5.18-24.9,10.43-38.23,11.26-13.33.83-27.75-3.59-35.55-14.42-10.12-14.06-5.99-34.4,4.12-48.47,6.46-9,15.11-16.43,24.99-21.45,4.36-2.22,9.43-3.99,14.07-2.43,4.39,1.48,7.49,6.11,7.2,10.73s-3.95,8.82-8.49,9.74l10.19-.24Z"/><path class="cls-1" d="M251.65,333.13c-2.82-3.11-7.94-1.19-11.5,1.03-12,7.49-23.6,17.05-28.59,30.28-4.99,13.23-.97,30.67,11.78,36.76,3.44,1.64,7.25,2.38,10.81,3.76,5.64,2.2,10.57,5.99,16.27,8.02,6.17,2.2,13.22,2.17,19.17-.59,5.95-2.76,10.63-8.34,11.8-14.79.93-5.11-.27-10.48,1.05-15.51.81-3.08,2.54-5.88,3.2-8.99s-.14-6.96-3.03-8.31c-2.31-1.08-5.03-.18-7.33.92-6.89,3.3-12.86,8.35-19.87,11.39-7.01,3.03-15.99,3.59-21.59-1.61-5.3-4.91-5.68-13.65-2.22-19.99,3.46-6.34,9.98-10.51,16.78-12.93,3.89-1.39,8.73-3.15,9.19-7.25.33-2.86-1.98-5.54-4.72-6.41s-5.75-.26-8.42.81c-4.69,1.89-8.78,5.23-11.57,9.44l18.77-6.05Z"/><path class="cls-1" d="M162.11,477.91c-.84.29-1.68.59-2.52.88-.36.31-.75.56-1.17.78-1.09.57-2.36.89-3.7,1.02-3.85,1.5-7.63,3.19-11.08,5.29-4.27,2.58-8.03,5.76-10.82,9.92-1.1,1.63-2.05,3.41-3.57,4.64-.26.21-.53.39-.8.56-.18.11-.38.22-.57.31h-18.74c-2.54-.45-5.02-1.14-7.36-2.23-5.46-2.52-10.12-7.7-10.21-13.72-.13-8.04,7.49-13.98,14.85-17.23,1.78-.78,3.59-1.49,5.42-2.11,12.16-4.18,25.46-4.98,38.02-2.23,3.24.71,6.56,1.73,9.02,3.97,2.46,2.24,3.79,6.02,2.31,9-.26.53-.58,1-.95,1.4l1.85-.24Z"/><path class="cls-1" d="M135.63,486.66c8.38.22,16.4-3.08,24.13-6.31,2.29-.96,4.79-2.11,5.82-4.37,1.83-4.04-2.16-8.3-6.06-10.4-13.69-7.37-30.65-6.01-45.25-.69-1.35.49-2.77,1.08-3.57,2.28-.79,1.2-.55,3.17.8,3.65l24.14,15.84Z"/><path class="cls-1" d="M362.33,332.8c5.45.9,11.2,1.94,15.36,5.56,4.16,3.62,5.77,10.77,1.8,14.61-3.24,3.14-8.4,2.74-12.88,2.14-8.37-1.13-16.74-2.26-25.11-3.39-2.63-.35-5.37-.7-7.89.12-7.15,2.31-8.41,11.89-7.37,19.33,1.08,7.7,4.12,16.31,11.41,19,6.31,2.33,13.19-.71,19.34-3.42,6.15-2.71,13.52-5.09,19.31-1.68,6.61,3.89,7.26,14.12,2.54,20.17-4.72,6.04-13.07,8.25-20.72,7.64-7.65-.61-14.87-3.59-22.07-6.23-7.2-2.64-14.77-5-22.41-4.29-3.66.34-7.43,1.37-10.94.27-7.58-2.36-9.01-12.47-8-20.35.98-7.67,3.31-15.8,9.43-20.52,3.44-2.65,7.73-3.94,11.39-6.28,9.73-6.21,13.86-18.94,23.76-24.87,8.2-4.92,18.97-4,27.47.38,8.89,4.58,16.26,15.29,11.92,24.29l-16.34-22.49Z"/><path class="cls-1" d="M332.52,430.46c-5.44.11-9.65-4.67-14.79-6.48-8.38-2.96-18.62,4.14-18.79,13.02-.14,7.16,5.12,13.91,3.8,20.95-.51,2.75-2.02,5.46-1.39,8.18.65,2.78,3.37,4.6,6.11,5.41,5.14,1.52,11,.3,15.11-3.15,4.1-3.44,6.32-9.01,5.72-14.33-.18-1.6-.6-3.2-.32-4.79.95-5.34,8.86-7,10.07-12.28.85-3.73-2.38-7.4-6.05-8.45s-7.6-.2-11.32.65l11.86,1.26Z"/><path class="cls-1" d="M285.95,462.12c-3.71-.95-7.49-1.94-10.7-4.04-3.21-2.09-5.79-5.53-5.83-9.36-.09-7.42,8.67-12.14,10.1-19.42.26-1.33.24-2.79-.49-3.92-.81-1.25-2.31-1.87-3.75-2.22-5.75-1.38-11.89.34-16.94,3.4s-9.21,7.37-13.31,11.63c-5.03,5.23-10.45,12.32-7.61,18.99,3.37,7.91,15.35,7.9,20.54,14.76,1.02,1.35,1.74,2.93,2.84,4.22,3.61,4.23,10.51,4.13,15.29,1.3,4.79-2.83,7.96-7.68,10.96-12.36.4-.62.82-1.32.72-2.05-.2-1.43-2.03-1.85-3.47-1.98-3.75-.33-7.48-.97-11.12-1.92l12.79,2.97Z"/><path class="cls-1" d="M474.88,474.85c-5.11,10.28-15.33,17.84-26.65,19.74-7.75,1.29-15.94.08-23.39,2.61-1.02.34-2.02.76-3,1.22,0,0-.02,0-.03,0,0,0,0,0,0,0h0c-.42.61-.91,1.17-1.44,1.68l.44-1,.12-.26c-1.51.75-2.98,1.6-4.45,2.46h-31.67c-2.36-1.9-4.39-4.2-5.96-6.77-5.47-8.96-5.71-20.44-2.42-30.41,3.29-9.96,9.78-18.59,17.08-26.12,4.85-5.01,10.22-9.68,16.62-12.42,6.4-2.74,14-3.33,20.24-.23.61.3,1.22.66,1.69,1.16.17.18.32.39.44.61.35.69.38,1.48.34,2.26-.48,7.87-7.47,13.67-14.36,17.5-6.89,3.83-14.65,7.06-19.04,13.61-4.38,6.55-2.68,17.76,5.02,19.42,2.91.62,5.93-.25,8.89,0,4.48.38,8.58,3.57,10.06,7.81.54,1.54.72,3.19.57,4.82,6.25-2.2,11.44-7.28,13.77-13.5,1.43-3.85,1.84-8.12,3.98-11.63,3.34-5.49,10.09-7.84,16.45-8.83,2.05-.32,4.3-.41,6.49-.22,5.68.51,11.05,2.94,12.01,8.25.51,2.8-.48,5.66-1.74,8.21Z"/><path class="cls-1" d="M501,314.68v27.42c-.56-.18-1.15-.31-1.75-.37h0c-1.36-.14-2.76.03-4.01.53-.87.35-1.69.81-2.44,1.35h0c-.2.14-.4.29-.59.45h0c-2,1.59-3.62,3.75-5.11,5.86-2.31,3.3-4.5,6.69-6.55,10.16-.38.63-.75,1.26-1.11,1.89-3.2,5.58-6.15,11.68-5.95,18.12.19,6.44,4.49,13.17,10.87,14.03,4.64.63,9.18-1.84,13.82-2.07.53-.03,1.06-.03,1.59.02.42.03.83.08,1.23.16v27.2c-.49,0-.98-.04-1.47-.08-8.29-.67-16.44-2.98-23.84-6.76-6.99-3.57-13.75-9.1-15.38-16.78-1.14-5.41.44-10.97,2-16.27,2.45-8.25,4.89-16.51,7.33-24.76,2.98-10.05,6.13-20.44,12.95-28.4,4.33-5.05,10.04-8.91,16.32-11.06.68-.23,1.38-.44,2.09-.63Z"/><path class="cls-1" d="M501,344.34v.32l-.39-.09-.65-.16c.34-.04.68-.07,1.01-.07h.03Z"/><path class="cls-1" d="M501,235.09v46.25c-1.23,1.22-2.65,2.24-4.3,2.96-2.28,1-4.79,1.32-7.27,1.6-3.66.42-7.53.76-10.92-.7-5.66-2.44-8.27-9.48-7.18-15.54,1.1-6.06,5.13-11.2,9.67-15.37,4.54-4.18,9.7-7.65,14.03-12.03,2.2-2.21,4.16-4.64,5.97-7.17Z"/><path class="cls-1" d="M276.58,499.96c-.16.64-.58,1.06-1.14,1.35h-71.74c.37-2.43,1.6-4.79,3.31-6.59,2.83-2.96,6.75-4.63,10.69-5.77,12.12-3.52,25.03-2.76,37.6-1.63,8.35.75,18.35,2.91,21.08,10.83.2.58.35,1.21.2,1.8Z"/><path class="cls-1" d="M2.02,465.78l.09.3,4.23,14.33c-.69-.6-1.37-1.19-2-1.82,0,0-.02-.02-.03-.02-2.98-2.93-5.09-7.75-3.55-11.28.06-.11.13-.22.21-.33.31-.44.66-.83,1.05-1.17Z"/><path class="cls-1" d="M72.46,453.7c-.89,6.84,1.11,13.92-.47,20.63-1.58,6.72-9.64,12.74-15.16,8.59-4.34-3.27-3.55-9.82-3.34-15.26.12-3.06-.16-6.23-.9-9.25-1.37-5.61-4.31-10.71-9.18-13.66-7.5-4.54-19.56-.73-20.65,7.96-.24,1.93.03,3.96-.7,5.76-2.72,6.74-14.26,2.79-19.72,7.03-.12.09-.23.18-.34.28l-.08-.26c-.52.54-.91,1.12-1.18,1.76-2.98,4.82,1.72,10.92,6.06,14.77l-.1-.34-.39-1.31c2.95,2.52,6.15,4.85,7.76,8.27.09.18.17.35.24.53,1.68,4.12.28,8.78-2.69,12.11H-2.02v-65.9c11.86-11.37,24.3-22.37,39.28-28.96,4.81-2.12,9.93-3.77,15.17-3.84,15.14-.2,28.49,15.17,26.17,30.12-1.12,7.21-5.21,13.72-6.14,20.96Z"/><path class="cls-1" d="M17.31,400.61c-3.64,7.17-9.93,12.71-16.86,16.8-.78.46-1.61.9-2.47,1.27v-50.68c2.3-.6,4.68-.6,6.98-.13.23-.08.46-.15.7-.22l-.42.28c5.21,1.15,10,4.73,12.57,9.48,3.82,7.08,3.15,16.02-.49,23.2Z"/><path class="cls-1" d="M399.29,72.17c-4.43,6.06-12.44,9.29-19.83,7.98-2.5-.44-5.01-1.36-7.52-.94-3.23.54-5.72,3.23-7.16,6.17-3.64,7.42-1.48,17.23,4.95,22.43,9.25,7.5,24.89,5.6,31.48,15.52,1.62,2.45,2.78,5.66,5.59,6.53,1.56.48,3.24.07,4.8-.41,5.84-1.78,11.7-4.71,14.99-9.85,4.48-7.01,2.96-16.58-1.55-23.58-4.51-6.99-11.49-11.96-18.36-16.66-3.72-2.54-7.61-5.22-9.68-9.22-2.08-4-1.59-9.72,2.26-12.05,1.93-1.17,4.29-1.29,6.54-1.38,11.59-.48,25.64.36,31.17,10.56,3.43,6.34,2.12,14.04,1.92,21.25-.37,13.63,3.61,27.01,4.31,40.63.69,13.62-2.92,28.87-14.36,36.29-8.24,5.35-19.65,5.3-27.84-.11-7.49-4.94-11.89-13.48-18.93-19.05-6.08-4.82-13.76-7.13-20.35-11.21-6.6-4.09-12.47-11.21-11.15-18.86.54-3.17,2.26-6,3.2-9.07,4.53-14.78-9.54-30.71-4.62-45.37,2.36-7.02,8.64-11.98,15.14-15.51,6.31-3.43,13.38-5.95,20.55-5.43s14.38,4.61,17.04,11.28c3.58,8.96-1.92,19.17-9.21,25.48l6.63-5.43Z"/><path class="cls-1" d="M481.23,25.96c-2.99,10.52-14.01,16.79-24.71,19.06-7.03,1.49-14.94,1.58-20.77-2.61-5.75-4.14-9.89-12.36-16.94-11.66-2.06.21-3.97,1.23-6.02,1.57-5.58.93-10.6-3.22-14.73-7.08-3.18-2.97-6.35-5.94-9.53-8.91-2.99-2.79-6.13-5.83-7.11-9.81-.7-2.83-.11-5.72,1.31-8.24h27.67c-.46,2.42-1.36,4.84-2.18,7.17-1.48,4.23-2.74,9-.87,13.06,1.78,3.86,6.1,6.09,10.33,6.31,4.24.23,8.39-1.26,12.16-3.19,5.6-2.88,10.91-7.08,13.12-12.98.83-2.21,1.19-4.58,1.68-6.9.24-1.18.51-2.35.9-3.48h30.26c2.87,4.19,4.65,9.27,5.58,14.3.81,4.43,1.08,9.05-.14,13.37Z"/><path class="cls-3" d="M157.16,136.7l1.86-1.16"/><path class="cls-1" d="M158.09,137.49c1.62,0,1.62-2.52,0-2.52s-1.62,2.52,0,2.52h0Z"/><path class="cls-1" d="M148.01,153.44c-.51-4.78-.84-10.15,2.27-13.81,1.55-1.82,3.74-2.92,5.82-4.1,2.07-1.18,4.17-2.57,5.27-4.69s.82-5.13-1.2-6.4c-1.33-.83-3.03-.73-4.59-.57-4.51.46-9.12,1.16-13.53.12-4.41-1.04-8.66-4.33-9.23-8.83-.11-.83-.08-1.71.25-2.48.64-1.49,2.26-2.3,3.81-2.81,7.9-2.6,16.51-.6,24.47,1.78,2.14.64,4.32,1.34,6.11,2.69,3.58,2.7,4.89,7.77,3.78,12.11s-4.31,7.95-8.14,10.29c-3.82,2.34-8.24,3.54-12.65,4.34"/><path class="cls-1" d="M149.27,153.44c-.44-4.15-1-9.23,1.77-12.75s7.9-4.38,10.69-8.09c2.3-3.06,2.14-8.22-1.92-9.71-2.2-.81-4.78-.21-7.04.03-2.64.27-5.31.51-7.96.26-4.13-.39-8.86-2.45-10.37-6.64-.37-1.02-.65-2.29-.21-3.33s1.51-1.57,2.49-1.95c2.4-.91,5.01-1.29,7.56-1.34,5.4-.12,10.71,1.18,15.85,2.69,2.31.68,4.79,1.32,6.72,2.84,1.58,1.25,2.63,3.07,3.14,5.01,1.28,4.8-.9,9.56-4.4,12.83-4.21,3.94-9.93,5.56-15.47,6.58-1.59.29-.92,2.72.67,2.43,5.36-.98,10.76-2.57,15.11-5.97,3.64-2.85,6.44-6.93,6.91-11.61s-1.33-9.12-5.06-11.7c-2.13-1.47-4.72-2.18-7.18-2.9-2.76-.81-5.56-1.54-8.39-2.03-5.43-.95-11.43-1.2-16.63.95-2.13.88-3.86,2.44-4.03,4.86-.16,2.2.73,4.44,2.04,6.17,2.99,3.94,7.85,5.54,12.64,5.7,2.98.1,5.95-.29,8.91-.6,2.19-.23,5.12-.5,5.59,2.31s-1.88,4.88-4.03,6.23c-2.33,1.47-4.93,2.57-6.87,4.58-3.89,4.02-3.58,9.98-3.04,15.13.17,1.59,2.68,1.61,2.52,0h0Z"/><path class="cls-1" d="M344.72,179.34c-.69-.17-1.06-.91-1.34-1.56-1.11-2.63-2.11-5.36-2.34-8.21-.22-2.85.41-5.87,2.27-8.04,2.64-3.1,7.08-3.88,11.14-4.09,2.58-.13,5.25-.1,7.62.92,2.33,1,4.16,2.84,5.94,4.65,1.36,1.38,2.75,2.81,3.56,4.57,1.38,2.99.89,6.51-.18,9.62-.4,1.16-.92,2.34-1.88,3.11-1.83,1.45-4.48.9-6.71.19-5.28-1.66-10.42-3.74-15.38-6.21-2.53-1.26-5.17-2.79-6.32-5.37.25-.17.64-.1.8.16"/><path class="cls-1" d="M345.05,178.13c-.43-.16-.65-1.13-.81-1.52-.29-.7-.56-1.4-.8-2.12-.55-1.59-1.01-3.24-1.14-4.93-.22-2.74.39-5.7,2.4-7.69,1.87-1.85,4.56-2.6,7.1-2.95,2.82-.39,5.98-.59,8.74.21s5,3.11,7.03,5.2c2.18,2.25,3.69,4.54,3.59,7.78-.05,1.48-.38,2.93-.84,4.33-.43,1.31-.98,2.79-2.39,3.3-1.18.43-2.54.14-3.71-.16-1.58-.41-3.14-.97-4.68-1.52-3.47-1.23-6.88-2.65-10.2-4.25-2.72-1.31-5.77-2.68-7.15-5.54l-.75,1.85-.42-.16c1.22,1.05,3.01-.73,1.78-1.78-.62-.53-1.22-.75-2.03-.48s-1.11,1.09-.75,1.85c1.42,2.97,4.36,4.63,7.2,6.03,3.71,1.83,7.54,3.44,11.43,4.84,3.02,1.08,6.88,2.86,10.11,1.7s4.28-5.12,4.73-8.16c.55-3.7-.32-7-2.73-9.86-2.26-2.68-5.05-5.6-8.34-6.95s-7.12-1.17-10.57-.73c-3.12.39-6.28,1.27-8.65,3.44-2.78,2.54-3.74,6.52-3.36,10.17.23,2.22.86,4.35,1.66,6.42.63,1.63,1.14,3.44,2.9,4.12,1.51.58,2.17-1.85.67-2.43h0Z"/><path class="cls-1" d="M295.65,262.9c-5.04-.87-9.92,2.13-13.83,5.43-4.87,4.11-9.18,8.92-14.54,12.37-5.35,3.45-12.2,5.41-18.13,3.09-1.26-.49-2.59-1.36-2.75-2.7-.13-1.03.48-2.01,1.13-2.82,3.1-3.84,7.66-6.16,12.16-8.17,4.83-2.16,9.76-4.1,14.77-5.82,4.78-1.63,9.81-3.08,14.81-2.41,2.52.34,4.97,1.22,7.13,2.56"/><path class="cls-1" d="M295.98,261.69c-7.17-1.08-13.04,3.82-17.98,8.35-5.14,4.7-10.2,10.01-16.94,12.35-3.21,1.11-6.72,1.58-10.04.69-1.11-.29-3.41-.89-3.38-2.38s2.3-3.27,3.35-4.16c2.54-2.14,5.58-3.65,8.58-5.02,3.65-1.67,7.38-3.18,11.14-4.58,8.05-2.98,17.05-6.27,25.06-1.42,1.39.84,2.65-1.33,1.27-2.17-3.41-2.06-7.31-3.05-11.29-2.88-4.24.18-8.33,1.45-12.31,2.83s-8.18,3.02-12.19,4.74c-3.5,1.51-7.05,3.06-10.18,5.28-2.37,1.68-6.65,4.86-5.87,8.26s5.38,4.21,8.22,4.43c7.64.58,14.53-3.7,20.08-8.48,3.34-2.88,6.41-6.06,9.84-8.84s7.53-5.25,11.96-4.58c1.58.24,2.27-2.18.67-2.43h0Z"/><path class="cls-1" d="M345.79,349.06c4.98,2.5,10,5.03,15.4,6.44,5.39,1.41,11.25,1.65,16.44-.38,1-.39,2.01-.89,2.7-1.72,1.08-1.3,1.19-3.13,1.14-4.82-.08-2.45-.42-4.98-1.77-7.03-1.67-2.54-4.73-3.95-7.76-4.14s-6.05.71-8.79,2.02c-3.17,1.51-6.4,4.15-6.41,7.66"/><path class="cls-1" d="M345.15,350.14c5.45,2.74,10.99,5.54,16.98,6.88,5.53,1.23,11.87,1.36,17.05-1.23,2.49-1.24,3.47-3.55,3.54-6.23s-.26-5.4-1.44-7.77c-2.51-5.02-8.66-6.37-13.74-5.26-5.13,1.13-11.85,4.57-12.06,10.55-.06,1.62,2.46,1.62,2.52,0,.15-4.38,5.52-6.82,9.11-7.85,4.21-1.2,9.66-.66,11.92,3.64,1.02,1.95,1.22,4.31,1.19,6.48-.01.99-.1,2.07-.65,2.93-.68,1.05-1.97,1.53-3.1,1.92-4.61,1.57-9.62,1.38-14.31.24-5.55-1.35-10.67-3.92-15.74-6.47-1.44-.73-2.72,1.44-1.27,2.17h0Z"/><path class="cls-1" d="M432.12,492.9c-1.16.38-2.29.82-3.39,1.33-1.32.61-2.61,1.31-3.84,2.09-1.04.66-2.05,1.38-3.06,2.09-.02,0-.03.02-.04.02h0c-.33.24-.66.47-1,.69-.9.59-1.82,1.14-2.78,1.6-.48.23-.97.43-1.48.6-.06.03-.12.04-.18.06.03-.02.07-.03.1-.06h-6.41c-.15-.07-.3-.15-.42-.27-.49-.5-.08-1.42.57-1.69.64-.29,1.37-.15,2.07-.09,3.41.3,6.54-1.15,9.67-2.72.39-.2.8-.41,1.2-.61,1.28-.65,2.57-1.28,3.88-1.79h0c.28-.12.54-.22.82-.31,1.38-.47,2.82-.78,4.28-.92Z"/><path class="cls-1" d="M431.79,491.69c-2.97.99-5.79,2.37-8.39,4.11-2.36,1.59-4.63,3.44-7.38,4.36l.97,2.3.1-.06c1.08-.63.61-2.34-.63-2.34h-4.19c-.52,0-1.57-.21-2.06,0-.64.28.8.39,1.01.38.8-.04,1.61.15,2.42.11,3.3-.14,6.34-1.6,9.24-3.08,1.47-.75,3.01-1.53,4.49-2.12s3.13-1.01,4.76-1.19,1.61-2.69,0-2.52c-4.17.45-7.45,2.11-11.18,3.98-1.78.89-3.6,1.74-5.55,2.17-1.03.23-2.07.28-3.12.2-.92-.07-1.85-.19-2.71.26-1.41.74-1.95,2.73-.63,3.82.68.56,1.35.48,2.15.48h5.36l-.63-2.34-.1.06c-1.2.7-.41,2.76.97,2.3s2.78-1.15,4.06-1.95c.34-.21,1.88-.93,1.93-1.31-.56.3-.68.38-.35.24.18-.06.34-.16.49-.3.34-.22.68-.47,1.01-.71,2.69-1.86,5.53-3.4,8.64-4.44,1.53-.51.87-2.94-.67-2.43Z"/><path class="cls-1" d="M439.71,491.33l-1.7,1.86c-.89-.18-1.79-.3-2.69-.35-1.06-.08-2.14-.05-3.19.07,1.97-.66,4.01-1.14,6.07-1.41.5-.07,1.01-.13,1.52-.17Z"/><path class="cls-1" d="M438.82,490.44c-.57.62-1.13,1.24-1.7,1.86l1.22-.32c-2.04-.42-4.15-.55-6.22-.33l.33,2.47c2.39-.8,4.86-1.33,7.25-1.53.65-.06,1.29-.54,1.26-1.26-.03-.63-.56-1.32-1.26-1.26-2.69.23-5.36.76-7.92,1.62-.6.2-.99.74-.9,1.38.08.56.61,1.16,1.24,1.09,1.14-.12,2.27-.13,3.41-.05.56.04.98.09,1.44.16.68.11,1.38.34,1.94-.21s1.13-1.23,1.68-1.84c.44-.49.52-1.3,0-1.78-.48-.44-1.3-.52-1.78,0Z"/><path class="cls-1" d="M422.74,374.8c-1.25-6.94-1.68-14.03-1.29-21.07.22-3.91.76-7.99,3.03-11.19,2.48-3.5,6.61-5.37,10.58-6.97,2.22-.89,4.51-1.77,6.9-1.74.92.01,1.93.21,2.49.95.72.95.3,2.39-.56,3.21s-2.04,1.19-3.16,1.61c-11.34,4.27-19.18,16.44-18.36,28.53-.69-1.31-1.03-2.81-.97-4.29"/><path class="cls-1" d="M423.95,374.47c-1.29-7.28-1.74-14.78-1.15-22.16.26-3.17.86-6.5,2.76-9.13,1.78-2.47,4.52-4.04,7.24-5.29s6.37-3.14,9.51-2.78c1.86.21,1.22,1.77-.01,2.49-1.3.76-2.84,1.13-4.2,1.77-4.99,2.38-9.21,6.3-12.19,10.93-3.39,5.27-5.17,11.57-4.79,17.83l2.34-.63c-.58-1.17-.82-2.36-.8-3.66.03-1.62-2.49-1.62-2.52,0-.03,1.75.36,3.36,1.14,4.93.55,1.11,2.42.59,2.34-.63-.38-6.3,1.54-12.48,5.16-17.62,1.78-2.53,4.01-4.8,6.53-6.59,1.23-.87,2.53-1.65,3.88-2.3,1.47-.71,3.14-1.1,4.54-1.96,2.45-1.5,3.47-5.41.26-6.72s-7.38.61-10.35,1.85-6.02,2.69-8.41,4.96-3.84,5.46-4.46,8.76c-.79,4.21-.81,8.62-.68,12.89.14,4.6.63,9.18,1.44,13.71.28,1.59,2.71.92,2.43-.67h0Z"/><path class="cls-1" d="M501,338.59v5.73s-.02.02-.03.02c-.12.08-.23.16-.36.23-.48.3-.98.56-1.47.8-7.13,3.56-13.47,8.63-18.61,14.71-3.95,4.66-7.18,9.93-9.5,15.58l2.48-6.79c3.19-6.61,6.38-13.22,9.57-19.83.28-.57.55-1.15.85-1.72h0c.57-1.17,1.19-2.29,1.89-3.35.35-.55.74-1.06,1.15-1.56h0c.38-.47.78-.9,1.22-1.31,2.59-2.44,6.23-3.72,9.78-3.46,1.02.08,2.12.41,3.02.95Z"/><path class="cls-1" d="M499.74,338.59v5.73l.62-1.09c-1.51,1.01-3.23,1.73-4.81,2.64s-3.1,1.89-4.58,2.94c-3.05,2.16-5.91,4.6-8.51,7.28-5.4,5.56-9.66,12.09-12.64,19.24l2.43.67c.57-1.55,1.13-3.09,1.7-4.64.93-2.54,2.14-4.92,3.32-7.36,1.95-4.04,3.9-8.08,5.85-12.11.46-.95.91-1.9,1.37-2.85.22-.45.42-.93.66-1.37.01-.02.21-.49.06-.21s.4-.63.41-.64c.84-1.55,1.78-3.07,3.01-4.34,2.79-2.88,7.98-4.89,11.75-2.79,1.42.79,2.69-1.39,1.27-2.17-3.49-1.94-7.94-1.25-11.35.57-3.63,1.93-5.79,5.34-7.57,8.91-.01.03-.19.46-.07.24.16-.3-.29.45-.34.55-.25.51-.49,1.02-.74,1.52-.57,1.17-1.13,2.35-1.7,3.52-1.06,2.2-2.13,4.41-3.19,6.61-1.58,3.27-3.43,6.52-4.68,9.93-.73,1.99-1.46,3.98-2.18,5.98-.56,1.55,1.82,2.12,2.43.67,3.07-7.38,7.71-14.07,13.48-19.61,2.8-2.68,5.85-5.09,9.13-7.15,1.6-1.01,3.24-1.92,4.93-2.78,1.06-.54,2.42-1,2.48-2.34.08-1.84,0-3.69,0-5.53,0-1.62-2.52-1.62-2.52,0Z"/><path class="cls-1" d="M501,108.41l-4.31-8.36c1.9.72,3.36,2.18,4.31,3.97v4.39Z"/><path class="cls-1" d="M502.09,107.77c-1.26-2.44-2.52-4.89-3.78-7.33l-.53-1.03-1.42,1.85c.38.15-.19-.1.18.07.1.05.19.09.29.14.21.11.41.22.61.35.11.07.21.14.31.21l.1.07c-.07-.06-.07-.06,0,0,.18.14.35.3.52.46.15.15.3.3.44.45.09.09.17.19.25.29.16.19-.04-.07.12.15.28.38.52.78.75,1.19l-.17-.63v4.39c0,.66.58,1.29,1.26,1.26s1.26-.55,1.26-1.26v-3.13c0-.41.03-.84,0-1.25-.03-.56-.39-1.07-.7-1.53-.34-.51-.73-1-1.15-1.44-.95-1-2.1-1.72-3.38-2.22-.46-.18-1.05.09-1.32.45-.31.42-.34.93-.1,1.4,1.26,2.44,2.52,4.89,3.78,7.33l.53,1.03c.31.6,1.16.78,1.72.45.61-.36.76-1.11.45-1.72Z"/><path class="cls-1" d="M501,110.11v4.95c-.44.96-.96,1.88-1.54,2.77-1.06,1.63-2.34,3.14-3.67,4.54-.06.07-.13.13-.18.19-1.61,1.68-3.33,3.32-4.32,5.42-.18.39-.34.79-.45,1.2-.76,2.49-.45,5.3.88,7.54.44.75,1.01,1.51.93,2.37-.16,1.56-2.31,2.06-3.78,1.5-.29-.11-.55-.24-.81-.4-1.85-1.06-2.99-3.11-3.55-5.29-.18-.66-.29-1.34-.36-2.01-.53-5.17,1.13-10.5,4.33-14.61,2.66-3.41,6.33-5.98,10.4-7.48.7-.26,1.42-.49,2.14-.68Z"/><path class="cls-1" d="M499.74,110.11v3.56c0,.41.1.98,0,1.38.12-.48-.53.77-.65.99-.41.72-.87,1.41-1.35,2.09-3.09,4.3-8.11,7.34-8.54,13.07-.09,1.2.04,2.43.35,3.59.35,1.31,1.14,2.32,1.66,3.54.45,1.05-.51,1.35-1.43,1.21-1.21-.18-2.26-1.23-2.9-2.21-2.82-4.35-1.65-10.8.58-15.13,2.8-5.44,8.01-9.29,13.88-10.87,1.56-.42.9-2.85-.67-2.43-5.87,1.58-11.21,5.25-14.46,10.42s-4.62,11.76-2.46,17.34c.92,2.36,2.74,4.76,5.36,5.31,2.28.48,5.2-.87,4.75-3.57-.21-1.29-1.17-2.29-1.63-3.49-.61-1.58-.7-3.35-.29-4.99.77-3.03,3.33-5.09,5.35-7.3,1.29-1.41,2.49-2.9,3.51-4.52.6-.96,1.42-2.11,1.47-3.26.06-1.57,0-3.15,0-4.71s-2.52-1.62-2.52,0Z"/><path class="cls-1" d="M364.23,77.75c2.85-1.68,6.47-1.3,9.64-.32,3.16.97,6.19,2.48,9.47,2.93,5.26.72,10.82-1.58,14.03-5.81.79-1.04,1.47-2.28,1.38-3.58-.16-2.44-2.81-3.9-5.2-4.46-5.9-1.37-12.13-.08-17.78,2.11-2.25.88-4.62,2.05-5.67,4.23-.76,1.55-.69,3.48.17,4.98"/><path class="cls-1" d="M364.86,78.84c5.55-3.08,11.8,1.54,17.25,2.59s10.63-.57,14.5-4.17c1.79-1.66,3.66-4.02,3.36-6.62-.28-2.35-2.24-3.91-4.3-4.76-5.4-2.24-12.06-1.18-17.44.54-2.73.87-5.81,1.88-7.88,3.96-2.17,2.19-2.59,5.37-1.16,8.08.75,1.43,2.92.16,2.17-1.27-2.7-5.14,4.68-7.49,8.2-8.55,4.64-1.4,10.3-2.32,14.97-.52,1.95.75,3.65,2.26,2.61,4.46-.91,1.94-2.81,3.55-4.62,4.63-4.27,2.54-8.85,2.34-13.41.75-4.98-1.75-10.43-4.1-15.51-1.29-1.42.79-.15,2.96,1.27,2.17h0Z"/><path class="cls-1" d="M252.6,89.13c-3.47-3.92-6.92-7.96-9.17-12.69-2.25-4.73-3.2-10.29-1.5-15.25.64-1.86,1.63-3.58,2.18-5.46,1.18-4.01.28-8.31-.71-12.37-1.06-4.37-2.21-8.75-4-12.88-1.42-3.26-3.84-6.74-7.39-6.9-3.22-.14-5.96,2.73-6.76,5.85s-.14,6.42.58,9.56c2.09,9.13,4.65,18.14,7.67,27.01.77,2.27,1.58,4.55,2.79,6.63,2.12,3.65,5.47,6.57,9.37,8.18"/><path class="cls-1" d="M253.49,88.24c-6.09-6.89-13.31-15.81-10.65-25.7.64-2.39,2-4.52,2.61-6.92s.56-4.92.22-7.38c-.7-5.07-2.13-10.25-3.85-15.06-1.33-3.72-3.11-8.18-6.86-10.07s-7.74,0-9.8,3.37c-2.56,4.18-1.36,9.35-.32,13.81,1.21,5.19,2.57,10.34,4.08,15.45.87,2.94,1.79,5.87,2.75,8.78.87,2.63,1.73,5.3,3,7.77,2.2,4.3,5.92,7.73,10.35,9.62,1.47.63,2.76-1.54,1.27-2.17-3.71-1.58-6.88-4.23-8.92-7.73-2.38-4.09-3.59-8.97-4.98-13.46s-2.79-9.44-3.99-14.22c-.59-2.33-1.16-4.66-1.66-7.01s-.9-4.91-.33-7.32c.85-3.6,4.64-6.74,8.15-4.19s4.71,7.38,5.85,11.14c1.35,4.47,2.85,9.32,3,14.01.08,2.45-.46,4.65-1.43,6.89-.89,2.03-1.69,4.01-1.98,6.22-1.38,10.23,5.38,18.79,11.73,25.96,1.07,1.21,2.85-.57,1.78-1.78h0Z"/><path class="cls-1" d="M95.06,286.58c1.61-6.98,5.8-13.33,11.59-17.55,2.21-1.61,4.69-2.94,7.39-3.36,2.7-.42,5.64.15,7.69,1.97,2.5,2.21,3.26,5.77,3.47,9.1.21,3.33.02,6.76,1.17,9.89,2.17,5.9,9.46,9.33,15.39,7.24,1.98-.7,4.21-1.9,6-.79,1.76,1.09,1.67,3.87.32,5.44s-3.46,2.2-5.47,2.67c-4.71,1.09-9.57,1.7-14.39,1.25-4.11-.38-8.27-1.59-11.43-4.24-4.96-4.14-6.68-11.08-6.6-17.54.03-2.42.29-4.91,1.4-7.07s3.23-3.92,5.65-4.04,4.93,1.82,4.92,4.24"/><path class="cls-1" d="M96.27,286.92c1.16-4.87,3.51-9.4,6.91-13.1s8.33-7.57,13.6-6.98c5.82.66,7.03,6.35,7.23,11.26s.46,9.95,4.24,13.62c2.94,2.85,7.18,4.41,11.27,3.93,1.08-.13,2.11-.4,3.13-.78,1.1-.41,2.48-1.15,3.69-.98,1.07.15,1.54,1.02,1.47,2.03-.08,1.21-.83,2.1-1.84,2.73-2.26,1.41-5.41,1.76-7.99,2.16-3.07.48-6.2.65-9.3.41-5.17-.4-10.45-2.25-13.56-6.63-3.08-4.34-3.95-10.01-3.66-15.22.16-2.84.89-5.98,3.37-7.69,2.07-1.43,5.91-.98,6.05,2.11.07,1.61,2.59,1.62,2.52,0-.12-2.68-2.18-4.89-4.81-5.39s-5.22.79-6.9,2.77c-1.94,2.29-2.58,5.27-2.74,8.19s.07,5.89.71,8.74c1.22,5.4,4.21,10.35,9.2,13,5.85,3.12,12.92,3.14,19.31,2.2,2.99-.44,6.44-.89,9.07-2.49,2.19-1.33,3.63-3.86,2.91-6.44-.77-2.75-3.58-3.39-6.05-2.69-1.34.38-2.58,1.03-3.95,1.33-1.16.25-2.39.28-3.56.12-2.44-.34-4.79-1.48-6.56-3.19-2.15-2.09-3.05-4.79-3.31-7.73-.49-5.52.26-12.3-4.81-16.03-5.87-4.32-13.37-.6-18.13,3.55s-8.42,10.17-9.93,16.52c-.37,1.57,2.05,2.25,2.43.67h0Z"/><path class="cls-1" d="M17.79,454.9c-.28,2.12-.68,4.17-2.2,5.58-1.76,1.63-4.38,1.74-6.78,1.94-2.39.2-5.08.76-6.31,2.83-.05.08-.1.17-.14.26-.1.18-.18.38-.24.58-.22.59-.32,1.22-.39,1.84-.41,3.71.54,7.56,2.62,10.67.11.16.22.32.33.47.64.89,1.39,1.76,2.06,2.66,1.14,1.51,2.06,3.09,1.9,4.92-.05.67-.28,1.34-.74,1.83-.49.52-1.21.78-1.92.87-2.35.32-4.69-1-6.18-2.85-.78-.96-1.36-2.05-1.81-3.19v-17.16c.62-.86,1.37-1.6,2.26-2.17,2.15-1.38,4.83-1.63,7.39-1.84,1.84-.15,3.69-.3,5.52-.45l4.64-6.77Z"/><path class="cls-1" d="M16.57,454.57c-.27,2.02-.61,4.34-2.51,5.49-1.8,1.09-4.1.95-6.12,1.2-1.8.22-3.64.64-5.11,1.77-1.64,1.27-2.2,3.11-2.4,5.1-.44,4.37.99,8.78,3.63,12.23,1.27,1.67,3.34,3.6,3.32,5.86-.03,2.89-3.72,1.9-5.22.81-1.16-.83-2.57-2.48-2.93-3.86-.14-.53,0-1.28,0-1.81v-13.98c0-.3-.13-.96,0-1.24-.3.64.44-.06.39-.03.19-.12.38-.39.57-.55.42-.36.89-.66,1.39-.92.98-.5,2.07-.76,3.14-.95,2.62-.45,5.33-.5,7.98-.74,1.35-.12,1.68-.86,2.38-1.87l3.8-5.55c.92-1.34-1.26-2.6-2.17-1.27l-4.64,6.77,1.09-.62c-4.12.34-8.87.14-12.67,1.98-1.32.64-3.58,2.14-3.76,3.75-.04.34,0,.71,0,1.05v13.19c0,1.31-.2,2.71.33,3.93,1.54,3.55,4.93,6.82,9.09,6.26,1.88-.25,3.35-1.45,3.67-3.37.35-2.03-.47-3.96-1.62-5.6s-2.64-3.22-3.62-5.08-1.57-4-1.67-6.12,0-4.72,2.18-5.84c1.79-.92,3.9-.85,5.84-1.08,2.07-.24,4.17-.73,5.69-2.26,1.6-1.6,2.09-3.83,2.38-5.99.21-1.58-2.21-2.27-2.43-.67Z"/><path class="cls-1" d="M27.07,441.34l-9.28,13.56c.14-1.11.25-2.25.47-3.32.92-4.61,4.38-8.63,8.81-10.24Z"/><path class="cls-1" d="M25.98,440.71c-2.71,3.96-5.42,7.92-8.13,11.88l-1.15,1.68,2.34.63c.19-1.52.35-3.05.83-4.52.39-1.19.99-2.29,1.7-3.31,1.43-2.02,3.5-3.65,5.82-4.51.64-.24,1.07-.85.88-1.55-.17-.61-.91-1.12-1.55-.88-2.92,1.09-5.38,2.99-7.21,5.51-.88,1.21-1.56,2.57-2.04,3.98-.58,1.7-.73,3.51-.95,5.28-.07.54.44,1.08.92,1.21.56.15,1.1-.11,1.42-.58,2.71-3.96,5.42-7.92,8.13-11.88l1.15-1.68c.38-.56.11-1.4-.45-1.72-.62-.36-1.34-.11-1.72.45Z"/></g></svg>