<?xml version="1.0" encoding="UTF-8"?><svg id="Layer_4" xmlns="http://www.w3.org/2000/svg" viewBox="0 0 500 500"><defs><style>.cls-1{fill:#20090c;}.cls-2{fill:#f5d4a9;}</style></defs><rect class="cls-2" x="-3.95" y="-3.95" width="507.9" height="507.9"/><path class="cls-1" d="M100.32,261.67c4.67-2.82,6.59-8.7,6.77-14.15s-.99-10.88-.8-16.33c.54-15.72,13.91-29.98,29.56-31.52,6.83-.68,13.68.8,20.39,2.27,1.36.3,2.81.65,3.7,1.72.67.81.9,1.89,1.06,2.93,2.64,16.84-4.84,33.55-5.95,50.57-.5,7.61.28,15.4-1.66,22.78-1.36,5.18-4,9.91-6.61,14.59-5.78,10.34-11.57,20.69-17.35,31.03-1.56,2.79-4.3,6.05-7.27,4.86-1.57-.63-2.41-2.3-3.12-3.84-6.11-13.35-12.21-26.69-18.32-40.04-3.44-7.53-6.9-16.33-3.24-23.76,3.07-6.23,10.71-10.3,11.06-17.23"/><path class="cls-1" d="M100.96,262.76c3.87-2.42,6.05-6.59,6.91-10.97,1.09-5.57.05-11.18-.26-16.76-.26-4.79.33-9.42,2.13-13.88,1.65-4.07,4.19-7.79,7.28-10.9s6.89-5.73,11.03-7.37c4.79-1.9,9.83-2.38,14.94-1.96,3.08.25,6.12.81,9.14,1.43,1.38.28,2.76.57,4.13.89,1.25.29,2.55.63,3.08,1.92.49,1.2.57,2.64.69,3.91.15,1.5.23,3,.24,4.51.03,2.78-.16,5.56-.49,8.33-1.36,11.55-5.04,22.72-5.95,34.34-.46,5.83-.08,11.69-.66,17.51s-2.71,11.28-5.51,16.5c-5.87,10.93-12.09,21.67-18.15,32.5-1.2,2.15-2.38,4.78-4.57,6.13-2.4,1.48-3.84-.83-4.76-2.79-2.6-5.58-5.13-11.21-7.69-16.81s-5.22-11.4-7.82-17.09c-2.42-5.29-5.16-10.57-6.64-16.23-1.33-5.08-1.26-10.28,1.81-14.72,2.43-3.51,5.87-6.22,8.08-9.9,1.07-1.78,1.72-3.72,1.86-5.8.11-1.63-2.43-1.62-2.54,0-.31,4.56-4.09,7.87-6.92,11.07-3.42,3.87-5.75,8.09-5.7,13.39.05,5.67,2.25,11.1,4.53,16.19,2.65,5.89,5.37,11.75,8.06,17.62s5.49,12,8.23,17.99c1.19,2.61,2.16,5.66,3.92,7.95,1.4,1.82,3.61,2.65,5.81,1.82s3.78-2.84,4.96-4.77c1.67-2.73,3.14-5.59,4.7-8.38,3.21-5.75,6.43-11.49,9.64-17.24,3.04-5.43,6.35-10.8,8.67-16.58s2.79-11.59,2.91-17.61.27-12.4,1.32-18.59,2.47-12.03,3.62-18.06,1.96-11.73,1.8-17.67c-.07-2.67-.09-5.82-1.06-8.35-1.02-2.66-3.6-3.27-6.12-3.82-6.16-1.34-12.49-2.64-18.83-2.19-4.75.34-9.35,1.73-13.51,4.03-8.04,4.45-14.33,12.11-16.97,20.93-1.59,5.3-1.39,10.63-.9,16.08s1.02,11.06-1.35,16.07c-.99,2.1-2.41,3.91-4.39,5.15-1.38.86-.11,3.06,1.28,2.19h0Z"/><path class="cls-1" d="M239.89,503.95H-3.95v-175.29c1.96-.84,4.18-1.25,6.47-1.28,5.49-.04,11.36,2.2,14.99,6.37,7.36,8.46,8.06,20.65,8.39,31.85,0,.28.02.55.02.83.19,7.31,0,15.21-4.72,20.73-1.79,2.09-4.1,3.65-6.33,5.29-1.3.95-2.58,1.92-3.72,3.04-2.62,2.56-4.34,5.9-5.14,9.46-.79,3.56-.64,7.34.49,10.79.51,1.56,1.23,3.06,2.16,4.43,7.02-6.92,14.03-13.83,21.06-20.74,10.76-10.61,22.92-21.86,38.01-22.76,10.71-.64,20.75,4.11,31.07,7.42,1.1.36,2.2.69,3.31,1,2.78.79,5.58,1.41,8.42,1.75,17.55,2.09,36.15-6.67,52.91-4.09,1.44.22,2.87.52,4.27.94,1.67.47,3.31,1.08,4.93,1.85,2.34,1.11,4.6,2.62,5.93,4.85.69,1.18,1.08,2.43,1.26,3.74.25,1.73.19,3.56.08,5.4-.11,1.93-.25,3.87-.09,5.75.03.39.09.78.19,1.16.41,1.74,1.39,3.42,2.63,4.7,2.1,2.14,4.95,3.11,7.09,1.11,1.28,2.86,1.47,5.96,1.15,9.16,0,.02,0,.03,0,.03-.04.49-.11.99-.18,1.48-.03.23-.07.46-.11.69-.47,2.88-1.25,5.82-1.95,8.69-.08.32-.16.65-.24.97-.14.55-.25,1.1-.38,1.64-1.19,5.47-1.63,10.62,1.48,14.75.2.28.43.55.67.82,2.95,3.29,7.67,4.5,10.76,7.66,9.5,9.68-1.44,30.12,9.68,37.88,6.51,4.55,15.36.58,22.24-3.43,3.19,3.17,5.61,7.09,7.08,11.35Z"/><path class="cls-1" d="M239.89,502.68H5.99c-3.14,0-6.39-.23-9.53,0-.14,0-.28,0-.41,0l1.27,1.27v-168.14c0-2.24.24-4.63,0-6.86-.01-.1,0-.2,0-.29l-.93,1.22c7-2.86,15.78-.6,20.6,5.21s6.42,13.36,7.1,20.6c.36,3.76.48,7.55.57,11.33s.08,7.43-.67,11.06-2.37,7.13-5.21,9.73-6.68,4.61-9.38,7.66c-6.08,6.85-6.89,17.68-1.85,25.33.45.68,1.39.86,1.99.26,5.85-5.76,11.7-11.53,17.55-17.28,4.95-4.87,9.84-9.82,15.22-14.21,5.05-4.13,10.65-7.85,16.88-9.93,6.77-2.26,13.72-2.11,20.6-.41,7.48,1.84,14.55,5,21.96,7.08s14.28,2.49,21.64,1.72,14.06-2.28,21.1-3.38c6.89-1.08,14.1-1.78,20.97-.23,3.74.85,8,2.25,10.76,5.04,3.05,3.09,2.51,7.55,2.3,11.52-.11,2.05-.24,4.2.33,6.2.53,1.81,1.53,3.51,2.86,4.86,2.45,2.5,6.03,3.56,8.88,1.11l-1.99-.26c1.9,4.45,1.03,9.49,0,14.04s-2.47,9.01-2.74,13.67c-.25,4.24.88,8.48,4.04,11.47s7.2,4.04,10.1,6.99c4.61,4.69,4,12.25,3.87,18.29s-.43,13.15,3.92,17.94c7.03,7.73,18.25,2.71,25.66-1.58l-1.54-.2c3.03,3.06,5.32,6.73,6.75,10.79.54,1.53,2.99.87,2.45-.68-1.58-4.48-4.06-8.53-7.4-11.91-.4-.4-1.05-.48-1.54-.2-6.28,3.64-16.2,8.66-22.4,2.18-4.21-4.41-3.47-11.7-3.34-17.28.13-6.05.31-12.91-3.59-17.94-2.4-3.09-5.99-4.55-9.17-6.66-3.73-2.47-5.43-6.16-5.29-10.6.31-9.92,6.63-19.74,2.42-29.6-.35-.81-1.45-.73-1.99-.26-2.92,2.52-6.51-1.94-7.37-4.45-1.23-3.59.01-7.74-.23-11.45-.22-3.36-1.42-6.37-4.05-8.56s-5.91-3.5-9.13-4.43c-13.82-3.96-28.28.92-42.04,2.72-7.48.98-14.84.97-22.17-.95s-14.3-5-21.61-7c-6.78-1.86-13.79-2.57-20.69-.91-6.28,1.51-12.04,4.71-17.22,8.5-6.11,4.48-11.51,9.79-16.9,15.09-6.56,6.45-13.11,12.9-19.66,19.36l1.99.26c-4.79-7.27-3.68-17.66,2.77-23.59,3.14-2.89,7.1-4.84,9.83-8.18,2.33-2.86,3.66-6.35,4.28-9.96s.65-7.57.57-11.37-.24-7.83-.65-11.73c-.79-7.45-2.62-14.98-7.38-20.95-5.33-6.7-15.44-9.58-23.44-6.31-.53.22-.93.62-.93,1.22v168.14c0,2.28-.07,4.58,0,6.86,0,.1,0,.19,0,.29,0,.69.58,1.27,1.27,1.27h233.9c3.17,0,6.35.06,9.53,0,.14,0,.27,0,.41,0,1.63,0,1.64-2.54,0-2.54Z"/><path class="cls-1" d="M248.81,27.55c-6.65,5.56-13.54,11.26-21.86,13.68-8.31,2.42-18.5.67-23.47-6.42-1.87,4.65-8.46,4.94-13.16,3.22-4.71-1.72-9.37-4.7-14.31-3.87-7.42,1.25-10.76,10.41-9.92,17.89s4.31,14.58,4.42,22.1c.25,18.32-18.13,30.42-33.66,40.16-15.52,9.73-32.24,25.92-26.59,43.35-25.51-5.26-52.08-5.32-77.62-.2-3.09-20.08-14.22-38.81-30.37-51.14-2.03-1.54-4.13-3.01-6.21-4.49V-3.95h246.35c.22.62.41,1.25.55,1.9,2.33,10.22-2.9,23.84,5.87,29.59Z"/><path class="cls-1" d="M247.92,26.65c-9.78,8.18-22.04,17.83-35.6,13.13-3.07-1.06-5.84-2.96-7.74-5.61-.49-.68-1.78-.96-2.19,0-2.4,5.57-10.07,3.41-14.25,1.63-3.21-1.37-6.48-2.93-10.03-3.04-2.8-.09-5.48.86-7.63,2.64-4.03,3.33-5.72,9.02-5.79,14.08-.09,7.2,3.18,13.96,4.24,20.99.9,5.97-.31,11.91-3.27,17.15s-6.86,9.15-11.19,12.83c-9.48,8.05-20.85,13.44-30.24,21.6-10.15,8.82-19.65,21.86-15.19,35.96l1.56-1.56c-20.08-4.11-40.77-5.11-61.15-2.86-5.75.64-11.47,1.52-17.14,2.65l1.56.89c-2.74-17.51-11.45-33.99-24.28-46.21-3.99-3.8-8.42-6.98-12.89-10.18l.63,1.1v-35.8c0-10.19,0-20.38,0-30.57V.39c0-1.31.23-2.86,0-4.16-.01-.06,0-.13,0-.19l-1.27,1.27h236.34c3.18,0,6.43.2,9.6,0,.13,0,.27,0,.41,0l-1.22-.93c1.98,5.76.93,12.07,1.03,18.04.08,5.46,1.17,10.97,5.97,14.22,1.36.92,2.63-1.28,1.28-2.19-4.49-3.04-4.77-8.77-4.72-13.7.06-5.65.76-11.59-1.11-17.04-.18-.53-.64-.93-1.22-.93H6.06c-3.2,0-6.4-.06-9.6,0-.14,0-.27,0-.41,0-.69,0-1.27.58-1.27,1.27v100.77c0,1.63-.17,3.36,0,4.99.07.62.33.89.82,1.26,1.35.99,2.74,1.94,4.1,2.93,2.2,1.6,4.33,3.29,6.36,5.11,3.87,3.47,7.41,7.32,10.51,11.49,6.16,8.28,10.73,17.71,13.3,27.7.64,2.47,1.15,4.98,1.54,7.5.11.71.95,1.01,1.56.89,19.72-3.93,40.02-4.77,60-2.5,5.68.64,11.33,1.56,16.94,2.71.9.18,1.87-.58,1.56-1.56-3.95-12.52,4.21-24.07,13.05-32.16s20.42-13.78,30.04-21.53c8.64-6.96,16.57-16.14,17.17-27.74.37-7.27-2.56-14.05-3.94-21.06-1.05-5.36-.73-11.48,2.79-15.94,1.85-2.34,4.51-3.7,7.52-3.61,4.06.13,7.76,2.41,11.47,3.81,4.88,1.84,12.56,2.01,15-3.66h-2.19c3.8,5.29,10.04,7.84,16.42,8.06,7.39.26,14.32-2.79,20.35-6.85,3.7-2.49,7.14-5.35,10.56-8.22,1.25-1.05-.55-2.84-1.8-1.8Z"/><path class="cls-1" d="M456.26,175.11c-.12,5.05,3.51,9.29,5.29,14.02,4.07,10.82-1.81,22.48-5.12,33.56-3.32,11.07-1.86,26.39,9.2,29.74.28-8.46,6.51-16.4,14.67-18.7-1.44-3.31-2.9-7.01-1.73-10.42s6.42-5.27,8.41-2.26c.68-8.21,3.94-16.19,9.2-22.54,3.21,1.64,5.75,3.99,7.76,6.8v116.75c-5.6-1.47-11.22-2.95-16.82-4.42-1.77,3.25-3.53,6.49-5.3,9.73-7.75.12-15.52-2.83-21.24-8.07-2.67,1.7-4.67,4.44-5.47,7.52-3.1-8.88-10.03-16.35-18.66-20.1-5.66,3.12-5.24,11.61-2.18,17.3,3.06,5.7,7.97,10.58,9.23,16.91,1.02,5.17-.54,10.67,1.02,15.71,1.1,3.54,3.67,6.48,4.85,10.01,1.68,4.95.44,10.37-.8,15.45-3.78,15.5-7.57,31-11.34,46.5-3.02,12.39-6.81,25.92-17.38,33.06-10.36,7-24.02,5.68-36.18,8.57-12.16,2.89-24.68,15.21-19.01,26.35,8.57.06,17.14-.78,25.53-2.51,6.41.54,12.3,4.47,15.69,9.9h-70.97c1.8-10.06,2.74-20.23.57-30.13-3.01-13.64-13.65-26.64-27.58-27.65-7.22-.52-14.29,2.14-21.52,2.49-7.23.35-15.74-2.9-17.25-9.98-.73-3.39.35-6.87.91-10.3,2.62-15.8-5.44-31.1-9.79-46.51-3.6-12.77-4.72-26.31-10.03-38.47-5.31-12.17-16.5-23.23-29.76-22.79-1.24,2.23-2.48,4.44-3.72,6.67-7.99-2.2-12.27-10.67-15.52-18.29-11.69-27.49-22.47-57.85-14.48-86.63,2.48-8.94,6.72-17.37,8.52-26.47,4.86-24.52-8.01-52.53,5.29-73.7-.74,6.42,4.27,12.95,10.66,13.92,6.39.97,13.1-3.79,14.31-10.14,10.64,3.99,23.78-.37,29.92-9.94.52,8.59,14.26,8.15,20.26,1.97,5.99-6.17,9.7-15.43,17.9-18.05.09,5,2.89,9.53,5.97,13.48,6.14,7.87,14.55,14.95,24.51,15.57,9.96.62,20.65-7.99,18.98-17.83-6.26-.35-12.45-1.74-18.24-4.11,3.5-.47,7.01-.94,10.51-1.41-7.17-10.29-14.34-20.6-21.51-30.9,5.85,3.62,14.06,2.86,19.15-1.76,5.09-4.63,6.61-12.73,3.56-18.89-2.65-5.34-8.22-9.1-9.73-14.87-2.05-7.81,4.18-15.96,2.35-23.83-1.57-6.72-8.5-13.91-6.24-19.33h89.34s.03,0,.04.02c18.83,6.98,37.64,13.95,56.47,20.93,4.73-5.79,11.1-10.23,18.16-12.67.6-2.89,1.62-5.67,3.01-8.27h14.04v174.53c-.42-.19-.86-.35-1.32-.47-4.53-1.3-10.46,1.48-10.52,6.19-.38-6.56-3.72-12.88-8.92-16.9-1.44,5.12-10.09,5.71-12.21.83-2.77,2.73-4.49,6.52-4.73,10.4-2.1-4.59-9.85-.56-9.98,4.49Z"/><path class="cls-1" d="M454.99,175.11c-.03,6.37,4.86,11.22,6.19,17.25,1.46,6.63-.54,13.49-2.6,19.77-1.84,5.6-4.06,11.1-4.74,17-.55,4.72-.3,9.74,1.34,14.24,1.75,4.82,5.13,8.71,10.11,10.27.82.26,1.57-.43,1.61-1.22.34-7.98,6.08-15.24,13.74-17.47.86-.25,1.08-1.12.76-1.87-1.25-2.9-3.3-7.47-1.07-10.4,1.11-1.46,4.18-2.92,5.56-1,.75,1.04,2.25.65,2.37-.64.69-7.9,3.8-15.51,8.83-21.64l-1.54.2c2.18,1.14,4.1,2.61,5.76,4.43.35.39.65.85,1.03,1.21.12.12.5.58.35.06,0,.03,0,.07,0,.1.09.45,0,1,0,1.46v110.12c0,1.55-.24,3.31,0,4.84.01.07,0,.15,0,.21l1.61-1.22c-5.61-1.47-11.21-2.95-16.82-4.42-.53-.14-1.16.09-1.43.58-1.77,3.25-3.53,6.49-5.3,9.73l1.1-.63c-7.48.06-14.79-2.68-20.34-7.7-.4-.36-1.06-.52-1.54-.2-2.97,1.96-5.1,4.84-6.05,8.28h2.45c-2.85-8.01-8.51-14.91-15.89-19.17-.87-.5-1.76-.96-2.67-1.39-1.13-.52-1.71-.55-2.75.18-1.38.98-2.46,2.3-3.15,3.84-1.47,3.28-1.32,7.12-.38,10.53,2.35,8.49,10.6,14.17,11.06,23.36.25,5.02-.69,10.05,1.36,14.83.92,2.14,2.23,4.08,3.28,6.16,1.16,2.29,1.71,4.7,1.7,7.27-.03,5.23-1.75,10.44-2.98,15.48-1.34,5.49-2.68,10.98-4.02,16.47-2.5,10.24-4.77,20.56-7.57,30.72-2.2,7.96-5.11,16.22-10.96,22.28-6.4,6.63-15.35,8.52-24.17,9.6-8.75,1.08-17.75,1.59-25.39,6.45-6.21,3.96-12.42,10.81-11.79,18.71.15,1.91.7,3.7,1.54,5.41.19.39.67.63,1.1.63,8.04.04,16.07-.68,23.97-2.18.94-.18,1.77-.34,2.72-.19.74.12,1.48.29,2.2.51,1.58.46,3.09,1.14,4.5,2,2.73,1.65,5.02,3.94,6.73,6.63l1.1-1.91h-70.97l1.22,1.61c1.75-9.84,2.74-19.97.76-29.86-1.51-7.55-5.12-14.76-10.47-20.32-5.18-5.4-12.12-9.05-19.69-9.26-8.85-.25-17.65,4.11-26.46,1.97-3.2-.78-6.5-2.33-8.45-5.09-2.8-3.96-1.29-8.64-.57-13.01,1.53-9.26-.48-18.5-3.27-27.32-2.88-9.11-6.29-17.99-8.38-27.34s-3.51-18.72-6.83-27.65c-2.78-7.48-7.03-14.47-13.15-19.68-2.91-2.48-6.17-4.51-9.76-5.84-1.72-.63-3.49-1.07-5.31-1.32-1.51-.21-4.39-.9-5.33.61-1.3,2.09-2.41,4.32-3.61,6.46l1.43-.58c-5.87-1.69-9.52-6.93-12.18-12.11-3.2-6.22-5.7-12.88-8.2-19.41-5.43-14.15-10.02-28.9-11.18-44.09-.57-7.49-.29-15.07,1.17-22.45s4.31-14.23,6.78-21.27c2.33-6.65,3.84-13.38,4.13-20.43.28-6.85-.32-13.7-.93-20.52-1.29-14.38-3.03-30.07,4.96-42.95l-2.37-.64c-.7,7.12,4.81,14.23,11.93,15.2s14.11-4.18,15.53-11.07l-1.56.89c11.3,4.13,24.8-.49,31.35-10.52l-2.37-.64c.52,6.84,7.71,8.54,13.43,7.47,3.16-.59,6.27-2.01,8.62-4.23,2.92-2.76,5.13-6.26,7.52-9.46,2.7-3.59,5.8-7.17,10.19-8.63l-1.61-1.22c.2,5.87,3.49,10.87,7.07,15.29s7.45,8.12,12.14,10.94c4.32,2.6,9.48,4.38,14.58,4.08,4.79-.28,9.44-2.34,12.96-5.59,3.87-3.58,6.02-8.57,5.2-13.84-.09-.57-.71-.9-1.22-.93-6.16-.37-12.19-1.76-17.9-4.07v2.45c3.5-.47,7.01-.94,10.51-1.41.79-.11,1.19-1.25.76-1.87-7.17-10.3-14.34-20.6-21.51-30.9l-1.74,1.74c5.86,3.53,13.78,3.23,19.31-.84s7.97-11.45,6.39-18.08c-.81-3.39-2.81-6.2-4.98-8.86s-4.69-5.3-5.73-8.65c-2.26-7.31,3.05-14.55,2.55-21.92-.27-4.01-2.27-7.57-4.09-11.05-1.53-2.92-3.81-6.65-2.5-10.03l-1.22.93h71.92c5.65,0,11.3.08,16.94,0,.14,0,.29-.01.43,0,.19.02-.59-.31-.02.06.45.29,1.13.42,1.63.61.78.29,1.56.58,2.33.86,4.98,1.84,9.96,3.69,14.93,5.53,9.96,3.69,19.91,7.38,29.87,11.07,2.49.92,4.98,1.84,7.47,2.77.39.14.97,0,1.24-.33,3.32-4.02,7.35-7.37,11.94-9.85,1.08-.58,2.18-1.12,3.3-1.59.94-.4,2.71-.65,3.18-1.64.29-.6.35-1.44.53-2.08s.37-1.27.59-1.9c.5-1.43,1.11-2.8,1.82-4.14l-1.1.63h14.04l-1.27-1.27v167.41c0,2.23-.24,4.61,0,6.83.01.1,0,.2,0,.29l1.61-1.22c-5.3-2.19-13.19.43-13.45,6.94h2.54c-.46-6.94-3.82-13.49-9.29-17.8-.74-.59-1.82-.43-2.12.56-1.29,4.17-8.11,4.35-9.89.53-.35-.75-1.46-.8-1.99-.26-3.02,3.06-4.78,7.02-5.1,11.3l2.37-.64c-1.4-2.82-4.6-3.12-7.23-1.93-2.79,1.26-4.96,3.95-5.12,7.06-.09,1.63,2.45,1.63,2.54,0,.11-2.03,1.64-3.74,3.39-4.64,1.54-.79,3.37-.94,4.23.8.6,1.22,2.28.51,2.37-.64.27-3.6,1.83-6.94,4.36-9.51l-1.99-.26c2.76,5.93,12.65,4.98,14.54-1.13l-2.12.56c4.95,3.9,8.13,9.7,8.55,16.01.11,1.62,2.47,1.65,2.54,0,.08-2.13,1.64-3.69,3.5-4.52,2.2-.98,4.54-.87,6.73.03.78.32,1.61-.48,1.61-1.22V3.17c0-2.27.07-4.56,0-6.83,0-.1,0-.2,0-.29,0-.69-.58-1.27-1.27-1.27h-14.04c-.43,0-.89.24-1.1.63-1.42,2.71-2.49,5.58-3.13,8.57l.89-.89c-7.29,2.57-13.79,7.03-18.72,13l1.24-.33c-10.03-3.72-20.07-7.44-30.1-11.15-5.06-1.87-10.11-3.75-15.17-5.62-2.49-.92-4.98-1.84-7.47-2.77-1.29-.48-2.78-1.31-4.15-1.45s-2.77,0-4.13,0h-9.94c-9.77,0-19.55,0-29.32,0h-29.89c-5.25,0-10.54-.19-15.79,0-.08,0-.16,0-.23,0-.61,0-1.02.4-1.22.93-1.05,2.72-.2,5.62.9,8.19,1.36,3.16,3.27,6.07,4.53,9.28s1.27,6.64.49,10.12-2,6.96-2.38,10.57c-.36,3.39.3,6.66,2.03,9.6s4.05,5.21,6.03,7.85,3.41,5.66,3.53,9.07c.11,3.22-.76,6.42-2.53,9.12-4.22,6.4-13.37,8.01-19.82,4.13-1.04-.63-2.48.67-1.74,1.74,7.17,10.3,14.34,20.6,21.51,30.9l.76-1.87c-3.5.47-7.01.94-10.51,1.41-1.4.19-.99,2.05,0,2.45,5.93,2.4,12.2,3.78,18.58,4.16l-1.22-.93c1.33,8.56-7.39,15.48-15.2,16.18-9.57.86-18.13-5.78-24.05-12.59-3.68-4.23-7.51-9.31-7.71-15.15-.03-.78-.8-1.49-1.61-1.22-7.37,2.45-11.21,9.45-15.73,15.21-2,2.55-4.1,4.82-7.14,6.09-2.59,1.09-5.65,1.61-8.43,1.08s-5.02-2.14-5.25-5.08c-.1-1.25-1.65-1.73-2.37-.64-5.96,9.14-18.28,13.09-28.48,9.35-.62-.23-1.43.26-1.56.89-1.17,5.64-6.92,10.07-12.75,9.25s-10.3-6.82-9.73-12.7c.13-1.32-1.75-1.63-2.37-.64-7.21,11.62-6.88,25.55-5.79,38.69.58,6.98,1.36,13.96,1.47,20.98s-.71,14.25-2.87,21.17c-2.3,7.33-5.49,14.37-7.32,21.85s-2.45,15.04-2.16,22.64c.6,15.5,4.88,30.63,10.24,45.1,2.6,7.01,5.34,14.02,8.49,20.8,2.49,5.36,5.71,10.95,10.94,14.05,1.24.73,2.57,1.29,3.95,1.69.53.15,1.16-.1,1.43-.58,1.24-2.22,2.48-4.45,3.72-6.67l-1.1.63c7.38-.19,14.1,3.31,19.29,8.38,5.72,5.59,9.37,12.68,11.77,20.23,2.73,8.57,4.06,17.49,6.11,26.23s5.42,17.32,8.13,26,4.54,17.38,2.9,26.26c-.77,4.16-1.8,8.41.07,12.44,1.33,2.86,3.88,5.01,6.68,6.35,3,1.44,6.34,2.15,9.67,2.19,4.41.05,8.78-1.01,13.09-1.76s8.51-1.23,12.72-.32c3.43.74,6.62,2.25,9.47,4.29,5.87,4.19,10.17,10.57,12.55,17.33,3.02,8.55,2.97,17.89,1.9,26.79-.3,2.46-.69,4.9-1.12,7.34-.14.8.34,1.61,1.22,1.61h70.97c.94,0,1.62-1.09,1.1-1.91-3.49-5.5-9.71-10.12-16.41-10.5-1.03-.06-2.08.29-3.09.48-.95.18-1.91.34-2.87.5-2.28.37-4.57.67-6.87.9-4.34.44-8.71.63-13.07.61l1.1.63c-3.18-6.45.5-13.18,5.34-17.6,2.65-2.42,5.8-4.38,9.13-5.7,3.57-1.41,7.43-2.01,11.21-2.52,7.74-1.04,15.79-1.39,23.13-4.3,6.85-2.72,12.15-7.65,15.81-14.01s5.68-13.36,7.45-20.36c2.32-9.22,4.51-18.47,6.76-27.7,1.14-4.68,2.29-9.36,3.43-14.05s2.44-9.07,3.1-13.69c.61-4.27.32-8.37-1.62-12.27-.89-1.79-1.99-3.47-2.88-5.26-.97-1.97-1.44-4.05-1.54-6.24-.2-4.34.53-8.72-.68-12.97-1.06-3.73-3.25-6.98-5.41-10.15-1.99-2.92-4.08-5.86-5.04-9.3-.79-2.86-1.03-6.23.31-8.97.63-1.3,1.59-2.3,2.84-3.03h-1.28c8.36,3.69,15.01,10.72,18.07,19.35.4,1.14,2.1,1.27,2.45,0,.77-2.79,2.47-5.17,4.88-6.76l-1.54-.2c6.05,5.46,13.98,8.51,22.14,8.44.44,0,.88-.24,1.1-.63,1.77-3.24,3.53-6.49,5.3-9.73l-1.43.58c5.61,1.47,11.21,2.95,16.82,4.42.8.21,1.61-.39,1.61-1.22v-114.41c0-.66.02-1.32,0-1.97-.04-1.63-1.72-3.06-2.8-4.15-1.64-1.65-3.53-3.03-5.59-4.11-.46-.24-1.18-.24-1.54.2-5.49,6.69-8.82,14.82-9.57,23.44l2.37-.64c-2.27-3.15-6.7-2.45-9.19.09-3.75,3.82-1.49,9.71.31,13.88l.76-1.87c-8.77,2.56-15.21,10.81-15.6,19.92l1.61-1.22c-9.04-2.84-10.52-13.97-9.59-22.06.65-5.64,2.89-10.97,4.65-16.33,1.97-5.98,3.75-12.34,3-18.69-.41-3.47-1.66-6.57-3.26-9.64s-3.26-5.94-3.24-9.36c0-1.63-2.53-1.64-2.54,0Z"/><path class="cls-1" d="M55.53,247.26c-1.84,3.08-4.4,6.37-3.54,9.85.47,1.92,1.97,3.59,1.94,5.57-.03,1.85-1.39,3.38-2.67,4.72-3.07,3.23-6.15,6.46-9.21,9.69-3.1,3.26-7.72,6.78-11.6,4.52-.46,5.05-2.42,11.59-7.5,11.57-4.09-.02-6.45-4.45-9.47-7.2-4.23-3.85-11.06-4.48-15.93-1.46-.52.33-1.02.69-1.5,1.1v-125.6c1.59-.43,3.27-.5,4.95-.08-1.27,6.29-2.54,12.57-3.81,18.85,6.63.14,14.22.75,18.21,6.04,1.52,2.02,2.31,4.51,3.72,6.62,3.74,5.57,12.12,7.35,17.81,3.78,2.43,7.53,11.46,12.19,19.01,9.81,3.59,14.01,6.97,29.77-.42,42.21Z"/><path class="cls-1" d="M54.43,246.62c-1.89,3.13-4.49,6.54-3.75,10.43.35,1.84,1.78,3.39,1.96,5.24s-1.59,3.5-2.79,4.76c-3.08,3.24-6.09,6.56-9.24,9.71-2.28,2.28-6.09,5.6-9.51,3.76-.9-.49-1.82.14-1.91,1.1-.4,4.16-2.86,13.27-8.84,9.45-2.53-1.62-4.08-4.42-6.37-6.33-2.43-2.02-5.44-3.15-8.58-3.36-3.75-.25-7.35.96-10.24,3.34l2.17.9v-120.45c0-1.58.23-3.37,0-4.94,0-.07,0-.14,0-.21l-.93,1.22c1.44-.36,2.83-.4,4.28-.08l-.89-1.56c-1.27,6.28-2.54,12.57-3.81,18.85-.16.82.36,1.59,1.22,1.61,5.98.14,13.75.43,17.48,5.93,1.93,2.85,2.85,6.21,5.49,8.57,2.17,1.93,4.9,3.18,7.77,3.6,3.33.5,6.74-.08,9.64-1.83l-1.87-.76c2.77,8.22,12.23,13.21,20.57,10.7l-1.56-.89c3.38,13.21,7.05,28.66-.3,41.23-.83,1.41,1.37,2.69,2.19,1.28,7.72-13.21,4.11-29.27.55-43.18-.17-.65-.91-1.08-1.56-.89-6.97,2.1-15.11-1.98-17.45-8.92-.26-.76-1.13-1.2-1.87-.76-4.9,2.97-11.78,1.86-15.48-2.54-2.19-2.6-2.95-6.09-5.31-8.6-2.05-2.19-4.84-3.53-7.71-4.3-3.45-.92-7.06-1.1-10.6-1.18l1.22,1.61c1.27-6.28,2.54-12.57,3.81-18.85.13-.65-.18-1.4-.89-1.56-1.89-.43-3.74-.39-5.63.08-.54.13-.93.68-.93,1.22v110.19c0,5.05-.2,10.15,0,15.2,0,.07,0,.14,0,.21,0,1.18,1.35,1.57,2.17.9,2.68-2.21,6.3-3.06,9.7-2.45s5.89,2.58,8.17,5.16c1.94,2.19,4.08,4.69,7.15,5.14,2.84.42,5.28-.99,6.87-3.27,1.9-2.73,2.58-6.23,2.89-9.48l-1.91,1.1c3.68,1.98,7.51.14,10.48-2.26,1.72-1.38,3.19-3.03,4.7-4.62,1.76-1.86,3.53-3.71,5.29-5.56,1.49-1.57,3.29-3.12,4.26-5.09.89-1.8.73-3.61-.05-5.41-.89-2.03-1.79-3.62-1.12-5.88s2.09-4.08,3.25-6c.85-1.4-1.35-2.68-2.19-1.28Z"/><path class="cls-1" d="M190.43,423.6c-.61,2.98-1.38,5.92-2.31,8.81-1.91.5-3.74,1.27-5.48,2.26-.1.06-.2.12-.3.18-7.34,4.34-12.93,12.63-16.04,20.92-4.57,12.18-6.15,25.7-13.38,36.51-3.11,4.65-7.11,8.52-11.68,11.67H-3.95v-152.58c1.87-8.08,4.02-16.07,6.47-23.99.41-1.32.82-2.64,1.24-3.95,14.12,3.6,22.88,18.91,23.01,33.49.03,3.23-.27,6.41-.85,9.51-1.71,9.19-5.85,17.84-11.06,26.02-2.73,4.28-5.75,8.45-8.86,12.49-2.12,2.76-4.28,5.46-6.42,8.12,1.87,1.84,4.33,2.64,6.92,2.68,3.39.04,6.98-1.26,9.69-3.35,4.79-3.69,7.76-9.19,11.4-14.02,10.41-13.79,27.29-22.47,44.57-22.92,3.49-.09,8.21-.94,8.32-4.43,7.62-.6,11.89,9.72,18.31,13.06,1.04.54,2.13.91,3.31,1,.41.04.85.04,1.29,0,2.64-.2,4.97-1.78,7.51-2.55,8.12-2.45,16.69,3.57,25.07,2.28,5.33-.83,9.79-4.49,14.94-6.1,4.58-1.42,10.81-.08,12.52,4.03.22.5.36,1.05.42,1.64,1.29-.24,2.56-.47,3.85-.7,3.97-.74,7.96-1.46,11.94-2.19.06,4.22.12,8.43.18,12.64.03,1.8.05,3.61.08,5.4.03,2.3.07,4.61.1,6.91.03,2.01.06,4.03.08,6.04.85-.45,1.7-.9,2.55-1.35,3.17-1.67,6.33-3.34,9.5-5,.05,5.12-.37,10.23-1.26,15.27,0,.02,0,.03,0,.03-.09.54-.19,1.08-.3,1.61-.03.19-.07.37-.11.56Z"/><path class="cls-1" d="M189.21,423.26c-.62,2.98-1.39,5.91-2.31,8.81l.89-.89c-7.04,1.92-12.62,6.97-16.74,12.83-4.23,5.99-6.67,12.84-8.7,19.83s-3.78,14.46-6.89,21.24-7.77,12.63-13.84,17.05c-.15.11-.94.79-.39.55-.02,0-.05,0-.06,0-.08.02-.18,0-.26,0-.36.02-.73,0-1.09,0H5.02c-2.83,0-5.77-.22-8.59,0-.12,0-.25,0-.38,0l1.27,1.27v-150.76c0-.57-.06-1.17,0-1.74.2-1.94.96-4,1.44-5.9.95-3.78,1.96-7.55,3.03-11.29,1.01-3.51,2.07-7.01,3.19-10.49l-1.56.89c11.59,3.04,19.05,13.97,21.34,25.25,2.9,14.31-2.85,28.77-10.28,40.75-4.7,7.57-10.23,14.58-15.81,21.51-.42.52-.54,1.29,0,1.8,5.28,4.96,13.53,3.24,18.73-.93,5.56-4.47,8.69-11.16,13.28-16.49,8.86-10.29,21.42-17.18,34.83-19.24,3.48-.54,7.07-.29,10.51-1.01,2.82-.59,5.51-2.13,5.72-5.27l-1.27,1.27c5.17-.31,8.71,4.72,11.87,8.07,1.65,1.75,3.43,3.51,5.55,4.68,3.24,1.79,6.5,1.51,9.81.13,1.54-.64,3.04-1.36,4.68-1.7s3.45-.31,5.16-.1c3.27.39,6.44,1.42,9.66,2.12s6.61,1.11,9.91.41,6.16-2.31,9.08-3.78c3.14-1.59,6.34-3.03,9.95-2.6,3.04.36,6.03,1.93,6.49,5.21.1.72.96,1,1.56.89,5.26-.97,10.52-1.93,15.79-2.89l-1.61-1.22c.15,10.33.31,20.66.44,30.99.01.99,1.06,1.55,1.91,1.1,4.01-2.12,8.03-4.23,12.05-6.35l-1.91-1.1c.04,5.75-.47,11.5-1.64,17.13-.33,1.59,2.12,2.28,2.45.68,1.22-5.85,1.77-11.84,1.73-17.81,0-.99-1.06-1.54-1.91-1.1-4.02,2.12-8.03,4.23-12.05,6.35l1.91,1.1c-.13-10.33-.3-20.66-.44-30.99-.01-.88-.8-1.37-1.61-1.22-5.26.96-10.53,1.93-15.79,2.89l1.56.89c-.84-6.11-8.26-7.9-13.41-6.84-3.32.69-6.36,2.55-9.36,4.03-3.24,1.6-6.48,2.68-10.14,2.45-6.88-.45-13.45-4.11-20.45-2.67-3.47.72-6.67,3.47-10.36,2.67-2.74-.59-4.9-2.71-6.77-4.66-3.84-3.99-7.9-9.65-14.1-9.28-.72.04-1.22.55-1.27,1.27-.17,2.41-3.69,2.9-5.54,3.07-2.95.27-5.88.31-8.82.76-6.14.94-12.11,2.91-17.66,5.69s-10.89,6.59-15.37,11.06c-2.21,2.2-4.22,4.59-6.05,7.12-1.96,2.7-3.74,5.55-5.84,8.14-2.39,2.94-5.2,5.61-8.86,6.84s-7.71,1.15-10.58-1.54v1.8c10.03-12.45,20.4-25.51,25.15-41.03,4.03-13.16,3.18-27.9-5.2-39.24-4.07-5.5-9.65-9.74-16.32-11.49-.68-.18-1.35.23-1.56.89-2.36,7.35-4.48,14.77-6.34,22.26-.54,2.17-1.41,4.42-1.41,6.68v42.43c0,15.46,0,30.93,0,46.39v42.01c0,6.92-.22,13.89,0,20.81,0,.09,0,.19,0,.28,0,.69.58,1.27,1.27,1.27h45.47c8.83,0,17.67,0,26.5,0h66.48c2.2,0,4.54.23,6.72,0,1.02-.11,2.02-1.14,2.8-1.74,1.47-1.13,2.88-2.33,4.21-3.62,2.66-2.59,4.99-5.52,6.91-8.71,3.87-6.45,6.02-13.75,8.04-20.94s3.95-14.7,7.75-21.3,8.95-12.39,16.01-14.82c.75-.26,1.83-.32,2.29-1.05.49-.78.64-1.95.9-2.83.6-2.08,1.1-4.17,1.54-6.29.33-1.59-2.12-2.28-2.45-.68Z"/><path class="cls-1" d="M193.83,431.76l-.76.41-2.24,1.22-2.83,1.52-.85.46-.04.03c.36-.99.7-1.98,1.02-2.98.17-.04.33-.08.49-.12.13-.03.25-.07.38-.09,1.56-.33,3.17-.49,4.83-.44Z"/><path class="cls-1" d="M193.19,430.66c-1.86.99-3.7,2-5.55,3-.39.21-.8.4-1.18.63l1.87,1.43c.36-.99.7-1.98,1.02-2.98l-.89.89c.45-.11.91-.22,1.37-.31.23-.04.46-.08.69-.12.08-.01.28-.04.1-.02.13-.02.25-.03.38-.05.94-.11,1.89-.14,2.84-.12.66.02,1.3-.6,1.27-1.27s-.56-1.25-1.27-1.27c-1.65-.05-3.31.11-4.92.43-.37.07-.76.14-1.12.26-.47.16-.74.48-.91.95-.07.19-.12.37-.18.56-.26.79-.53,1.58-.82,2.36-.17.47.08,1.05.46,1.33.4.31.97.36,1.41.1.89-.53,1.84-.99,2.75-1.48s1.8-.97,2.69-1.46c.43-.23.86-.46,1.29-.69.59-.31.82-1.18.46-1.74-.38-.6-1.11-.79-1.74-.46Z"/><path class="cls-1" d="M177.57,451.69c1.04-11.59,6.49-22.72,15-30.66,4.07,1.56,6.13,6.95,4.15,10.83-1.96.16-3.92.32-5.88.48-.05,8.29-.96,16.58-2.71,24.69-7.29-3.99-6.86-14.42-5.44-22.61.51-2.93,1.08-5.99,2.96-8.3s5.52-3.46,7.88-1.66"/><path class="cls-1" d="M178.84,451.69c1.07-11.3,6.37-21.99,14.63-29.76l-1.24.33c3.31,1.36,4.93,5.77,3.39,8.97l1.1-.63c-1.96.16-3.92.32-5.88.48-.69.06-1.26.54-1.27,1.27-.07,8.19-.95,16.34-2.66,24.35l1.87-.76c-5.58-3.16-5.97-10.32-5.52-16.03.26-3.35.71-6.93,1.83-10.11,1.05-2.99,4.49-6.56,7.82-4.24,1.34.94,2.62-1.26,1.28-2.19-2.58-1.79-5.99-1.07-8.31.79-2.8,2.24-3.69,5.97-4.29,9.33-1.01,5.67-1.79,11.98.17,17.54,1.06,3,2.96,5.52,5.75,7.1.68.38,1.69.06,1.87-.76,1.76-8.23,2.68-16.61,2.75-25.03l-1.27,1.27c1.31-.11,2.61-.21,3.92-.32.98-.08,2.43.12,3.06-.79.91-1.32,1.05-3.4.87-4.93-.39-3.47-2.55-6.44-5.78-7.77-.41-.17-.93.04-1.24.33-8.77,8.25-14.24,19.58-15.37,31.56-.15,1.63,2.39,1.62,2.54,0h0Z"/><path class="cls-1" d="M105.07,283.1l1.07,14.48c.85,11.6,1.8,23.54,7,33.94,0-3.73,1.33-7.44,3.68-10.33,2.88,5.1,5.44,10.38,7.64,15.8,3.44-7.75,6.88-15.51,10.32-23.26,1.15-2.6,2.36-5.28,4.48-7.19,1.45-1.31,3.28-2.2,4.55-3.69,4.63-5.44-.33-15.67,5.28-20.09,1.12-.88,2.59-1.44,3.25-2.7.49-.94.4-2.06.3-3.11-.57-6.05-1.15-12.1-1.72-18.14,3.29-.18,6.62.6,9.49,2.22-4.6-7.6-6.41-16.85-5.01-25.62,2.04-12.76,10.32-26.56,3.37-37.46-2.88,3.75-8.83,1.97-12.95-.36s-9.53-4.82-13.16-1.77c-2.1,1.76-2.9,5.02-5.46,5.97-4.17,1.56-9.25-4.34-12.68-1.49-.66.54-1.07,1.32-1.44,2.09-5.12,10.48-6.4,22.35-7.61,33.94-.79,7.57-1.58,15.13-2.36,22.7-.11,1.03-.27,2.17-1.06,2.84-1.14.96-2.83.43-4.32.42-6.17-.07-8.1,8.85-5.55,14.46,2.55,5.61,7.48,10.37,7.96,16.51.25,3.18-.74,6.53.47,9.48,1.96,4.79,8.88,6.52,9.85,11.6"/><path class="cls-1" d="M103.8,283.1c.63,8.58,1.07,17.2,2.06,25.75.93,8.04,2.57,16,6.18,23.31.58,1.17,2.35.55,2.37-.64.05-3.42,1.18-6.74,3.31-9.43l-1.99-.26c2.82,5.01,5.34,10.18,7.51,15.5.36.87,1.82,1.42,2.32.3,2.83-6.39,5.66-12.77,8.5-19.16,1.26-2.84,2.37-5.84,4.01-8.48.78-1.25,1.72-2.33,2.9-3.22,1.07-.81,2.24-1.52,3.21-2.46,3.37-3.27,3.11-8.21,3.19-12.54.04-2.09.07-4.39,1.08-6.28,1.13-2.12,3.71-2.62,4.91-4.65.8-1.35.65-2.9.51-4.39-.18-1.96-.37-3.92-.56-5.88-.37-3.92-.74-7.85-1.12-11.77l-1.27,1.27c3.11-.13,6.11.55,8.85,2.05,1.09.6,2.4-.62,1.74-1.74-4.61-7.72-6.33-16.98-4.67-25.83,1.55-8.3,5.22-16.16,5.86-24.64.33-4.42-.46-8.82-2.82-12.62-.39-.63-1.46-.92-1.99-.26-3.91,4.8-11.19-.75-15.24-2.48-2.6-1.11-5.68-1.99-8.47-1.03s-3.92,3.41-5.63,5.6c-3.51,4.47-8.8-2.05-13.2-.7-2.88.88-3.92,4.38-4.93,6.87-1.35,3.31-2.37,6.74-3.16,10.22-1.64,7.16-2.37,14.49-3.13,21.79-.41,3.95-.82,7.9-1.23,11.84-.21,1.97-.41,3.95-.62,5.92-.09.82-.17,1.65-.26,2.47-.09.88-.04,2.04-.44,2.86-.67,1.38-2.89.56-4.11.6-1.08.04-2.14.31-3.09.83-1.97,1.08-3.23,3.11-3.9,5.2-.72,2.25-.8,4.69-.41,7.01.45,2.71,1.86,5.11,3.29,7.41,1.83,2.93,3.97,5.82,5,9.16,1.14,3.71-.16,7.49.67,11.22.65,2.9,2.8,4.93,5.03,6.71,2.09,1.67,4.6,3.34,5.2,6.12.34,1.6,2.79.92,2.45-.68-1.1-5.12-6.64-6.6-9.28-10.6-1.91-2.9-.81-6.48-.96-9.7s-1.31-5.89-2.81-8.53c-2.67-4.68-6.61-8.95-6.24-14.67.13-2.04.77-4.35,2.33-5.78,2.05-1.88,4.35-.51,6.73-1.14,3.34-.88,3.02-5.31,3.3-7.99.41-3.95.82-7.9,1.23-11.84.76-7.27,1.37-14.59,2.58-21.81.59-3.53,1.35-7.04,2.38-10.47.51-1.71,1.09-3.4,1.75-5.05.61-1.52,1.21-3.34,2.21-4.65,1.51-1.98,4.3-.4,6.06.34,2.17.9,4.58,1.77,6.88.8,2.83-1.19,3.48-4.38,5.72-6.18,2.77-2.22,6.84-.5,9.58.88,4.72,2.37,12.14,6.63,16.52,1.26l-1.99-.26c4.53,7.29,2.02,16.03-.21,23.65-1.2,4.11-2.5,8.21-3.22,12.43s-.73,8.72-.04,13.05c.79,4.92,2.55,9.67,5.11,13.94l1.74-1.74c-3.11-1.71-6.58-2.54-10.13-2.4-.64.03-1.34.56-1.27,1.27.33,3.43.65,6.86.98,10.3.15,1.63.31,3.27.46,4.9.14,1.52.55,3.24.32,4.76-.2,1.36-1.51,1.87-2.52,2.58-.9.63-1.66,1.35-2.28,2.26-1.17,1.74-1.54,3.89-1.7,5.94-.3,3.95.72,9.1-2,12.41-.85,1.03-2.01,1.73-3.07,2.52-1.16.85-2.18,1.77-3.05,2.92-1.72,2.26-2.77,4.95-3.92,7.53-3.17,7.15-6.34,14.29-9.51,21.44l2.32.3c-2.26-5.53-4.84-10.91-7.77-16.11-.37-.65-1.48-.9-1.99-.26-2.57,3.24-4,7.08-4.06,11.22l2.37-.64c-3.53-7.14-5.07-15.04-5.93-22.91-.91-8.26-1.35-16.58-1.96-24.87-.12-1.62-2.66-1.63-2.54,0h0Z"/></svg>