<?xml version="1.0" encoding="UTF-8"?><svg xmlns="http://www.w3.org/2000/svg" viewBox="0 0 500 500"><defs><style>.cls-1{fill:#20090c;}.cls-2{fill:#fff;}.cls-3{fill:#f5d4a9;}</style></defs><rect class="cls-2" width="500" height="500"/><g id="Layer_1"><rect class="cls-3" width="500" height="500" rx="51.83" ry="51.83"/><path class="cls-1" d="M392.68,220.43c-.61-3.56-1.33-7.1-2.15-10.6-.82-3.51-1.73-6.99-2.73-10.44-1.53-5.28-3.27-10.49-5.19-15.62-1.92-5.13-4.03-10.19-6.29-15.16-1.22-2.68-2.49-5.34-3.8-7.97-1.31-2.63-2.66-5.24-4.04-7.82-13.09-24.36-29.55-46.38-45.99-65.16-16.45-18.77-32.88-34.3-45.94-45.66-3.06-2.67-5.94-5.11-8.58-7.3-2.65-2.2-5.06-4.15-7.21-5.85-3.36-2.67-6.05-4.72-7.9-6.1-1.85-1.38-2.86-2.09-2.86-2.09,0,0-1.01.71-2.86,2.09s-4.54,3.43-7.9,6.1c-2.14,1.7-4.56,3.66-7.21,5.85-2.65,2.2-5.52,4.64-8.58,7.3-13.05,11.36-29.49,26.88-45.94,45.66-16.45,18.77-32.9,40.8-45.99,65.16-1.39,2.58-2.73,5.19-4.04,7.82-1.31,2.63-2.57,5.29-3.8,7.97-4.93,10.84-9.12,22.08-12.29,33.64-3.17,11.56-5.33,23.44-6.21,35.57-.03.44-.06.88-.09,1.32s-.05.88-.08,1.32c-.09,1.58-.16,3.17-.21,4.76-.05,1.59-.07,3.18-.07,4.78s.02,3.19.07,4.78c.05,1.59.11,3.17.21,4.76.02.44.05.88.08,1.32s.06.88.09,1.32c.88,12.13,3.04,24.01,6.21,35.57,3.17,11.56,7.36,22.8,12.29,33.64,1.22,2.68,2.49,5.34,3.8,7.97,1.31,2.63,2.66,5.24,4.04,7.82,13.09,24.36,29.55,46.38,45.99,65.16,16.45,18.77,32.88,34.3,45.94,45.66,3.06,2.67,5.94,5.11,8.58,7.3,2.65,2.2,5.06,4.15,7.21,5.85,3.36,2.67,6.05,4.72,7.9,6.1s2.86,2.09,2.86,2.09c0,0,1.01-.71,2.86-2.09,1.85-1.38,4.54-3.43,7.9-6.1,2.14-1.7,4.56-3.66,7.21-5.85,2.65-2.2,5.52-4.64,8.58-7.3,13.05-11.36,29.49-26.88,45.94-45.66,16.45-18.77,32.9-40.8,45.99-65.16,1.39-2.58,2.73-5.19,4.04-7.82,1.31-2.63,2.57-5.29,3.8-7.97,2.26-4.97,4.36-10.03,6.29-15.16,1.92-5.13,3.66-10.34,5.19-15.62,1-3.45,1.91-6.93,2.73-10.44s1.54-7.04,2.15-10.6c.84-4.84,1.48-9.73,1.92-14.66.44-4.93.66-9.9.66-14.92s-.23-9.99-.66-14.92c-.44-4.93-1.08-9.82-1.92-14.66ZM368.19,276.02c-.65,3.56-1.42,7.1-2.31,10.59-.89,3.5-1.9,6.96-3,10.39-1.93,5.98-4.17,11.85-6.67,17.58-2.5,5.74-5.26,11.35-8.23,16.81-1.46,2.71-2.97,5.38-4.53,8.01-1.56,2.63-3.16,5.23-4.79,7.78-9.69,15.13-20.64,28.91-31.45,40.96-10.82,12.05-21.5,22.36-30.65,30.57-3.04,2.72-5.91,5.22-8.56,7.46s-5.08,4.24-7.24,5.98c-3.34,2.69-6.03,4.75-7.88,6.15-1.86,1.39-2.88,2.12-2.88,2.12,0,0-1.02-.72-2.88-2.12s-4.55-3.46-7.88-6.15c-2.16-1.74-4.59-3.74-7.24-5.98s-5.52-4.74-8.56-7.46c-9.15-8.2-19.83-18.52-30.65-30.57-10.82-12.05-21.76-25.82-31.45-40.96-1.64-2.56-3.24-5.15-4.79-7.78-1.56-2.63-3.07-5.3-4.53-8.01-5.67-10.46-10.6-21.45-14.4-32.86-3.8-11.4-6.46-23.23-7.6-35.36-.07-.76-.14-1.51-.2-2.27s-.11-1.52-.16-2.28c-.09-1.43-.15-2.86-.2-4.3s-.07-2.88-.07-4.32.02-2.89.07-4.32.11-2.87.2-4.3c.05-.76.1-1.52.16-2.28s.12-1.51.2-2.27c1.14-12.14,3.81-23.96,7.6-35.36,3.8-11.4,8.73-22.39,14.4-32.86,1.46-2.71,2.97-5.38,4.53-8.01,1.56-2.63,3.16-5.23,4.79-7.78,9.69-15.13,20.64-28.91,31.45-40.96,10.82-12.05,21.5-22.36,30.65-30.57,3.04-2.72,5.91-5.22,8.56-7.46,2.65-2.25,5.08-4.24,7.24-5.98,3.34-2.69,6.03-4.75,7.88-6.15,1.86-1.39,2.88-2.12,2.88-2.12,0,0,1.02.72,2.88,2.12s4.55,3.46,7.88,6.15c2.16,1.74,4.59,3.74,7.24,5.98s5.52,4.74,8.56,7.46c9.15,8.2,19.83,18.52,30.65,30.57,10.82,12.05,21.76,25.82,31.45,40.96,1.64,2.56,3.24,5.15,4.79,7.78,1.56,2.63,3.07,5.3,4.53,8.01,2.96,5.47,5.73,11.08,8.23,16.81s4.74,11.6,6.67,17.58c1.11,3.43,2.11,6.89,3,10.39.89,3.5,1.67,7.03,2.31,10.59.78,4.25,1.38,8.55,1.79,12.89.41,4.34.62,8.72.62,13.13s-.21,8.79-.62,13.13c-.41,4.34-1.01,8.64-1.79,12.89Z"/><path class="cls-1" d="M353.42,273.87c-.68,3.56-1.5,7.09-2.45,10.58-.95,3.49-2.03,6.94-3.22,10.34-2.25,6.45-4.91,12.74-7.88,18.84-2.97,6.11-6.26,12.03-9.76,17.75h-31.93c4.67-5.92,9.19-12.28,13.32-19.02,4.13-6.74,7.85-13.85,10.92-21.26l-22.93-3.33-22.93-3.33v-21.75l26.19,3.8,26.19,3.8,12.24,1.78,12.24,1.78Z"/><path class="cls-1" d="M353.42,226.13l-12.24,1.78-12.24,1.78-26.19,3.8-26.19,3.8v-21.75l22.93-3.33,22.93-3.33c-3.07-7.42-6.79-14.53-10.92-21.26-4.13-6.74-8.65-13.1-13.32-19.02h31.93c3.5,5.72,6.79,11.64,9.76,17.75,2.97,6.11,5.63,12.4,7.88,18.84,1.19,3.4,2.27,6.85,3.22,10.34.95,3.49,1.77,7.02,2.45,10.58Z"/><path class="cls-1" d="M223.45,245.01l-17.19,2.5-17.19,2.5,17.19,2.5,17.19,2.5v21.75l-26.32-3.82-26.32-3.82c2.33,11.72,6.64,22.93,12.09,33.38,5.45,10.46,12.03,20.17,18.92,28.91h-31.93c-6.09-9.93-11.51-20.48-15.78-31.53-4.27-11.05-7.39-22.59-8.87-34.48-.18-1.47-.34-2.95-.48-4.43s-.24-2.97-.32-4.47c-.06-1.07-.1-2.15-.13-3.23-.03-1.08-.04-2.16-.04-3.25s.01-2.17.04-3.25c.03-1.08.07-2.16.13-3.23.08-1.49.19-2.98.32-4.47s.29-2.96.48-4.43c1.48-11.9,4.6-23.44,8.87-34.48,4.27-11.05,9.69-21.6,15.78-31.53h31.93c-6.89,8.74-13.48,18.45-18.92,28.91-5.45,10.46-9.76,21.66-12.09,33.38l26.32-3.82,26.32-3.82v21.75Z"/><path class="cls-1" d="M284.55,347.18h34.99c-7.05,9.73-14.55,18.68-21.9,26.69s-14.58,15.08-21.08,21.06c-3.02,2.77-5.88,5.31-8.53,7.59-2.65,2.28-5.09,4.32-7.26,6.08-3.31,2.7-6,4.78-7.87,6.18-1.86,1.41-2.89,2.14-2.89,2.14,0,0-1.03-.73-2.89-2.14s-4.55-3.49-7.87-6.18c-2.17-1.77-4.61-3.8-7.26-6.08-2.65-2.28-5.51-4.82-8.53-7.59-6.5-5.98-13.72-13.05-21.08-21.06-7.36-8.01-14.85-16.96-21.9-26.69h34.99c1.36,1.45,2.71,2.85,4.04,4.21s2.66,2.67,3.95,3.94c2.96,2.89,5.8,5.54,8.46,7.93s5.13,4.52,7.33,6.36v-239.24c-2.21,1.84-4.67,3.97-7.33,6.36-2.66,2.39-5.5,5.04-8.46,7.93-1.3,1.27-2.62,2.58-3.95,3.94-1.33,1.36-2.68,2.76-4.04,4.21h-34.99c7.05-9.73,14.55-18.68,21.9-26.69,7.36-8.01,14.58-15.08,21.08-21.06,3.02-2.77,5.88-5.31,8.53-7.59,2.65-2.28,5.09-4.32,7.26-6.08,3.31-2.7,6-4.78,7.87-6.18,1.86-1.41,2.89-2.14,2.89-2.14,0,0,1.03.73,2.89,2.14s4.55,3.49,7.87,6.18c2.17,1.77,4.61,3.8,7.26,6.08,2.65,2.28,5.51,4.82,8.53,7.59,6.5,5.98,13.72,13.05,21.08,21.06,7.36,8.01,14.85,16.96,21.9,26.69h-34.99c-1.36-1.45-2.71-2.85-4.04-4.21-1.33-1.36-2.66-2.67-3.95-3.94-2.96-2.89-5.8-5.54-8.46-7.93-2.66-2.39-5.13-4.52-7.33-6.36v239.24c2.21-1.84,4.67-3.97,7.33-6.36,2.66-2.39,5.5-5.04,8.46-7.93,1.3-1.27,2.62-2.58,3.95-3.94,1.33-1.36,2.68-2.76,4.04-4.21Z"/></g></svg>